<svg xmlns="http://www.w3.org/2000/svg" version="1.1" xmlns:xlink="http://www.w3.org/1999/xlink"
     xmlns:svgjs="http://svgjs.dev/svgjs" width="2000" height="1500" viewBox="0 0 2000 1500">
    <style>
        .color{
            fill: #000000;
        }
    </style>
    <g transform="matrix(0.75,0,0,0.75,249.09093104307908,386.29663778873305)">
        <svg viewBox="0 0 396 192" data-background-color="#0718c4" preserveAspectRatio="xMidYMid meet" height="969"
             width="2000" xmlns="http://www.w3.org/2000/svg" xmlns:xlink="http://www.w3.org/1999/xlink">
            <g id="tight-bounds" transform="matrix(1,0,0,1,0.2399942046271235,0.08674997531922202)">
                <svg viewBox="0 0 395.52 191.82650004936156" height="191.82650004936156" width="395.52">
                    <g>
                        <svg viewBox="0 0 395.52 191.82650004936156" height="191.82650004936156" width="395.52">
                            <g transform="matrix(1,0,0,1,0,140.31453144108292)">
                                <svg viewBox="0 0 395.52 51.511968608278636" height="51.511968608278636" width="395.52">
                                    <g>
                                        <svg viewBox="0 0 395.52 51.511968608278636" height="51.511968608278636"
                                             width="395.52" id="textblock">
                                            <g>
                                                <rect width="89.92177698719513" height="2.505508128817897"
                                                      y="41.674238361686164" class="color"
                                                      data-fill-palette-color="tertiary"></rect>
                                                <rect width="89.92177698719513" height="2.505508128817897"
                                                      y="41.674238361686164" x="305.59822301280485" class="color"
                                                      data-fill-palette-color="tertiary"></rect>
                                            </g>
                                            <g>
                                                <svg viewBox="0 0 395.52 27.783094440723374" height="27.783094440723374"
                                                     width="395.52">
                                                    <g transform="matrix(1,0,0,1,0,0)">
                                                        <svg width="395.52"
                                                             viewBox="2 -38.720001220703125 583.1699829101562 40.970001220703125"
                                                             height="27.783094440723374" data-palette-color="#ffffff">
                                                            <path d="M31.45-28.42L31.45-28.42 31.45-25 22.02-24.51Q21.83-21.68 21.73-18.9 21.63-16.11 21.63-13.33L21.63-13.33Q21.63-9.91 21.46-6.52 21.29-3.13 21.04 0.24L21.04 0.24Q19.29 0.34 17.53 0.42 15.77 0.49 14.01 0.49L14.01 0.49Q13.38 0.49 12.77 0.46 12.16 0.44 11.57 0.44L11.57 0.44Q11.67-2.54 11.74-5.49 11.82-8.45 11.82-11.38L11.82-11.38Q11.82-14.31 11.67-17.26 11.52-20.21 11.33-23.19L11.33-23.19Q9.91-23.14 8.47-23.1 7.03-23.05 5.57-23.05L5.57-23.05Q4.74-23.05 3.93-23.05 3.13-23.05 2.29-23.1L2.29-23.1Q2.15-26.71 2.1-30.27 2.05-33.84 2-37.4L2-37.4Q9.33-37.26 16.55-36.99 23.78-36.72 31.05-36.52L31.05-36.52Q31.25-34.42 31.35-32.45 31.45-30.47 31.45-28.42ZM63.96-36.23L64.5-29.74Q59.71-29.49 55-29.22 50.29-28.96 45.51-28.56L45.51-28.56 45.41-24.71 58.01-25.44Q58.25-23.78 58.37-22.17 58.49-20.56 58.49-18.9L58.49-18.9Q58.49-18.21 58.47-17.48 58.44-16.75 58.44-16.06L58.44-16.06 46.73-13.96 47.46-7.91Q51.17-8.15 54.86-8.62 58.54-9.08 62.3-9.42L62.3-9.42Q62.64-6.98 62.99-4.52 63.33-2.05 63.96 0.29L63.96 0.29Q57.03 0.24 50.19 0.32 43.36 0.39 36.42 0.39L36.42 0.39Q36.57-5.32 36.77-10.99 36.96-16.65 36.96-22.41L36.96-22.41 36.96-23.34Q36.96-26.66 36.86-29.96 36.77-33.25 36.67-36.62L36.67-36.62Q40.52-36.57 44.36-36.6 48.19-36.62 52.1-36.62L52.1-36.62Q55.08-36.62 58.03-36.5 60.98-36.38 63.96-36.23L63.96-36.23ZM107.03-15.72L107.03-15.72Q107.03-11.43 107-7.25 106.98-3.08 106.93 1.22L106.93 1.22Q103.9 1.07 100.92 1.07L100.92 1.07Q99.46 1.07 97.97 1.22 96.48 1.37 95.01 1.61L95.01 1.61Q93.16-2.44 91.3-6.42 89.45-10.4 87.59-14.45L87.59-14.45Q86.23-17.43 85-20.41 83.78-23.39 82.56-26.42L82.56-26.42Q82.12-19.82 81.66-13.31 81.2-6.79 80.9-0.2L80.9-0.2 70.36-0.49Q70.11-9.86 69.92-19.14 69.72-28.42 69.23-37.79L69.23-37.79 88.33-37.89Q89.3-35.45 90.16-32.98 91.01-30.52 91.79-27.98L91.79-27.98Q92.91-24.12 94.33-20.34 95.75-16.55 97.16-12.74L97.16-12.74Q97.11-18.85 96.94-24.9 96.77-30.96 96.67-37.11L96.67-37.11 106.54-35.94Q106.73-30.86 106.88-25.83 107.03-20.8 107.03-15.72ZM152.58-15.72L152.58-15.72Q152.58-11.43 152.56-7.25 152.53-3.08 152.48 1.22L152.48 1.22Q149.46 1.07 146.48 1.07L146.48 1.07Q145.01 1.07 143.52 1.22 142.03 1.37 140.57 1.61L140.57 1.61Q138.71-2.44 136.86-6.42 135-10.4 133.15-14.45L133.15-14.45Q131.78-17.43 130.56-20.41 129.34-23.39 128.12-26.42L128.12-26.42Q127.68-19.82 127.21-13.31 126.75-6.79 126.46-0.2L126.46-0.2 115.91-0.49Q115.67-9.86 115.47-19.14 115.28-28.42 114.79-37.79L114.79-37.79 133.88-37.89Q134.86-35.45 135.71-32.98 136.56-30.52 137.35-27.98L137.35-27.98Q138.47-24.12 139.89-20.34 141.3-16.55 142.72-12.74L142.72-12.74Q142.67-18.85 142.5-24.9 142.33-30.96 142.23-37.11L142.23-37.11 152.09-35.94Q152.29-30.86 152.43-25.83 152.58-20.8 152.58-15.72ZM179.04-35.84L179.04-35.84Q178.8-32.86 178.85-29.91 178.9-26.95 178.8-24.02L178.8-24.02 173.38-24.22Q173.33-22.51 173.31-20.85 173.28-19.19 173.28-17.48L173.28-17.48Q173.28-15.43 173.31-13.45 173.33-11.47 173.38-9.42L173.38-9.42 178.36-9.33Q178.26-7.91 178.26-6.45 178.26-4.98 178.26-3.52L178.26-3.52Q178.26-2.29 178.33-1.07 178.41 0.15 178.65 1.32L178.65 1.32 161.12 1.61Q161.12-0.78 161.07-3.1 161.03-5.42 160.88-7.81L160.88-7.81 164.05-7.86Q163.81-12.45 163.49-16.94 163.17-21.44 162.83-25.98L162.83-25.98 158.19-26.56Q158.1-28.61 158.02-30.64 157.95-32.67 157.85-34.72L157.85-34.72Q163.17-34.91 168.42-35.18 173.67-35.45 179.04-35.84ZM222.25-8.59L222.25-8.59Q222.25-6.25 221.13-4.81 220.01-3.37 217.96-2.49L217.96-2.49Q216.25-1.76 213.66-1.34 211.07-0.93 208.29-0.76 205.51-0.59 202.82-0.54 200.13-0.49 198.33-0.49L198.33-0.49Q195.25-0.49 192.25-0.59 189.25-0.68 186.17-0.88L186.17-0.88Q186.32-5.86 185.88-10.74L185.88-10.74Q189.54-10.64 193.18-10.57 196.81-10.5 200.48-10.4L200.48-10.4Q201.89-10.35 203.33-10.3 204.77-10.25 206.24-10.25L206.24-10.25Q206.48-10.25 206.97-10.25 207.46-10.25 208-10.3 208.53-10.35 209-10.45 209.46-10.55 209.7-10.74L209.7-10.74Q209.9-10.94 209.95-11.3 210-11.67 210-11.96L210-11.96Q210-12.5 209.85-13.26 209.7-14.01 209.41-14.5L209.41-14.5Q209.36-14.55 209.09-14.6 208.83-14.65 208.48-14.67 208.14-14.7 207.85-14.72 207.56-14.75 207.51-14.75L207.51-14.75Q204.38-14.99 201.28-15.09 198.18-15.19 195.06-15.43L195.06-15.43Q193.64-15.58 192.15-15.72 190.66-15.87 189.39-16.26L189.39-16.26Q188.17-16.6 187.32-17.8 186.46-18.99 185.95-20.53 185.44-22.07 185.22-23.63 185-25.2 185-26.27L185-26.27Q185-28.03 185.34-29.61 185.68-31.2 186.44-32.57 187.19-33.94 188.37-34.99 189.54-36.04 191.25-36.72L191.25-36.72Q194.18-37.84 197.52-38.28 200.87-38.72 203.94-38.72L203.94-38.72Q207.56-38.72 211.07-38.28 214.59-37.84 218.1-37.16L218.1-37.16Q218.05-35.74 218.03-34.35 218.01-32.96 218.01-31.54L218.01-31.54Q218.01-30.13 218.15-28.69 218.3-27.25 218.44-25.83L218.44-25.83Q213.81-25.73 209.19-25.66 204.58-25.59 199.89-25.39L199.89-25.39Q199.3-25.39 198.3-25.34 197.3-25.29 196.37-25.22 195.45-25.15 194.76-25.1 194.08-25.05 194.08-25.05L194.08-25.05Q193.84-24.51 193.79-23.95 193.74-23.39 193.74-22.8L193.74-22.8Q193.74-22.51 193.76-22.07 193.79-21.63 193.98-21.39L193.98-21.39Q194.03-21.34 194.81-21.24 195.59-21.14 196.55-21.04 197.5-20.95 198.35-20.85 199.21-20.75 199.4-20.75L199.4-20.75Q201.01-20.61 203.19-20.41 205.36-20.21 207.63-19.97 209.9-19.73 212-19.36 214.1-18.99 215.66-18.51L215.66-18.51Q217.08-18.02 218.27-16.97 219.47-15.92 220.35-14.53 221.23-13.13 221.74-11.6 222.25-10.06 222.25-8.59ZM275.32-28.42L275.32-28.42 275.32-25 265.9-24.51Q265.71-21.68 265.61-18.9 265.51-16.11 265.51-13.33L265.51-13.33Q265.51-9.91 265.34-6.52 265.17-3.13 264.92 0.24L264.92 0.24Q263.17 0.34 261.41 0.42 259.65 0.49 257.89 0.49L257.89 0.49Q257.26 0.49 256.65 0.46 256.04 0.44 255.45 0.44L255.45 0.44Q255.55-2.54 255.62-5.49 255.7-8.45 255.7-11.38L255.7-11.38Q255.7-14.31 255.55-17.26 255.4-20.21 255.21-23.19L255.21-23.19Q253.79-23.14 252.35-23.1 250.91-23.05 249.45-23.05L249.45-23.05Q248.62-23.05 247.81-23.05 247-23.05 246.17-23.1L246.17-23.1Q246.03-26.71 245.98-30.27 245.93-33.84 245.88-37.4L245.88-37.4Q253.21-37.26 260.43-36.99 267.66-36.72 274.93-36.52L274.93-36.52Q275.13-34.42 275.23-32.45 275.32-30.47 275.32-28.42ZM307.84-36.23L308.38-29.74Q303.59-29.49 298.88-29.22 294.17-28.96 289.38-28.56L289.38-28.56 289.29-24.71 301.88-25.44Q302.13-23.78 302.25-22.17 302.37-20.56 302.37-18.9L302.37-18.9Q302.37-18.21 302.35-17.48 302.32-16.75 302.32-16.06L302.32-16.06 290.61-13.96 291.34-7.91Q295.05-8.15 298.73-8.62 302.42-9.08 306.18-9.42L306.18-9.42Q306.52-6.98 306.86-4.52 307.21-2.05 307.84 0.29L307.84 0.29Q300.91 0.24 294.07 0.32 287.24 0.39 280.3 0.39L280.3 0.39Q280.45-5.32 280.64-10.99 280.84-16.65 280.84-22.41L280.84-22.41 280.84-23.34Q280.84-26.66 280.74-29.96 280.64-33.25 280.55-36.62L280.55-36.62Q284.4-36.57 288.24-36.6 292.07-36.62 295.98-36.62L295.98-36.62Q298.95-36.62 301.91-36.5 304.86-36.38 307.84-36.23L307.84-36.23ZM344.66-0.15L344.66-0.15 337.23 0.98Q336.45-1.51 335.67-3.98 334.89-6.45 334.16-8.94L334.16-8.94 322.15-8.5 320.63-2 313.11-2Q313.8-10.3 314.53-18.51 315.26-26.71 315.94-34.96L315.94-34.96Q319.46-35.55 322.95-35.94 326.44-36.33 330.01-36.33L330.01-36.33Q334.35-36.33 338.7-36.18L338.7-36.18Q339.48-31.1 340.24-26.05 340.99-21 341.82-15.92L341.82-15.92Q342.41-11.91 343.12-8.01 343.83-4.1 344.66-0.15ZM323.07-15.33L332.45-15.58Q332.4-16.02 332.2-17.21 332.01-18.41 331.76-19.75 331.52-21.09 331.2-22.19 330.89-23.29 330.59-23.49L330.59-23.49Q330.5-23.54 330.13-23.58 329.76-23.63 329.35-23.68 328.93-23.73 328.54-23.73 328.15-23.73 328-23.73L328-23.73Q327.76-23.73 327.35-23.73 326.93-23.73 326.47-23.71 326-23.68 325.59-23.58 325.17-23.49 325.03-23.34L325.03-23.34Q324.93-23.29 324.78-22.71 324.64-22.12 324.42-21.26 324.2-20.41 323.98-19.43 323.76-18.46 323.56-17.58 323.37-16.7 323.24-16.06 323.12-15.43 323.07-15.33L323.07-15.33ZM391.14-1.37L391.14 0.83Q390.21 0.78 389.33 0.68L389.33 0.68Q388.6 0.59 387.89 0.54 387.18 0.49 386.84 0.49L386.84 0.49Q384.94 0.49 383.03 0.56 381.13 0.63 379.27 0.83L379.27 0.83Q379.32-1.22 379.35-3.2 379.37-5.18 379.37-7.23L379.37-7.23Q379.37-10.89 379.25-14.5 379.13-18.12 379.03-21.73L379.03-21.73 368.77 1.46Q366.53-4.64 363.96-10.52 361.4-16.41 358.62-22.27L358.62-22.27 359.4 1.86Q358.86 1.86 358.3 1.83 357.74 1.81 357.15 1.81L357.15 1.81Q355.3 1.81 353.52 1.95 351.73 2.1 349.93 2.25L349.93 2.25Q350.17-2.29 350.41-6.79 350.66-11.28 350.66-15.82L350.66-15.82Q350.66-21.14 350.59-26.42 350.51-31.69 350.46-37.01L350.46-37.01Q353.98-37.01 357.32-37.21 360.67-37.4 364.18-37.74L364.18-37.74Q365.36-33.84 366.6-30 367.85-26.17 369.26-22.36L369.26-22.36Q370.78-25.98 372.7-29.44 374.63-32.91 376.64-36.33L376.64-36.33Q379.96-36.43 383.2-36.52 386.45-36.62 389.77-36.67L389.77-36.67Q389.92-32.28 390.14-27.98 390.36-23.68 390.55-19.29L390.55-19.29Q390.7-15.82 390.82-12.35 390.94-8.89 391.04-5.47L391.04-5.47 391.14-1.37ZM439.87-1.37L439.87 0.83Q438.94 0.78 438.06 0.68L438.06 0.68Q437.33 0.59 436.62 0.54 435.91 0.49 435.57 0.49L435.57 0.49Q433.66 0.49 431.76 0.56 429.86 0.63 428 0.83L428 0.83Q428.05-1.22 428.07-3.2 428.1-5.18 428.1-7.23L428.1-7.23Q428.1-10.89 427.98-14.5 427.85-18.12 427.76-21.73L427.76-21.73 417.5 1.46Q415.26-4.64 412.69-10.52 410.13-16.41 407.35-22.27L407.35-22.27 408.13 1.86Q407.59 1.86 407.03 1.83 406.47 1.81 405.88 1.81L405.88 1.81Q404.03 1.81 402.24 1.95 400.46 2.1 398.65 2.25L398.65 2.25Q398.9-2.29 399.14-6.79 399.39-11.28 399.39-15.82L399.39-15.82Q399.39-21.14 399.31-26.42 399.24-31.69 399.19-37.01L399.19-37.01Q402.71-37.01 406.05-37.21 409.4-37.4 412.91-37.74L412.91-37.74Q414.08-33.84 415.33-30 416.57-26.17 417.99-22.36L417.99-22.36Q419.5-25.98 421.43-29.44 423.36-32.91 425.36-36.33L425.36-36.33Q428.68-36.43 431.93-36.52 435.18-36.62 438.5-36.67L438.5-36.67Q438.64-32.28 438.86-27.98 439.08-23.68 439.28-19.29L439.28-19.29Q439.43-15.82 439.55-12.35 439.67-8.89 439.77-5.47L439.77-5.47 439.87-1.37ZM478.93-0.15L478.93-0.15 471.5 0.98Q470.72-1.51 469.94-3.98 469.16-6.45 468.43-8.94L468.43-8.94 456.42-8.5 454.9-2 447.38-2Q448.07-10.3 448.8-18.51 449.53-26.71 450.21-34.96L450.21-34.96Q453.73-35.55 457.22-35.94 460.71-36.33 464.28-36.33L464.28-36.33Q468.62-36.33 472.97-36.18L472.97-36.18Q473.75-31.1 474.51-26.05 475.26-21 476.09-15.92L476.09-15.92Q476.68-11.91 477.39-8.01 478.1-4.1 478.93-0.15ZM457.34-15.33L466.72-15.58Q466.67-16.02 466.47-17.21 466.28-18.41 466.03-19.75 465.79-21.09 465.47-22.19 465.16-23.29 464.86-23.49L464.86-23.49Q464.76-23.54 464.4-23.58 464.03-23.63 463.62-23.68 463.2-23.73 462.81-23.73 462.42-23.73 462.27-23.73L462.27-23.73Q462.03-23.73 461.62-23.73 461.2-23.73 460.74-23.71 460.27-23.68 459.86-23.58 459.44-23.49 459.3-23.34L459.3-23.34Q459.2-23.29 459.05-22.71 458.91-22.12 458.69-21.26 458.47-20.41 458.25-19.43 458.03-18.46 457.83-17.58 457.64-16.7 457.51-16.06 457.39-15.43 457.34-15.33L457.34-15.33ZM510.91-28.42L510.91-28.42 510.91-25 501.48-24.51Q501.29-21.68 501.19-18.9 501.09-16.11 501.09-13.33L501.09-13.33Q501.09-9.91 500.92-6.52 500.75-3.13 500.5 0.24L500.5 0.24Q498.75 0.34 496.99 0.42 495.23 0.49 493.47 0.49L493.47 0.49Q492.84 0.49 492.23 0.46 491.62 0.44 491.03 0.44L491.03 0.44Q491.13-2.54 491.2-5.49 491.28-8.45 491.28-11.38L491.28-11.38Q491.28-14.31 491.13-17.26 490.98-20.21 490.79-23.19L490.79-23.19Q489.37-23.14 487.93-23.1 486.49-23.05 485.03-23.05L485.03-23.05Q484.2-23.05 483.39-23.05 482.58-23.05 481.75-23.1L481.75-23.1Q481.61-26.71 481.56-30.27 481.51-33.84 481.46-37.4L481.46-37.4Q488.79-37.26 496.01-36.99 503.24-36.72 510.51-36.52L510.51-36.52Q510.71-34.42 510.81-32.45 510.91-30.47 510.91-28.42ZM543.42-36.23L543.96-29.74Q539.17-29.49 534.46-29.22 529.75-28.96 524.96-28.56L524.96-28.56 524.87-24.71 537.46-25.44Q537.71-23.78 537.83-22.17 537.95-20.56 537.95-18.9L537.95-18.9Q537.95-18.21 537.93-17.48 537.9-16.75 537.9-16.06L537.9-16.06 526.19-13.96 526.92-7.91Q530.63-8.15 534.32-8.62 538-9.08 541.76-9.42L541.76-9.42Q542.1-6.98 542.45-4.52 542.79-2.05 543.42 0.29L543.42 0.29Q536.49 0.24 529.65 0.32 522.82 0.39 515.88 0.39L515.88 0.39Q516.03-5.32 516.22-10.99 516.42-16.65 516.42-22.41L516.42-22.41 516.42-23.34Q516.42-26.66 516.32-29.96 516.22-33.25 516.13-36.62L516.13-36.62Q519.98-36.57 523.82-36.6 527.65-36.62 531.56-36.62L531.56-36.62Q534.54-36.62 537.49-36.5 540.44-36.38 543.42-36.23L543.42-36.23ZM585.17-8.59L585.17-8.59Q585.17-6.25 584.04-4.81 582.92-3.37 580.87-2.49L580.87-2.49Q579.16-1.76 576.57-1.34 573.99-0.93 571.2-0.76 568.42-0.59 565.73-0.54 563.05-0.49 561.24-0.49L561.24-0.49Q558.17-0.49 555.16-0.59 552.16-0.68 549.08-0.88L549.08-0.88Q549.23-5.86 548.79-10.74L548.79-10.74Q552.45-10.64 556.09-10.57 559.73-10.5 563.39-10.4L563.39-10.4Q564.81-10.35 566.25-10.3 567.69-10.25 569.15-10.25L569.15-10.25Q569.4-10.25 569.88-10.25 570.37-10.25 570.91-10.3 571.45-10.35 571.91-10.45 572.37-10.55 572.62-10.74L572.62-10.74Q572.81-10.94 572.86-11.3 572.91-11.67 572.91-11.96L572.91-11.96Q572.91-12.5 572.77-13.26 572.62-14.01 572.33-14.5L572.33-14.5Q572.28-14.55 572.01-14.6 571.74-14.65 571.4-14.67 571.06-14.7 570.76-14.72 570.47-14.75 570.42-14.75L570.42-14.75Q567.3-14.99 564.2-15.09 561.1-15.19 557.97-15.43L557.97-15.43Q556.55-15.58 555.07-15.72 553.58-15.87 552.31-16.26L552.31-16.26Q551.09-16.6 550.23-17.8 549.38-18.99 548.86-20.53 548.35-22.07 548.13-23.63 547.91-25.2 547.91-26.27L547.91-26.27Q547.91-28.03 548.25-29.61 548.6-31.2 549.35-32.57 550.11-33.94 551.28-34.99 552.45-36.04 554.16-36.72L554.16-36.72Q557.09-37.84 560.44-38.28 563.78-38.72 566.86-38.72L566.86-38.72Q570.47-38.72 573.99-38.28 577.5-37.84 581.02-37.16L581.02-37.16Q580.97-35.74 580.94-34.35 580.92-32.96 580.92-31.54L580.92-31.54Q580.92-30.13 581.07-28.69 581.21-27.25 581.36-25.83L581.36-25.83Q576.72-25.73 572.11-25.66 567.49-25.59 562.8-25.39L562.8-25.39Q562.22-25.39 561.22-25.34 560.22-25.29 559.29-25.22 558.36-25.15 557.68-25.1 556.99-25.05 556.99-25.05L556.99-25.05Q556.75-24.51 556.7-23.95 556.65-23.39 556.65-22.8L556.65-22.8Q556.65-22.51 556.68-22.07 556.7-21.63 556.9-21.39L556.9-21.39Q556.94-21.34 557.73-21.24 558.51-21.14 559.46-21.04 560.41-20.95 561.27-20.85 562.12-20.75 562.32-20.75L562.32-20.75Q563.93-20.61 566.1-20.41 568.27-20.21 570.54-19.97 572.81-19.73 574.91-19.36 577.01-18.99 578.58-18.51L578.58-18.51Q579.99-18.02 581.19-16.97 582.38-15.92 583.26-14.53 584.14-13.13 584.65-11.6 585.17-10.06 585.17-8.59Z"
                                                                  opacity="1" transform="matrix(1,0,0,1,0,0)"
                                                                  class="color undefined-text-0"
                                                                  data-fill-palette-color="primary" id="text-0"></path>
                                                        </svg>
                                                    </g>
                                                </svg>
                                            </g>
                                            <g transform="matrix(1,0,0,1,89.92177698719513,34.34201624391159)">
                                                <svg viewBox="0 0 215.67644602560972 17.169952364367045"
                                                     height="17.169952364367045" width="215.67644602560972">
                                                    <g transform="matrix(1,0,0,1,8,0)">
                                                        <svg width="199.67644602560972"
                                                             viewBox="5 -33.25 395.3599853515625 34"
                                                             height="17.169952364367045" data-palette-color="#ffffff">
                                                            <path d="M8.5-15L8.5 0 5 0 5-32.5 18.75-32.5 18.75-29.5 8.5-29.5 8.5-18 16.75-18 16.75-15 8.5-15ZM29.25-32.5L29.25 0 25.75 0 25.75-32.5 29.25-32.5ZM42.75-25.25L42.75 0 39.25 0 39.25-32.5 40.75-32.5 42-29.25Q44.4-33.25 48.65-33.25L48.65-33.25Q56-33.25 56-26.25L56-26.25 56 0 52.5 0 52.5-26.25Q52.5-28.15 51.67-29.2 50.85-30.25 48.65-30.25 46.45-30.25 44.6-28.55 42.75-26.85 42.75-25.25L42.75-25.25ZM73.54 0L73.54 0 65.49 0 65.49-32.5 73.54-32.5Q77.44-32.5 79.47-30.65 81.49-28.8 81.49-25.5L81.49-25.5 81.49-7Q81.49-3.65 79.49-1.83 77.49 0 73.54 0ZM77.99-7L77.99-7 77.99-25.5Q77.99-27.4 76.84-28.45 75.69-29.5 73.54-29.5L73.54-29.5 68.99-29.5 68.99-3 73.54-3Q77.99-3 77.99-7ZM101.49-5.75L101.49-32.5 112.49-32.5 112.49-29.5 104.99-29.5 104.99-5.55Q104.99-4.15 105.71-3.2 106.44-2.25 107.76-2.25 109.09-2.25 109.79-3.18 110.49-4.1 110.49-5.55L110.49-5.55 110.49-11.5 113.99-11.5 113.99-5.75Q113.99-2.6 112.31-0.93 110.64 0.75 107.79 0.75 104.94 0.75 103.21-0.93 101.49-2.6 101.49-5.75L101.49-5.75ZM133.24-6.25L133.24-6.25 133.24-9 136.74-9 136.74-6.25Q136.74-2.9 134.69-1.07 132.64 0.75 128.54 0.75 124.44 0.75 122.34-1.07 120.24-2.9 120.24-6.25L120.24-6.25 120.24-26.25Q120.24-29.6 122.29-31.43 124.34-33.25 128.44-33.25 132.54-33.25 134.64-31.43 136.74-29.6 136.74-26.25L136.74-26.25 136.74-15.25 123.74-15.25 123.74-6.25Q123.74-2.25 128.49-2.25 133.24-2.25 133.24-6.25ZM123.74-26.25L123.74-26.25 123.74-18.25 133.24-18.25 133.24-26.25Q133.24-30.25 128.49-30.25 123.74-30.25 123.74-26.25ZM149.48-25.25L149.48 0 145.98 0 145.98-32.5 147.48-32.5 148.73-29.25Q151.13-33.25 155.38-33.25L155.38-33.25Q162.73-33.25 162.73-26.25L162.73-26.25 162.73 0 159.23 0 159.23-26.25Q159.23-28.15 158.41-29.2 157.58-30.25 155.38-30.25 153.18-30.25 151.33-28.55 149.48-26.85 149.48-25.25L149.48-25.25ZM175.73-25.25L175.73 0 172.23 0 172.23-32.5 173.73-32.5 174.98-29.25Q177.38-33.25 181.63-33.25L181.63-33.25Q188.98-33.25 188.98-26.25L188.98-26.25 188.98 0 185.48 0 185.48-26.25Q185.48-28.15 184.66-29.2 183.83-30.25 181.63-30.25 179.43-30.25 177.58-28.55 175.73-26.85 175.73-25.25L175.73-25.25ZM201.98-32.5L201.98 0 198.48 0 198.48-32.5 201.98-32.5ZM227.88-6.25L227.88-6.25Q227.88 0.75 219.43 0.75 210.98 0.75 210.98-6.25L210.98-6.25 210.98-10.5 214.48-10.5 214.48-6.05Q214.48-4.25 215.73-3.25 216.98-2.25 219.43-2.25 221.88-2.25 223.13-3.25 224.38-4.25 224.38-5.98 224.38-7.7 224-8.72 223.63-9.75 222.48-10.9L222.48-10.9 213.68-19.5Q212.13-21.05 211.55-22.53 210.98-24 210.98-26.25L210.98-26.25Q210.98-29.6 213.05-31.43 215.13-33.25 219.33-33.25L219.33-33.25Q227.38-33.25 227.38-26.25L227.38-26.25 227.38-22 223.88-22 223.88-26.45Q223.88-28.25 222.7-29.25 221.53-30.25 219.18-30.25 216.83-30.25 215.65-29.25 214.48-28.25 214.48-26.5 214.48-24.75 214.83-23.75 215.18-22.75 216.38-21.65L216.38-21.65 225.33-13.05Q226.78-11.45 227.33-9.98 227.88-8.5 227.88-6.25ZM251.37-10L251.37 0 247.87 0 247.87-32.5 255.42-32.5Q259.32-32.5 261.35-30.65 263.37-28.8 263.37-25.5L263.37-25.5 263.37-17Q263.37-13.65 261.37-11.83 259.37-10 255.42-10L255.42-10 251.37-10ZM259.87-17L259.87-17 259.87-25.5Q259.87-27.4 258.72-28.45 257.57-29.5 255.42-29.5L255.42-29.5 251.37-29.5 251.37-13 255.42-13Q259.87-13 259.87-17ZM286.87-26.25L286.87 0 285.37 0 284.07-3.2Q283.02-1.4 281.32-0.33 279.62 0.75 277.57 0.75L277.57 0.75Q270.37 0.75 270.37-6.25L270.37-6.25 270.37-11.25Q270.37-18.25 277.57-18.25L277.57-18.25 283.37-18.25 283.37-26.45Q283.37-28.25 282.22-29.25 281.07-30.25 278.82-30.25L278.82-30.25Q274.37-30.25 274.37-26.45L274.37-26.45 274.37-23.5 270.87-23.5 270.87-26.25Q270.87-29.6 272.84-31.43 274.82-33.25 278.82-33.25 282.82-33.25 284.84-31.43 286.87-29.6 286.87-26.25L286.87-26.25ZM283.37-7.1L283.37-15.25 277.57-15.25Q275.47-15.25 274.67-14.2 273.87-13.15 273.87-11.25L273.87-11.25 273.87-6.25Q273.87-4.35 274.67-3.3 275.47-2.25 277.57-2.25 279.67-2.25 281.47-3.88 283.27-5.5 283.37-7.1L283.37-7.1ZM299.87-22.85L299.87 0 296.37 0 296.37-32.5 297.87-32.5 299.31-28.8Q300.92-33.25 304.42-33.25L304.42-33.25Q310.37-33.25 310.37-26.75L310.37-26.75 310.37-23.5 307.01-23.5 307.01-26.95Q307.01-30.25 304.26-30.25L304.26-30.25Q302.62-30.25 301.24-28.35 299.87-26.45 299.87-22.85L299.87-22.85ZM315.61-5.75L315.61-32.5 326.61-32.5 326.61-29.5 319.11-29.5 319.11-5.55Q319.11-4.15 319.84-3.2 320.56-2.25 321.89-2.25 323.21-2.25 323.91-3.18 324.61-4.1 324.61-5.55L324.61-5.55 324.61-11.5 328.11-11.5 328.11-5.75Q328.11-2.6 326.44-0.93 324.76 0.75 321.91 0.75 319.06 0.75 317.34-0.93 315.61-2.6 315.61-5.75L315.61-5.75ZM338.61-25.25L338.61 0 335.11 0 335.11-32.5 336.61-32.5 337.86-29.25Q340.26-33.25 344.51-33.25L344.51-33.25Q351.86-33.25 351.86-26.25L351.86-26.25 351.86 0 348.36 0 348.36-26.25Q348.36-28.15 347.54-29.2 346.71-30.25 344.51-30.25 342.31-30.25 340.46-28.55 338.61-26.85 338.61-25.25L338.61-25.25ZM373.61-6.25L373.61-6.25 373.61-9 377.11-9 377.11-6.25Q377.11-2.9 375.06-1.07 373.01 0.75 368.91 0.75 364.81 0.75 362.71-1.07 360.61-2.9 360.61-6.25L360.61-6.25 360.61-26.25Q360.61-29.6 362.66-31.43 364.71-33.25 368.81-33.25 372.91-33.25 375.01-31.43 377.11-29.6 377.11-26.25L377.11-26.25 377.11-15.25 364.11-15.25 364.11-6.25Q364.11-2.25 368.86-2.25 373.61-2.25 373.61-6.25ZM364.11-26.25L364.11-26.25 364.11-18.25 373.61-18.25 373.61-26.25Q373.61-30.25 368.86-30.25 364.11-30.25 364.11-26.25ZM389.86-22.85L389.86 0 386.36 0 386.36-32.5 387.86-32.5 389.31-28.8Q390.91-33.25 394.41-33.25L394.41-33.25Q400.36-33.25 400.36-26.75L400.36-26.75 400.36-23.5 397-23.5 397-26.95Q397-30.25 394.25-30.25L394.25-30.25Q392.61-30.25 391.23-28.35 389.86-26.45 389.86-22.85L389.86-22.85Z"
                                                                  opacity="1" transform="matrix(1,0,0,1,0,0)"
                                                                  class="color undefined-text-1"
                                                                  data-fill-palette-color="secondary"
                                                                  id="text-1"></path>
                                                        </svg>
                                                    </g>
                                                </svg>
                                            </g>
                                        </svg>
                                    </g>
                                </svg>
                            </g>
                            <g transform="matrix(1,0,0,1,134.16165608264674,0)">
                                <svg viewBox="0 0 127.19668783470651 127.19668783470651" height="127.19668783470651"
                                     width="127.19668783470651">
                                    <g>
                                        <svg></svg>
                                    </g>
                                    <g id="icon-0">
                                        <svg viewBox="0 0 127.19668783470651 127.19668783470651"
                                             height="127.19668783470651" width="127.19668783470651">
                                            <g>
                                                <path d="M0 63.598c0-35.124 28.474-63.598 63.598-63.598 35.124 0 63.598 28.474 63.599 63.598 0 35.124-28.474 63.598-63.599 63.599-35.124 0-63.598-28.474-63.598-63.599zM63.598 124.691c33.741 0 61.093-27.352 61.093-61.093 0-33.741-27.352-61.093-61.093-61.093-33.741 0-61.093 27.352-61.093 61.093 0 33.741 27.352 61.093 61.093 61.093z"
                                                      data-fill-palette-color="tertiary" class="color"
                                                      stroke="transparent"></path>
                                            </g>
                                            <g transform="matrix(1,0,0,1,25.16714756642108,39.338291350641)">
                                                <svg viewBox="0 0 76.86239270186435 48.5201051334245"
                                                     height="48.5201051334245" width="76.86239270186435">
                                                    <g>
                                                        <svg xmlns:dc="http://purl.org/dc/elements/1.1/"
                                                             xmlns:cc="http://creativecommons.org/ns#"
                                                             xmlns:rdf="http://www.w3.org/1999/02/22-rdf-syntax-ns#"
                                                             xmlns:svg="http://www.w3.org/2000/svg"
                                                             xmlns="http://www.w3.org/2000/svg"
                                                             xmlns:sodipodi="http://sodipodi.sourceforge.net/DTD/sodipodi-0.dtd"
                                                             xmlns:inkscape="http://www.inkscape.org/namespaces/inkscape"
                                                             viewBox="0.9792448282241821 10.570008277893066 78.39999389648438 49.49073028564453"
                                                             version="1.1" x="0" y="0" height="48.5201051334245"
                                                             width="76.86239270186435" class="icon-s-0"
                                                             data-fill-palette-color="accent" id="s-0">
                                                            <path d="M39.007 11.226c1.184-0.947 2.877-0.724 4.129-0.234 0.863 0.389 1.842 1.011 2.468 1.79 0.423 0.491 0.169 1.167 0.067 1.725-0.211 0.829-0.544 1.348-0.53 2.774-0.713 0.134-0.856 0.267-1.093 1.097-0.118 0.643-0.496 1.378-1.003 1.496-0.416-0.031-0.469-0.191-0.875-0.258-0.507 0.558 0.237 1.184 0.541 1.64 0.863 0.947 0.778 2.3 1.134 3.468 0.105 0.235-0.455 0.411 2.3 3.569 0.761 1.404 2.03 2.385 3.146 3.467 1.269 1.184 2.081 2.74 3.265 4.009 0.524 0.575 0.913 1.472 1.793 1.54 0.93-0.017 1.251 0.886 2.181 0.987 1.932-0.331 4.163-2.679 5.718-4.81 0.702-4.627 7.341-11.185 10.943-6.71 3.049 4.861-4.81 9.066-9.319 8.851-2.496 0.902-3.258 1.539-6.101 4.501-0.795 0.085 0.171 0.927-2.035 1.849-0.423-0.085-0.913-0.169-1.066-0.626-0.237-0.626-0.964-0.643-1.421-1.032-1.658-2.047-4.026-3.315-6.089-4.905-1.201-0.744-1.641-2.182-2.571-3.18-0.491-0.541-0.913-1.133-1.32-1.742-2.341-3.554-2.079-1.441-2.586-2.389-0.841-1.501-3.674-0.156-4.488 0.306-1.167 0.338-2.669 1.085-3.717 1.846-1.133 0.457-1.59 1.641-2.098 2.656-0.186 0.389 0.321 0.592 0.559 0.795 2.148 1.184 4.026 2.825 6.224 3.924 0.609 0.355 1.421 0.575 1.709 1.285 0.744 1.607 0.541 3.468 1.201 5.109 0.44 1.032 0.863 2.081 0.998 3.197 0.118 1.015 0.795 1.827 0.896 2.841 0.288 2.267 1.675 4.415 3.789 5.362 1.438 0.744 3.028 1.099 4.618 1.32 1.15 0.169 1.15 2.047 0.067 2.317-1.81 0.541-3.687 0.998-5.598 0.896-1.861-0.085-3.857 0.474-5.599-0.372-0.271-1.336 0.457-2.605 0.507-3.924-0.609-3.603-3.789-6.106-4.448-9.709-0.254-1.133 0.017-2.334-0.288-3.451-1.472-0.846-3.214-0.998-4.871-1.251-0.863-0.118-1.641-0.592-2.521-0.66-0.541 0.541-0.524 1.387-0.676 2.097-0.169 1.404-0.863 2.639-1.286 3.975-0.304 1.083-1.167 1.945-1.252 3.096-0.101 0.558-0.051 1.269-0.608 1.607-0.88 0.575-1.945 0.761-2.978 0.693-1.556-0.101-3.011 0.66-4.567 0.626-2.52 0.051-5.108 0.085-7.459 1.1-0.71 0.355-1.235 1.032-2.047 1.167-1.607 0.338-3.011 1.218-4.414 2.029-0.457 0.321-1.114 0.058-1.261-0.353-0.576-1.619 1.565-2.928 2.969-4.214 0.575-0.507 1.066-1.099 1.505-1.725 0.744-1.066 1.742-1.911 2.673-2.825 0.66 0.507 1.15 1.184 1.776 1.726 0.44 0.406 1.083 0.254 1.573 0.033 1.793-0.778 3.535-1.708 5.464-2.148 0.913-0.237 1.861 0.017 2.791-0.084 0.829-1.353 0.406-3.028 0.304-4.517-0.271-0.101-0.541-0.203-0.812-0.287 0.118-1.319 0.254-2.639 0.592-3.924 0.355-1.269-0.812-2.25-0.93-3.468-0.22-1.472 0.338-2.892 0.862-4.229 0.626-1.353 1.37-2.706 2.453-3.772 1.438-1.861 3.062-3.586 4.753-5.226 1.116-0.71 2.013-1.776 3.332-2.115 1.421-0.457 2.791-1.066 4.229-1.488 1.049-0.254 1.827-1.083 2.571-1.827 0.389-0.93-0.135-2.013 0.389-2.926 0.457-0.812 0.77-1.67 1.438-2.385z"
                                                                  class="color" stroke="none"
                                                                  data-fill-palette-color="accent"></path>
                                                            <path d="M77.234 24.453c0.677-0.254 1.573-0.068 1.946 0.592 0.457 0.71 0.085 1.759-0.66 2.098-0.677 0.254-1.59 0.237-2.064-0.389-0.609-0.778-0.068-1.962 0.778-2.301z"
                                                                  class="color" stroke="none"
                                                                  data-fill-palette-color="accent"></path>
                                                        </svg>
                                                    </g>
                                                </svg>
                                            </g>
                                        </svg>
                                    </g>
                                </svg>
                            </g>
                            <g></g>
                        </svg>
                    </g>
                    <defs></defs>
                </svg>
                <rect width="395.52" height="191.82650004936156" fill="none" stroke="none" visibility="hidden"></rect>
            </g>
        </svg>
    </g>
</svg>