<svg viewBox="-454.37 0 1982.787 522.313" xmlns="http://www.w3.org/2000/svg">
    <rect width="1841.782" height="566.92" fill="#2979ff" style="" x="-372.732" y="-41.574"/>
    <g transform="matrix(0.75, 0, 0, 0.75, -210.863831, 49.20051)">
        <svg viewBox="0 0 396 106" data-background-color="#2979ff" preserveAspectRatio="xMidYMid meet" height="535"
             width="2000" xmlns="http://www.w3.org/2000/svg">
            <g id="tight-bounds" transform="matrix(1,0,0,1,0.24000045725546215,0.046090829630315966)">
                <svg viewBox="0 0 395.52 105.90781834073938" height="105.90781834073938" width="395.52">
                    <g>
                        <svg viewBox="0 0 516.7674491322957 138.37407242898072" height="105.90781834073938"
                             width="395.52">
                            <g>
                                <rect width="5.7597971759658115" height="138.37407242898072" x="100.40964887788535"
                                      y="0" fill="#ffffff" opacity="1" stroke-width="0" stroke="transparent"
                                      fill-opacity="1" class="rect-o-0" rx="1%"
                                      id="o-0"/>
                            </g>
                            <g transform="matrix(1,0,0,1,121.2474491322957,0.3442141105198431)">
                                <svg viewBox="0 0 395.52 137.68564420794104" height="137.68564420794104" width="395.52">
                                    <g>
                                        <svg viewBox="0 0 395.52 137.68564420794104" height="137.68564420794104"
                                             width="395.52" id="textblock">
                                            <g>
                                                <svg viewBox="0 0 395.52 137.68564420794104" height="137.68564420794104"
                                                     width="395.52">
                                                    <g transform="matrix(1,0,0,1,0,0)">
                                                        <svg width="395.52"
                                                             viewBox="-0.7300018668174744 -37.30000305175781 238.5700225830078 80.05001068115234"
                                                             height="137.68564420794104" data-palette-color="#ffffff">
                                                            <g class="undefined-text-0"
                                                               id="text-0">
                                                                <path xmlns="http://www.w3.org/2000/svg"
                                                                      d="M22.9-34.91v0c-0.067 0.127-0.09 0.257-0.07 0.39 0.013 0.127 0.02 0.273 0.02 0.44v0c-0.067 0.387-0.067 0.58 0 0.58 0.067 0 0.1 0.033 0.1 0.1v0l-0.34 0.49c0 0.193-0.04 0.373-0.12 0.54-0.087 0.16-0.113 0.353-0.08 0.58v0c-0.093 0.167-0.183 0.33-0.27 0.49-0.08 0.167-0.2 0.33-0.36 0.49v0h-0.64c-0.353 0-0.733 0.023-1.14 0.07-0.413 0.053-0.813 0.08-1.2 0.08v0c-0.067 0-0.15-0.01-0.25-0.03-0.093-0.013-0.19-0.02-0.29-0.02v0c-0.067 0-0.147 0.007-0.24 0.02-0.1 0.02-0.213 0.03-0.34 0.03v0c-0.493 0-0.973-0.027-1.44-0.08-0.473-0.047-0.97-0.07-1.49-0.07v0c-0.133 0-0.263 0-0.39 0-0.133 0-0.28 0.017-0.44 0.05v0c-0.033 0.553-0.06 1.113-0.08 1.68-0.013 0.573-0.02 1.153-0.02 1.74v0c0 0.16-0.017 0.33-0.05 0.51-0.033 0.18-0.05 0.35-0.05 0.51v0c-0.033 0.427-0.057 0.833-0.07 1.22-0.02 0.393-0.03 0.8-0.03 1.22v0c0 0.913 0.01 1.827 0.03 2.74 0.013 0.907 0.037 1.833 0.07 2.78v0c0.033 0.487 0.067 0.96 0.1 1.42 0.033 0.453 0.05 0.923 0.05 1.41v0c0 1.107-0.017 2.207-0.05 3.3-0.033 1.087-0.05 2.183-0.05 3.29v0c0 0.36-0.017 0.697-0.05 1.01-0.033 0.307-0.05 0.64-0.05 1v0c0 0.747 0.017 1.493 0.05 2.24 0.033 0.753 0.05 1.503 0.05 2.25v0c0 0.36-0.007 0.717-0.02 1.07-0.02 0.36-0.03 0.72-0.03 1.08v0c-0.16 0.26-0.273 0.487-0.34 0.68-0.067 0.193-0.263 0.29-0.59 0.29v0c-0.227-0.06-0.33-0.133-0.31-0.22 0.013-0.08-0.013-0.153-0.08-0.22v0c-0.293-0.027-0.513 0-0.66 0.08-0.147 0.08-0.317 0.153-0.51 0.22v0c-0.1-0.033-0.207-0.05-0.32-0.05-0.113 0-0.217 0-0.31 0v0c-0.067 0-0.133 0.023-0.2 0.07-0.067 0.047-0.213 0.07-0.44 0.07v0c-0.193 0.033-0.307 0.003-0.34-0.09-0.033-0.1-0.13-0.15-0.29-0.15v0c-0.167 0.1-0.357 0.173-0.57 0.22-0.207 0.047-0.41 0.07-0.61 0.07v0c-0.193-0.127-0.28-0.247-0.26-0.36 0.013-0.113-0.013-0.237-0.08-0.37v0c-0.033-0.067-0.09-0.157-0.17-0.27-0.08-0.113-0.153-0.203-0.22-0.27v0c0.067-0.453 0.117-0.86 0.15-1.22 0.033-0.353 0.05-0.743 0.05-1.17v0c0-0.847-0.033-1.677-0.1-2.49-0.067-0.813-0.1-1.643-0.1-2.49v0c0-0.26 0.033-0.537 0.1-0.83 0.067-0.293 0.1-0.603 0.1-0.93v0c-0.067-0.26-0.083-0.413-0.05-0.46 0.033-0.047 0.05-0.103 0.05-0.17v0c0-0.193-0.01-0.39-0.03-0.59-0.013-0.193-0.02-0.387-0.02-0.58v0c0-0.393 0.007-0.787 0.02-1.18 0.02-0.387 0.03-0.777 0.03-1.17v0c0-0.16-0.01-0.33-0.03-0.51-0.013-0.18-0.02-0.35-0.02-0.51v0c-0.033-0.293-0.043-0.603-0.03-0.93 0.02-0.327 0.03-0.653 0.03-0.98v0c0-1.56-0.023-3.107-0.07-4.64-0.053-1.527-0.08-3.07-0.08-4.63v0c0-0.753 0.04-1.52 0.12-2.3 0.087-0.78 0.13-1.56 0.13-2.34v0c0-0.1-0.033-0.23-0.1-0.39-0.067-0.167-0.133-0.283-0.2-0.35v0c-0.16 0-0.313-0.007-0.46-0.02-0.147-0.013-0.3-0.02-0.46-0.02v0c-0.36 0-0.703 0.047-1.03 0.14v0c-0.62 0.033-1.213 0.073-1.78 0.12-0.573 0.053-1.153 0.097-1.74 0.13v0c-0.387-0.033-0.62-0.043-0.7-0.03-0.087 0.02-0.177 0.03-0.27 0.03v0c-0.26 0-0.457-0.067-0.59-0.2v0-0.63c-0.193-0.393-0.273-0.607-0.24-0.64 0.033-0.033 0.05-0.08 0.05-0.14v0c0-0.1-0.09-0.207-0.27-0.32-0.18-0.113-0.27-0.3-0.27-0.56v0c-0.033-0.26-0.1-0.457-0.2-0.59-0.093-0.133-0.14-0.263-0.14-0.39v0c0-0.227 0.047-0.487 0.14-0.78v0c0.293-0.167 0.58-0.28 0.86-0.34 0.273-0.067 0.59-0.15 0.95-0.25v0c0.193-0.067 0.373-0.13 0.54-0.19 0.16-0.067 0.337-0.117 0.53-0.15v0c0.233-0.033 0.463-0.05 0.69-0.05 0.227 0 0.453-0.017 0.68-0.05v0c0.487-0.093 1-0.173 1.54-0.24 0.54-0.067 1.053-0.1 1.54-0.1v0c0.453 0 0.91 0.057 1.37 0.17 0.453 0.113 0.86 0.17 1.22 0.17v0c0.52 0 1.017 0.033 1.49 0.1 0.467 0.067 0.96 0.1 1.48 0.1v0c0.067 0 0.173 0.023 0.32 0.07 0.147 0.047 0.317 0.07 0.51 0.07v0h4.74c0.26 0.067 0.447 0.083 0.56 0.05 0.113-0.033 0.22-0.05 0.32-0.05v0c0.26 0 0.503 0.017 0.73 0.05 0.227 0.033 0.47 0.05 0.73 0.05v0c0.233 0 0.413-0.017 0.54-0.05v0c0.26 0.033 0.503 0.107 0.73 0.22 0.233 0.113 0.497 0.17 0.79 0.17v0c0.127 0.1 0.223 0.223 0.29 0.37 0.067 0.147 0.18 0.253 0.34 0.32zM42.33-6.84v0c0.26 0.427 0.457 0.833 0.59 1.22 0.133 0.393 0.2 0.67 0.2 0.83v0c0 0.233-0.043 0.423-0.13 0.57-0.08 0.147-0.183 0.3-0.31 0.46v0c-1.307 0.553-2.603 1.067-3.89 1.54-1.28 0.473-2.59 0.937-3.93 1.39v0c-0.32 0.1-0.637 0.207-0.95 0.32-0.307 0.113-0.64 0.203-1 0.27v0c-0.067 0.06-0.18 0.123-0.34 0.19-0.167 0.067-0.353 0.133-0.56 0.2-0.213 0.06-0.417 0.117-0.61 0.17-0.2 0.047-0.33 0.07-0.39 0.07v0c-0.067-0.16-0.133-0.257-0.2-0.29-0.067-0.033-0.13-0.067-0.19-0.1v0c-0.167 0-0.273 0.057-0.32 0.17-0.053 0.113-0.16 0.203-0.32 0.27v0c-0.16 0-0.307 0.007-0.44 0.02-0.127 0.02-0.24-0.003-0.34-0.07v0c-0.26 0.067-0.497 0.18-0.71 0.34-0.213 0.167-0.45 0.28-0.71 0.34v0c-0.487-0.127-0.787-0.183-0.9-0.17-0.113 0.02-0.237 0.047-0.37 0.08v0c-0.227-0.2-0.33-0.477-0.31-0.83 0.013-0.36-0.077-0.653-0.27-0.88v0c0-0.427-0.033-0.663-0.1-0.71-0.067-0.047-0.1-0.103-0.1-0.17v0c0-0.227 0.017-0.44 0.05-0.64 0.033-0.193 0.017-0.403-0.05-0.63v0c0.133-0.553 0.183-1.09 0.15-1.61-0.033-0.52-0.017-1.04 0.05-1.56v0c0-0.167 0.007-0.323 0.02-0.47 0.02-0.147 0.03-0.3 0.03-0.46v0c0-0.487 0.03-0.79 0.09-0.91 0.067-0.113 0.1-0.25 0.1-0.41v0c0-0.227-0.007-0.447-0.02-0.66-0.02-0.213-0.03-0.45-0.03-0.71v0c0-0.453 0.01-0.9 0.03-1.34 0.013-0.44 0.02-0.903 0.02-1.39v0c0-1.24-0.08-2.477-0.24-3.71-0.167-1.24-0.25-2.477-0.25-3.71v0c0-1.5-0.08-2.983-0.24-4.45-0.16-1.46-0.24-2.94-0.24-4.44v0c0-0.26 0-0.627 0-1.1 0-0.473 0-0.96 0-1.46 0-0.507 0.007-0.987 0.02-1.44 0.013-0.46 0.037-0.787 0.07-0.98v0c0-0.033 0.1-0.083 0.3-0.15 0.193-0.067 0.323-0.1 0.39-0.1v0c0.16 0 0.29 0.043 0.39 0.13 0.093 0.08 0.207 0.153 0.34 0.22v0c0.587-0.067 0.937-0.123 1.05-0.17 0.113-0.053 0.203-0.08 0.27-0.08v0c0.193 0 0.347 0.05 0.46 0.15 0.113 0.1 0.203 0.15 0.27 0.15v0c0.553-0.133 0.853-0.15 0.9-0.05 0.053 0.093 0.16 0.14 0.32 0.14v0c0.427-0.127 0.687-0.173 0.78-0.14 0.1 0.033 0.197 0.05 0.29 0.05v0c0.167 0 0.347-0.06 0.54-0.18 0.193-0.113 0.373-0.2 0.54-0.26v0c0.553-0.167 1.01-0.33 1.37-0.49v0c0.487-0.293 0.85-0.49 1.09-0.59 0.247-0.1 0.5-0.213 0.76-0.34v0c0.553-0.227 1.083-0.463 1.59-0.71 0.507-0.24 1.037-0.493 1.59-0.76v0c0.093 0 0.197-0.007 0.31-0.02 0.113-0.013 0.203-0.053 0.27-0.12v0c0.1 0.033 0.207 0.05 0.32 0.05 0.113 0 0.22 0 0.32 0v0c0.32 0.127 0.53 0.207 0.63 0.24v0c0.133 0.193 0.257 0.38 0.37 0.56 0.113 0.18 0.25 0.353 0.41 0.52v0c0.167 0.287 0.297 0.43 0.39 0.43v0c0 0.1-0.047 0.207-0.14 0.32-0.1 0.113-0.15 0.22-0.15 0.32v0c0.26 0.453 0.47 0.877 0.63 1.27 0.167 0.393 0.25 0.67 0.25 0.83v0c0 0.227-0.033 0.413-0.1 0.56-0.067 0.147-0.147 0.3-0.24 0.46v0c-1.24 0.587-2.487 1.167-3.74 1.74-1.253 0.567-2.53 1.127-3.83 1.68v0c-0.327 0.133-0.637 0.273-0.93 0.42-0.293 0.147-0.62 0.253-0.98 0.32v0c-0.06 0.06-0.207 0.117-0.44 0.17-0.227 0.047-0.403 0.07-0.53 0.07v0c0.067 0.553 0.107 1.097 0.12 1.63 0.013 0.54 0.037 1.087 0.07 1.64v0c0.033 0.453 0.09 0.933 0.17 1.44 0.087 0.507 0.16 1.003 0.22 1.49v0c1.073-0.453 2.14-0.91 3.2-1.37 1.06-0.453 2.127-0.907 3.2-1.36v0c0.193 0.027 0.397 0.057 0.61 0.09 0.213 0.033 0.417 0.083 0.61 0.15v0c0.067 0.067 0.133 0.147 0.2 0.24 0.06 0.1 0.14 0.183 0.24 0.25v0c-0.033 0.16 0.073 0.403 0.32 0.73 0.24 0.327 0.36 0.57 0.36 0.73v0c0 0.26 0.033 0.417 0.1 0.47 0.067 0.047 0.133 0.183 0.2 0.41v0c0.033 0.327 0.033 0.507 0 0.54v0c0.16 0.16 0.29 0.323 0.39 0.49 0.093 0.16 0.14 0.353 0.14 0.58v0c-0.453 0.553-0.907 0.92-1.36 1.1-0.46 0.18-0.917 0.367-1.37 0.56v0c-0.16 0.067-0.33 0.157-0.51 0.27-0.18 0.113-0.353 0.203-0.52 0.27v0c-0.26 0.1-0.51 0.19-0.75 0.27-0.247 0.08-0.5 0.187-0.76 0.32v0c-0.42 0.227-0.85 0.477-1.29 0.75-0.44 0.28-0.89 0.47-1.35 0.57v0c-0.353 0.093-0.587 0.197-0.7 0.31-0.12 0.113-0.31 0.27-0.57 0.47v0 1.31 2.45c0 0.32 0 0.653 0 1 0 0.34-0.013 0.69-0.04 1.05v0c-0.067 0.327-0.1 0.603-0.1 0.83v0 0.78c0.16-0.067 0.323-0.123 0.49-0.17 0.16-0.053 0.32-0.11 0.48-0.17v0c0.133-0.033 0.257-0.05 0.37-0.05 0.113 0 0.237-0.033 0.37-0.1v0c0.16-0.033 0.29-0.067 0.39-0.1 0.093-0.033 0.207-0.08 0.34-0.14v0c0.487-0.26 0.86-0.433 1.12-0.52 0.26-0.08 0.52-0.17 0.78-0.27v0c0.553-0.193 1.09-0.397 1.61-0.61 0.527-0.207 1.05-0.41 1.57-0.61v0c0.327 0.067 0.553 0.02 0.68-0.14v0c0.167 0.033 0.307 0.063 0.42 0.09 0.113 0.033 0.25 0.05 0.41 0.05v0c0.393 0.36 0.637 0.637 0.73 0.83 0.1 0.2 0.23 0.38 0.39 0.54v0c0.167 0.293 0.283 0.44 0.35 0.44v0c0 0.067-0.05 0.173-0.15 0.32-0.1 0.147-0.167 0.267-0.2 0.36zM68.65-36.67v0c0.36 0 0.62 0.05 0.78 0.15v0c0.167 0.32 0.273 0.603 0.32 0.85 0.047 0.247 0.07 0.533 0.07 0.86v0c0.033 0.487 0.043 0.837 0.03 1.05-0.02 0.207-0.043 0.423-0.07 0.65v0c-0.033 0.527-0.05 1.023-0.05 1.49 0 0.473 0 0.97 0 1.49v0c0 1.14 0.017 2.297 0.05 3.47 0.027 1.173 0.04 2.33 0.04 3.47v0c0 0.453-0.007 0.9-0.02 1.34-0.013 0.44-0.02 0.887-0.02 1.34v0c0 0.1 0.007 0.207 0.02 0.32 0.013 0.113 0.02 0.22 0.02 0.32v0c0 0.293-0.007 0.577-0.02 0.85-0.013 0.28-0.02 0.55-0.02 0.81v0c0 0.127 0 0.24 0 0.34 0 0.1 0.013 0.23 0.04 0.39v0c-0.06 0.26-0.09 0.44-0.09 0.54v0c0 0.52 0.017 1.047 0.05 1.58 0.027 0.54 0.04 1.07 0.04 1.59v0c0 0.487 0.01 0.96 0.03 1.42 0.013 0.453 0.02 0.923 0.02 1.41v0c0 0.26-0.007 0.537-0.02 0.83-0.02 0.293-0.03 0.587-0.03 0.88v0c0 0.687 0.017 1.38 0.05 2.08 0.033 0.7 0.067 1.39 0.1 2.07v0c0 0.46 0 0.907 0 1.34 0 0.44 0.033 0.89 0.1 1.35v0c0 0.52-0.023 0.9-0.07 1.14-0.053 0.247-0.113 0.483-0.18 0.71v0c-0.26 0.067-0.43 0.093-0.51 0.08-0.08-0.02-0.17-0.03-0.27-0.03v0c-0.453 0.133-0.747 0.257-0.88 0.37-0.127 0.113-0.273 0.233-0.44 0.36v0c-0.127 0-0.28 0.01-0.46 0.03-0.18 0.013-0.317 0.07-0.41 0.17v0c-0.167-0.067-0.297-0.083-0.39-0.05-0.1 0.033-0.2 0.05-0.3 0.05v0c-0.453 0.033-0.763 0.09-0.93 0.17-0.16 0.08-0.387 0.12-0.68 0.12v0c-0.26-0.42-0.457-0.753-0.59-1-0.127-0.24-0.337-0.347-0.63-0.32v0c-0.42-0.647-0.72-1.33-0.9-2.05-0.18-0.713-0.483-1.363-0.91-1.95v0c-0.033-0.26-0.08-0.423-0.14-0.49-0.067-0.067-0.133-0.197-0.2-0.39v0c-0.127-0.26-0.24-0.537-0.34-0.83-0.1-0.293-0.23-0.57-0.39-0.83v0c-0.26-0.553-0.52-1.097-0.78-1.63-0.26-0.54-0.503-1.103-0.73-1.69v0c-0.1-0.26-0.183-0.527-0.25-0.8-0.067-0.28-0.147-0.55-0.24-0.81v0c-0.067-0.133-0.14-0.263-0.22-0.39-0.08-0.133-0.153-0.247-0.22-0.34v0c-0.2-0.36-0.387-0.72-0.56-1.08-0.18-0.353-0.383-0.71-0.61-1.07v0c-0.067-0.167-0.157-0.323-0.27-0.47-0.113-0.147-0.237-0.3-0.37-0.46v0c-0.1-0.227-0.19-0.453-0.27-0.68-0.08-0.227-0.17-0.457-0.27-0.69v0c-0.06-0.193-0.157-0.397-0.29-0.61-0.127-0.207-0.223-0.41-0.29-0.61v0c-0.067-0.16-0.117-0.323-0.15-0.49-0.033-0.16-0.13-0.303-0.29-0.43v0c-0.227 0.387-0.34 0.647-0.34 0.78v0c-0.033 0.387-0.06 0.703-0.08 0.95-0.013 0.24-0.02 0.46-0.02 0.66v0c0 0.227 0.023 0.447 0.07 0.66 0.053 0.207 0.08 0.41 0.08 0.61v0c0.06 0.78 0.107 1.57 0.14 2.37 0.033 0.793 0.05 1.58 0.05 2.36v0c-0.033 0.62-0.04 1.093-0.02 1.42 0.013 0.327 0.037 0.653 0.07 0.98v0c0.033 0.32 0.04 0.653 0.02 1-0.013 0.34-0.003 0.673 0.03 1v0c0 0.747 0.007 1.47 0.02 2.17 0.02 0.7 0.03 1.423 0.03 2.17v0 1.18c0 0.353-0.05 0.677-0.15 0.97v0c-0.487 0-0.803-0.017-0.95-0.05-0.147-0.033-0.3-0.08-0.46-0.14v0c-0.2 0.033-0.357 0.107-0.47 0.22-0.113 0.113-0.25 0.217-0.41 0.31v0c-0.36-0.027-0.557-0.017-0.59 0.03-0.033 0.047-0.1 0.103-0.2 0.17v0c-0.093 0.033-0.18 0.033-0.26 0-0.087-0.033-0.177-0.05-0.27-0.05v0c-0.26-0.067-0.473-0.1-0.64-0.1v0c-0.193 0.067-0.38 0.133-0.56 0.2-0.18 0.067-0.367 0.113-0.56 0.14v0c-0.193-0.353-0.307-0.773-0.34-1.26-0.033-0.493-0.163-0.917-0.39-1.27v0c0.067-0.133 0.107-0.217 0.12-0.25 0.013-0.033 0.02-0.13 0.02-0.29v0c0-0.747-0.013-1.497-0.04-2.25-0.033-0.747-0.05-1.493-0.05-2.24v0c0-0.62-0.043-1.223-0.13-1.81-0.08-0.587-0.12-1.19-0.12-1.81v0c0-0.193 0.017-0.387 0.05-0.58 0.033-0.2 0.05-0.413 0.05-0.64v0c0-0.093-0.007-0.19-0.02-0.29-0.02-0.1-0.03-0.18-0.03-0.24v0c-0.067-0.587-0.107-1.19-0.12-1.81-0.02-0.62-0.03-1.24-0.03-1.86v0c-0.027-0.353-0.05-0.727-0.07-1.12-0.013-0.393-0.02-0.8-0.02-1.22v0c0-0.16 0.017-0.34 0.05-0.54 0.027-0.193 0.04-0.387 0.04-0.58v0-2.05c-0.06-0.393-0.083-0.657-0.07-0.79 0.02-0.127 0.03-0.257 0.03-0.39v0c0-0.293-0.027-0.577-0.08-0.85-0.047-0.28-0.07-0.58-0.07-0.9v0c0-0.233 0.023-0.453 0.07-0.66 0.053-0.213 0.08-0.433 0.08-0.66v0c0-0.487-0.027-0.96-0.08-1.42-0.047-0.453-0.07-0.923-0.07-1.41v0-4.15c0-0.233-0.017-0.463-0.05-0.69-0.033-0.227-0.05-0.47-0.05-0.73v0c0.193-0.453 0.373-0.69 0.54-0.71 0.16-0.013 0.307-0.07 0.44-0.17v0c0.36 0.067 0.67 0.033 0.93-0.1v0c0.42 0.033 0.68-0.013 0.78-0.14v0c0.06 0.06 0.15 0.083 0.27 0.07 0.113-0.02 0.217-0.013 0.31 0.02v0c0.1-0.06 0.183-0.123 0.25-0.19 0.06-0.067 0.157-0.133 0.29-0.2v0c0.36-0.193 0.57-0.313 0.63-0.36 0.067-0.053 0.15-0.11 0.25-0.17v0c0.16 0 0.267 0.047 0.32 0.14 0.047 0.1 0.15 0.15 0.31 0.15v0c0.067 0.127 0.15 0.257 0.25 0.39 0.093 0.127 0.207 0.223 0.34 0.29v0c0.26 0.553 0.57 1.027 0.93 1.42v0c0.293 0.847 0.627 1.66 1 2.44 0.373 0.78 0.77 1.56 1.19 2.34v0c0 0.1 0.017 0.223 0.05 0.37 0.033 0.147 0.067 0.253 0.1 0.32v0c0.167 0.353 0.403 0.817 0.71 1.39 0.307 0.567 0.573 1.03 0.8 1.39v0c0.067 0.133 0.15 0.247 0.25 0.34 0.1 0.1 0.18 0.213 0.24 0.34v0c0.1 0.167 0.183 0.347 0.25 0.54 0.067 0.193 0.147 0.373 0.24 0.54v0c0.167 0.387 0.353 0.77 0.56 1.15 0.213 0.373 0.433 0.753 0.66 1.14v0c0.067 0.2 0.14 0.397 0.22 0.59 0.08 0.193 0.17 0.39 0.27 0.59v0c0.26 0.58 0.497 1.027 0.71 1.34 0.213 0.307 0.367 0.64 0.46 1v0c0.227 0.26 0.407 0.543 0.54 0.85 0.127 0.313 0.323 0.567 0.59 0.76v0c0.027-0.16 0.057-0.64 0.09-1.44 0.033-0.8 0.05-1.67 0.05-2.61 0-0.947 0-1.843 0-2.69 0-0.847 0-1.417 0-1.71v0c0-0.88-0.017-1.75-0.05-2.61-0.033-0.86-0.05-1.713-0.05-2.56v0c0-0.687 0.01-1.38 0.03-2.08 0.013-0.7 0.037-1.39 0.07-2.07v0c0.033-0.36 0.043-0.693 0.03-1-0.02-0.313-0.013-0.633 0.02-0.96v0c0.033-0.16 0.1-0.32 0.2-0.48 0.093-0.167 0.173-0.33 0.24-0.49v0c0.42-0.067 0.747 0.013 0.98 0.24v0c0.193-0.1 0.427-0.15 0.7-0.15 0.28 0 0.517-0.013 0.71-0.04v0c0.26-0.033 0.407-0.06 0.44-0.08 0.033-0.013 0.083-0.02 0.15-0.02v0c0.127 0.067 0.247 0.113 0.36 0.14 0.12 0.033 0.26 0.083 0.42 0.15v0c0.293-0.1 0.537-0.083 0.73 0.05zM97.02-36.67v0c0.36 0 0.62 0.05 0.78 0.15v0c0.167 0.32 0.273 0.603 0.32 0.85 0.047 0.247 0.07 0.533 0.07 0.86v0c0.033 0.487 0.043 0.837 0.03 1.05-0.02 0.207-0.047 0.423-0.08 0.65v0c-0.027 0.527-0.04 1.023-0.04 1.49 0 0.473 0 0.97 0 1.49v0c0 1.14 0.013 2.297 0.04 3.47 0.033 1.173 0.05 2.33 0.05 3.47v0c0 0.453-0.007 0.9-0.02 1.34-0.02 0.44-0.03 0.887-0.03 1.34v0c0 0.1 0.01 0.207 0.03 0.32 0.013 0.113 0.02 0.22 0.02 0.32v0c0 0.293-0.007 0.577-0.02 0.85-0.02 0.28-0.03 0.55-0.03 0.81v0c0 0.127 0 0.24 0 0.34 0 0.1 0.017 0.23 0.05 0.39v0c-0.06 0.26-0.09 0.44-0.09 0.54v0c0 0.52 0.013 1.047 0.04 1.58 0.033 0.54 0.05 1.07 0.05 1.59v0c0 0.487 0.01 0.96 0.03 1.42 0.013 0.453 0.02 0.923 0.02 1.41v0c0 0.26-0.007 0.537-0.02 0.83-0.02 0.293-0.03 0.587-0.03 0.88v0c0 0.687 0.017 1.38 0.05 2.08 0.033 0.7 0.067 1.39 0.1 2.07v0c0 0.46 0 0.907 0 1.34 0 0.44 0.033 0.89 0.1 1.35v0c0 0.52-0.027 0.9-0.08 1.14-0.047 0.247-0.103 0.483-0.17 0.71v0c-0.26 0.067-0.43 0.093-0.51 0.08-0.08-0.02-0.17-0.03-0.27-0.03v0c-0.453 0.133-0.747 0.257-0.88 0.37-0.127 0.113-0.273 0.233-0.44 0.36v0c-0.127 0-0.28 0.01-0.46 0.03-0.18 0.013-0.32 0.07-0.42 0.17v0c-0.16-0.067-0.29-0.083-0.39-0.05-0.093 0.033-0.19 0.05-0.29 0.05v0c-0.453 0.033-0.763 0.09-0.93 0.17-0.16 0.08-0.387 0.12-0.68 0.12v0c-0.26-0.42-0.457-0.753-0.59-1-0.127-0.24-0.337-0.347-0.63-0.32v0c-0.427-0.647-0.727-1.33-0.9-2.05-0.18-0.713-0.483-1.363-0.91-1.95v0c-0.033-0.26-0.08-0.423-0.14-0.49-0.067-0.067-0.133-0.197-0.2-0.39v0c-0.127-0.26-0.24-0.537-0.34-0.83-0.1-0.293-0.23-0.57-0.39-0.83v0c-0.26-0.553-0.52-1.097-0.78-1.63-0.26-0.54-0.507-1.103-0.74-1.69v0c-0.093-0.26-0.173-0.527-0.24-0.8-0.067-0.28-0.147-0.55-0.24-0.81v0c-0.067-0.133-0.14-0.263-0.22-0.39-0.087-0.133-0.16-0.247-0.22-0.34v0c-0.2-0.36-0.387-0.72-0.56-1.08-0.18-0.353-0.383-0.71-0.61-1.07v0c-0.067-0.167-0.157-0.323-0.27-0.47-0.113-0.147-0.237-0.3-0.37-0.46v0c-0.1-0.227-0.19-0.453-0.27-0.68-0.08-0.227-0.17-0.457-0.27-0.69v0c-0.06-0.193-0.157-0.397-0.29-0.61-0.133-0.207-0.23-0.41-0.29-0.61v0c-0.067-0.16-0.117-0.323-0.15-0.49-0.033-0.16-0.13-0.303-0.29-0.43v0c-0.227 0.387-0.34 0.647-0.34 0.78v0c-0.033 0.387-0.06 0.703-0.08 0.95-0.013 0.24-0.02 0.46-0.02 0.66v0c0 0.227 0.023 0.447 0.07 0.66 0.047 0.207 0.07 0.41 0.07 0.61v0c0.067 0.78 0.117 1.57 0.15 2.37 0.033 0.793 0.05 1.58 0.05 2.36v0c-0.033 0.62-0.04 1.093-0.02 1.42 0.013 0.327 0.037 0.653 0.07 0.98v0c0.033 0.32 0.04 0.653 0.02 1-0.013 0.34-0.003 0.673 0.03 1v0c0 0.747 0.007 1.47 0.02 2.17 0.02 0.7 0.03 1.423 0.03 2.17v0 1.18c0 0.353-0.05 0.677-0.15 0.97v0c-0.487 0-0.803-0.017-0.95-0.05-0.147-0.033-0.303-0.08-0.47-0.14v0c-0.193 0.033-0.347 0.107-0.46 0.22-0.113 0.113-0.25 0.217-0.41 0.31v0c-0.36-0.027-0.557-0.017-0.59 0.03-0.033 0.047-0.1 0.103-0.2 0.17v0c-0.093 0.033-0.18 0.033-0.26 0-0.087-0.033-0.177-0.05-0.27-0.05v0c-0.26-0.067-0.473-0.1-0.64-0.1v0c-0.193 0.067-0.38 0.133-0.56 0.2-0.18 0.067-0.367 0.113-0.56 0.14v0c-0.193-0.353-0.307-0.773-0.34-1.26-0.033-0.493-0.163-0.917-0.39-1.27v0c0.06-0.133 0.1-0.217 0.12-0.25 0.013-0.033 0.02-0.13 0.02-0.29v0c0-0.747-0.017-1.497-0.05-2.25-0.027-0.747-0.04-1.493-0.04-2.24v0c0-0.62-0.043-1.223-0.13-1.81-0.08-0.587-0.12-1.19-0.12-1.81v0c0-0.193 0.017-0.387 0.05-0.58 0.033-0.2 0.05-0.413 0.05-0.64v0c0-0.093-0.01-0.19-0.03-0.29-0.013-0.1-0.02-0.18-0.02-0.24v0c-0.067-0.587-0.107-1.19-0.12-1.81-0.02-0.62-0.03-1.24-0.03-1.86v0c-0.033-0.353-0.057-0.727-0.07-1.12-0.013-0.393-0.02-0.8-0.02-1.22v0c0-0.16 0.013-0.34 0.04-0.54 0.033-0.193 0.05-0.387 0.05-0.58v0-2.05c-0.06-0.393-0.083-0.657-0.07-0.79 0.013-0.127 0.02-0.257 0.02-0.39v0c0-0.293-0.023-0.577-0.07-0.85-0.047-0.28-0.07-0.58-0.07-0.9v0c0-0.233 0.023-0.453 0.07-0.66 0.047-0.213 0.07-0.433 0.07-0.66v0c0-0.487-0.023-0.96-0.07-1.42-0.047-0.453-0.07-0.923-0.07-1.41v0-4.15c0-0.233-0.017-0.463-0.05-0.69-0.033-0.227-0.05-0.47-0.05-0.73v0c0.193-0.453 0.373-0.69 0.54-0.71 0.16-0.013 0.307-0.07 0.44-0.17v0c0.353 0.067 0.663 0.033 0.93-0.1v0c0.42 0.033 0.68-0.013 0.78-0.14v0c0.06 0.06 0.147 0.083 0.26 0.07 0.12-0.02 0.227-0.013 0.32 0.02v0c0.1-0.06 0.183-0.123 0.25-0.19 0.06-0.067 0.157-0.133 0.29-0.2v0c0.36-0.193 0.57-0.313 0.63-0.36 0.067-0.053 0.15-0.11 0.25-0.17v0c0.16 0 0.267 0.047 0.32 0.14 0.047 0.1 0.15 0.15 0.31 0.15v0c0.067 0.127 0.15 0.257 0.25 0.39 0.093 0.127 0.207 0.223 0.34 0.29v0c0.26 0.553 0.57 1.027 0.93 1.42v0c0.293 0.847 0.627 1.66 1 2.44 0.373 0.78 0.77 1.56 1.19 2.34v0c0 0.1 0.017 0.223 0.05 0.37 0.033 0.147 0.067 0.253 0.1 0.32v0c0.16 0.353 0.397 0.817 0.71 1.39 0.307 0.567 0.573 1.03 0.8 1.39v0c0.067 0.133 0.15 0.247 0.25 0.34 0.093 0.1 0.173 0.213 0.24 0.34v0c0.1 0.167 0.183 0.347 0.25 0.54 0.06 0.193 0.14 0.373 0.24 0.54v0c0.16 0.387 0.347 0.77 0.56 1.15 0.213 0.373 0.433 0.753 0.66 1.14v0c0.067 0.2 0.14 0.397 0.22 0.59 0.08 0.193 0.17 0.39 0.27 0.59v0c0.26 0.58 0.497 1.027 0.71 1.34 0.213 0.307 0.367 0.64 0.46 1v0c0.227 0.26 0.407 0.543 0.54 0.85 0.127 0.313 0.32 0.567 0.58 0.76v0c0.033-0.16 0.067-0.64 0.1-1.44 0.033-0.8 0.05-1.67 0.05-2.61 0-0.947 0-1.843 0-2.69 0-0.847 0-1.417 0-1.71v0c0-0.88-0.017-1.75-0.05-2.61-0.033-0.86-0.05-1.713-0.05-2.56v0c0-0.687 0.01-1.38 0.03-2.08 0.013-0.7 0.037-1.39 0.07-2.07v0c0.033-0.36 0.043-0.693 0.03-1-0.02-0.313-0.013-0.633 0.02-0.96v0c0.033-0.16 0.1-0.32 0.2-0.48 0.093-0.167 0.173-0.33 0.24-0.49v0c0.42-0.067 0.747 0.013 0.98 0.24v0c0.193-0.1 0.427-0.15 0.7-0.15 0.28 0 0.517-0.013 0.71-0.04v0c0.26-0.033 0.407-0.06 0.44-0.08 0.033-0.013 0.083-0.02 0.15-0.02v0c0.127 0.067 0.247 0.113 0.36 0.14 0.113 0.033 0.253 0.083 0.42 0.15v0c0.293-0.1 0.537-0.083 0.73 0.05zM119.48-5.62v0c-0.067 0.2-0.1 0.38-0.1 0.54v0c0 0.193 0.027 0.39 0.08 0.59 0.047 0.193 0.07 0.387 0.07 0.58v0c-0.067 0.587-0.117 0.947-0.15 1.08v0c-0.193 0.16-0.59 0.347-1.19 0.56-0.6 0.213-1.317 0.423-2.15 0.63-0.833 0.213-1.73 0.427-2.69 0.64-0.96 0.213-1.877 0.417-2.75 0.61-0.88 0.193-1.687 0.363-2.42 0.51-0.733 0.147-1.28 0.253-1.64 0.32v0c-0.16 0.033-0.313 0.073-0.46 0.12-0.147 0.047-0.3 0.103-0.46 0.17v0c-0.167 0.033-0.33 0.043-0.49 0.03-0.167-0.02-0.33 0.003-0.49 0.07v0c-0.1 0-0.19-0.05-0.27-0.15-0.08-0.093-0.153-0.173-0.22-0.24v0c0-0.193-0.033-0.34-0.1-0.44-0.06-0.1-0.133-0.18-0.22-0.24-0.08-0.067-0.153-0.14-0.22-0.22-0.06-0.087-0.09-0.227-0.09-0.42v0c-0.067-0.26-0.157-0.463-0.27-0.61-0.113-0.147-0.17-0.283-0.17-0.41v0c-0.133-0.427-0.2-0.803-0.2-1.13v0c0-0.16 0.017-0.29 0.05-0.39 0.033-0.093 0.083-0.19 0.15-0.29v0c0.193-0.067 0.34-0.15 0.44-0.25 0.093-0.093 0.223-0.173 0.39-0.24v0c0.193-0.1 0.47-0.19 0.83-0.27 0.353-0.08 0.743-0.17 1.17-0.27 0.42-0.093 0.827-0.19 1.22-0.29 0.387-0.1 0.713-0.197 0.98-0.29v0c0.093-0.033 0.19-0.05 0.29-0.05 0.093 0 0.173-0.033 0.24-0.1v0c-0.067-0.52-0.107-1.04-0.12-1.56-0.013-0.52-0.053-1.023-0.12-1.51v0c0-0.233-0.017-0.463-0.05-0.69-0.033-0.227-0.05-0.437-0.05-0.63v0l0.05-1.03c0-1.233-0.05-2.47-0.15-3.71-0.093-1.24-0.14-2.477-0.14-3.71v0-1.66c0-0.26-0.01-0.503-0.03-0.73-0.013-0.227-0.02-0.473-0.02-0.74v0c0-0.613 0.007-1.207 0.02-1.78 0.02-0.567 0.03-1.16 0.03-1.78v0-4.49c-0.72-0.167-1.39-0.16-2.01 0.02-0.613 0.18-1.247 0.303-1.9 0.37v0c-0.227-0.227-0.357-0.47-0.39-0.73v0c-0.26-0.36-0.44-0.59-0.54-0.69-0.093-0.093-0.207-0.37-0.34-0.83v0c-0.227-0.453-0.413-0.737-0.56-0.85-0.147-0.113-0.22-0.3-0.22-0.56v0c0-0.167 0.04-0.283 0.12-0.35 0.08-0.06 0.153-0.173 0.22-0.34v0c0.293-0.127 0.463-0.217 0.51-0.27 0.053-0.047 0.113-0.087 0.18-0.12v0c0.32-0.227 0.693-0.39 1.12-0.49 0.42-0.093 0.827-0.207 1.22-0.34v0c0.327-0.093 0.637-0.207 0.93-0.34 0.293-0.133 0.617-0.247 0.97-0.34v0c0.427-0.133 0.85-0.263 1.27-0.39 0.427-0.133 0.833-0.247 1.22-0.34v0c0.26-0.067 0.513-0.093 0.76-0.08 0.247 0.02 0.5-0.053 0.76-0.22v0c0.42 0.067 0.867 0.06 1.34-0.02 0.473-0.08 0.987-0.187 1.54-0.32 0.553-0.127 1.09-0.24 1.61-0.34 0.52-0.1 0.91-0.18 1.17-0.24v0c0.167 0.06 0.28 0.14 0.34 0.24 0.067 0.1 0.167 0.163 0.3 0.19v0c0.027 0.1 0.057 0.223 0.09 0.37 0.033 0.147 0.1 0.253 0.2 0.32v0c0 0.36 0.08 0.62 0.24 0.78v0c-0.033 0.327 0.023 0.693 0.17 1.1 0.147 0.407 0.22 0.79 0.22 1.15v0c-0.16 0.487-0.427 0.793-0.8 0.92-0.373 0.133-0.78 0.25-1.22 0.35-0.44 0.093-0.873 0.18-1.3 0.26-0.42 0.087-0.76 0.177-1.02 0.27v0c0 0.46 0.007 0.933 0.02 1.42 0.02 0.487 0.03 0.973 0.03 1.46v0c0 0.46-0.01 0.917-0.03 1.37-0.013 0.453-0.02 0.91-0.02 1.37v0c0 0.68-0.01 1.38-0.03 2.1-0.013 0.713-0.02 1.43-0.02 2.15v0c0 1.007 0.017 2.013 0.05 3.02 0.033 1.013 0.08 2.023 0.14 3.03v0c0.033 0.16 0.05 0.403 0.05 0.73v0c0 1.307 0.027 2.587 0.08 3.84 0.047 1.253 0.133 2.547 0.26 3.88v0c0.427 0.033 0.753-0.033 0.98-0.2v0c0.167 0 0.323-0.033 0.47-0.1 0.147-0.06 0.283-0.123 0.41-0.19v0c0.193-0.033 0.463-0.09 0.81-0.17 0.34-0.08 0.56-0.12 0.66-0.12v0c0.287 0.033 0.463 0.033 0.53 0v0c0.1 0.193 0.247 0.34 0.44 0.44v0c0.067 0.293 0.123 0.577 0.17 0.85 0.053 0.28 0.127 0.563 0.22 0.85zM134.62-36.33v0c0.227 0.427 0.34 0.917 0.34 1.47v0c0 0.487-0.097 1.007-0.29 1.56-0.193 0.553-0.503 0.977-0.93 1.27v0c-0.293 0.653-0.577 1.183-0.85 1.59-0.28 0.407-0.55 0.803-0.81 1.19v0c-0.1 0.227-0.197 0.447-0.29 0.66-0.1 0.213-0.23 0.433-0.39 0.66v0c-0.1 0.16-0.313 0.487-0.64 0.98-0.327 0.487-0.66 0.997-1 1.53-0.34 0.54-0.64 1.053-0.9 1.54-0.26 0.493-0.39 0.803-0.39 0.93v0c0 0.133 0.153 0.297 0.46 0.49 0.307 0.193 0.51 0.34 0.61 0.44v0c0.167 0.16 0.32 0.323 0.46 0.49 0.147 0.16 0.303 0.323 0.47 0.49v0c0.36 0.287 0.71 0.577 1.05 0.87 0.34 0.293 0.69 0.62 1.05 0.98v0c0.68 0.62 1.397 1.207 2.15 1.76 0.747 0.553 1.413 1.203 2 1.95v0c0.553 0.167 0.91 0.557 1.07 1.17 0.167 0.62 0.217 1.207 0.15 1.76v0c0.067 0.1 0.123 0.197 0.17 0.29 0.047 0.1 0.103 0.217 0.17 0.35v0c0 0.52-0.073 0.9-0.22 1.14-0.147 0.247-0.3 0.55-0.46 0.91v0c-0.167 0.32-0.273 0.643-0.32 0.97-0.047 0.327-0.153 0.62-0.32 0.88v0c-0.06 0.1-0.15 0.183-0.27 0.25-0.113 0.06-0.2 0.157-0.26 0.29v0c-0.133 0.227-0.24 0.493-0.32 0.8-0.08 0.313-0.187 0.6-0.32 0.86v0c-0.1 0.26-0.223 0.52-0.37 0.78-0.14 0.26-0.26 0.52-0.36 0.78v0c-0.067 0.167-0.123 0.363-0.17 0.59-0.053 0.227-0.21 0.39-0.47 0.49v0c-0.16 0.587-0.38 1.157-0.66 1.71-0.273 0.553-0.49 1.12-0.65 1.7v0c-0.293 0.1-0.66 0.29-1.1 0.57-0.44 0.273-0.79 0.41-1.05 0.41v0c-0.1 0-0.183-0.05-0.25-0.15-0.06-0.093-0.157-0.173-0.29-0.24v0c-0.067-0.033-0.157-0.033-0.27 0-0.113 0.033-0.203 0.05-0.27 0.05v0c-0.16 0-0.28-0.067-0.36-0.2-0.087-0.127-0.193-0.223-0.32-0.29v0c-0.1 0.033-0.197 0.067-0.29 0.1-0.1 0.033-0.2 0.05-0.3 0.05v0c-0.227 0-0.357-0.057-0.39-0.17-0.033-0.113-0.13-0.22-0.29-0.32v0c-0.393-0.193-0.62-0.373-0.68-0.54-0.067-0.16-0.167-0.273-0.3-0.34v0c0.227-0.847 0.537-1.653 0.93-2.42 0.393-0.76 0.767-1.533 1.12-2.32v0c0.1-0.26 0.223-0.503 0.37-0.73 0.147-0.227 0.287-0.47 0.42-0.73v0c0.093-0.227 0.237-0.52 0.43-0.88 0.2-0.36 0.38-0.733 0.54-1.12 0.167-0.393 0.313-0.76 0.44-1.1 0.133-0.34 0.2-0.627 0.2-0.86v0c0-0.453-0.13-0.793-0.39-1.02v0c-0.947-0.78-1.837-1.577-2.67-2.39-0.827-0.82-1.697-1.65-2.61-2.49v0c-0.587-0.527-1.22-1.067-1.9-1.62v0c-0.133-0.093-0.23-0.24-0.29-0.44-0.067-0.193-0.167-0.37-0.3-0.53v0c-0.067-0.133-0.163-0.233-0.29-0.3-0.133-0.06-0.23-0.157-0.29-0.29v0c-0.1-0.127-0.167-0.28-0.2-0.46-0.033-0.18-0.13-0.32-0.29-0.42v0c-0.167-0.16-0.363-0.257-0.59-0.29-0.227-0.033-0.42-0.13-0.58-0.29v0c0.093-0.1 0.133-0.207 0.12-0.32-0.02-0.113-0.03-0.22-0.03-0.32v0c0-0.227 0.1-0.39 0.3-0.49 0.193-0.093 0.29-0.27 0.29-0.53v0c0.133-0.26 0.23-0.423 0.29-0.49v0c0.36-0.88 0.767-1.727 1.22-2.54 0.46-0.813 0.933-1.627 1.42-2.44v0c0.16-0.26 0.313-0.513 0.46-0.76 0.147-0.247 0.303-0.5 0.47-0.76v0c0.093-0.227 0.183-0.43 0.27-0.61 0.08-0.173 0.2-0.343 0.36-0.51v0c0.46-0.52 0.843-1.007 1.15-1.46 0.307-0.46 0.543-1.013 0.71-1.66v0c0.033-0.167 0.097-0.397 0.19-0.69 0.1-0.293 0.223-0.587 0.37-0.88 0.147-0.293 0.3-0.553 0.46-0.78 0.167-0.227 0.347-0.34 0.54-0.34v0c0.16 0 0.397 0.067 0.71 0.2 0.307 0.127 0.573 0.223 0.8 0.29v0c0.2 0.067 0.403 0.123 0.61 0.17 0.213 0.047 0.417 0.07 0.61 0.07v0c0.133 0 0.263-0.04 0.39-0.12 0.133-0.08 0.28-0.12 0.44-0.12v0c0.26 0 0.507 0.04 0.74 0.12 0.227 0.08 0.47 0.137 0.73 0.17z"
                                                                      fill="#ffffff" stroke="none"
                                                                      stroke-width="1"
                                                                      stroke-miterlimit="10"
                                                                      stroke-dasharray="" stroke-dashoffset="0"

                                                                      style="mix-blend-mode: normal"
                                                                      opacity="1"/>
                                                                <path xmlns="http://www.w3.org/2000/svg"
                                                                      d="M22.9 6.62v0c-0.067 0.127-0.09 0.257-0.07 0.39 0.013 0.127 0.02 0.273 0.02 0.44v0c-0.067 0.387-0.067 0.58 0 0.58 0.067 0 0.1 0.033 0.1 0.1v0l-0.34 0.49c0 0.193-0.04 0.373-0.12 0.54-0.087 0.16-0.113 0.353-0.08 0.58v0c-0.093 0.167-0.183 0.33-0.27 0.49-0.08 0.167-0.2 0.33-0.36 0.49v0h-0.64c-0.353 0-0.733 0.023-1.14 0.07-0.413 0.053-0.813 0.08-1.2 0.08v0c-0.067 0-0.15-0.01-0.25-0.03-0.093-0.013-0.19-0.02-0.29-0.02v0c-0.067 0-0.147 0.007-0.24 0.02-0.1 0.02-0.213 0.03-0.34 0.03v0c-0.493 0-0.973-0.027-1.44-0.08-0.473-0.047-0.97-0.07-1.49-0.07v0c-0.133 0-0.263 0-0.39 0-0.133 0-0.28 0.017-0.44 0.05v0c-0.033 0.553-0.06 1.113-0.08 1.68-0.013 0.573-0.02 1.153-0.02 1.74v0c0 0.16-0.017 0.33-0.05 0.51-0.033 0.18-0.05 0.35-0.05 0.51v0c-0.033 0.427-0.057 0.833-0.07 1.22-0.02 0.393-0.03 0.8-0.03 1.22v0c0 0.913 0.01 1.827 0.03 2.74 0.013 0.907 0.037 1.833 0.07 2.78v0c0.033 0.487 0.067 0.96 0.1 1.42 0.033 0.453 0.05 0.923 0.05 1.41v0c0 1.107-0.017 2.207-0.05 3.3-0.033 1.087-0.05 2.183-0.05 3.29v0c0 0.36-0.017 0.697-0.05 1.01-0.033 0.307-0.05 0.64-0.05 1v0c0 0.747 0.017 1.493 0.05 2.24 0.033 0.753 0.05 1.503 0.05 2.25v0c0 0.36-0.007 0.717-0.02 1.07-0.02 0.36-0.03 0.72-0.03 1.08v0c-0.16 0.26-0.273 0.487-0.34 0.68-0.067 0.193-0.263 0.29-0.59 0.29v0c-0.227-0.06-0.33-0.133-0.31-0.22 0.013-0.08-0.013-0.153-0.08-0.22v0c-0.293-0.027-0.513 0-0.66 0.08-0.147 0.08-0.317 0.153-0.51 0.22v0c-0.1-0.033-0.207-0.05-0.32-0.05-0.113 0-0.217 0-0.31 0v0c-0.067 0-0.133 0.023-0.2 0.07-0.067 0.047-0.213 0.07-0.44 0.07v0c-0.193 0.033-0.307 0.003-0.34-0.09-0.033-0.1-0.13-0.15-0.29-0.15v0c-0.167 0.1-0.357 0.173-0.57 0.22-0.207 0.047-0.41 0.07-0.61 0.07v0c-0.193-0.127-0.28-0.247-0.26-0.36 0.013-0.113-0.013-0.237-0.08-0.37v0c-0.033-0.067-0.09-0.157-0.17-0.27-0.08-0.113-0.153-0.203-0.22-0.27v0c0.067-0.453 0.117-0.86 0.15-1.22 0.033-0.353 0.05-0.743 0.05-1.17v0c0-0.847-0.033-1.677-0.1-2.49-0.067-0.813-0.1-1.643-0.1-2.49v0c0-0.26 0.033-0.537 0.1-0.83 0.067-0.293 0.1-0.603 0.1-0.93v0c-0.067-0.26-0.083-0.413-0.05-0.46 0.033-0.047 0.05-0.103 0.05-0.17v0c0-0.193-0.01-0.39-0.03-0.59-0.013-0.193-0.02-0.387-0.02-0.58v0c0-0.393 0.007-0.787 0.02-1.18 0.02-0.387 0.03-0.777 0.03-1.17v0c0-0.16-0.01-0.33-0.03-0.51-0.013-0.18-0.02-0.35-0.02-0.51v0c-0.033-0.293-0.043-0.603-0.03-0.93 0.02-0.327 0.03-0.653 0.03-0.98v0c0-1.56-0.023-3.107-0.07-4.64-0.053-1.527-0.08-3.07-0.08-4.63v0c0-0.753 0.04-1.52 0.12-2.3 0.087-0.78 0.13-1.56 0.13-2.34v0c0-0.1-0.033-0.23-0.1-0.39-0.067-0.167-0.133-0.283-0.2-0.35v0c-0.16 0-0.313-0.007-0.46-0.02-0.147-0.013-0.3-0.02-0.46-0.02v0c-0.36 0-0.703 0.047-1.03 0.14v0c-0.62 0.033-1.213 0.073-1.78 0.12-0.573 0.053-1.153 0.097-1.74 0.13v0c-0.387-0.033-0.62-0.043-0.7-0.03-0.087 0.02-0.177 0.03-0.27 0.03v0c-0.26 0-0.457-0.067-0.59-0.2v0-0.63c-0.193-0.393-0.273-0.607-0.24-0.64 0.033-0.033 0.05-0.08 0.05-0.14v0c0-0.1-0.09-0.207-0.27-0.32-0.18-0.113-0.27-0.3-0.27-0.56v0c-0.033-0.26-0.1-0.457-0.2-0.59-0.093-0.133-0.14-0.263-0.14-0.39v0c0-0.227 0.047-0.487 0.14-0.78v0c0.293-0.167 0.58-0.28 0.86-0.34 0.273-0.067 0.59-0.15 0.95-0.25v0c0.193-0.067 0.373-0.13 0.54-0.19 0.16-0.067 0.337-0.117 0.53-0.15v0c0.233-0.033 0.463-0.05 0.69-0.05 0.227 0 0.453-0.017 0.68-0.05v0c0.487-0.093 1-0.173 1.54-0.24 0.54-0.067 1.053-0.1 1.54-0.1v0c0.453 0 0.91 0.057 1.37 0.17 0.453 0.113 0.86 0.17 1.22 0.17v0c0.52 0 1.017 0.033 1.49 0.1 0.467 0.067 0.96 0.1 1.48 0.1v0c0.067 0 0.173 0.023 0.32 0.07 0.147 0.047 0.317 0.07 0.51 0.07v0h4.74c0.26 0.067 0.447 0.083 0.56 0.05 0.113-0.033 0.22-0.05 0.32-0.05v0c0.26 0 0.503 0.017 0.73 0.05 0.227 0.033 0.47 0.05 0.73 0.05v0c0.233 0 0.413-0.017 0.54-0.05v0c0.26 0.033 0.503 0.107 0.73 0.22 0.233 0.113 0.497 0.17 0.79 0.17v0c0.127 0.1 0.223 0.223 0.29 0.37 0.067 0.147 0.18 0.253 0.34 0.32zM42.33 34.69v0c0.26 0.427 0.457 0.833 0.59 1.22 0.133 0.393 0.2 0.67 0.2 0.83v0c0 0.233-0.043 0.423-0.13 0.57-0.08 0.147-0.183 0.3-0.31 0.46v0c-1.307 0.553-2.603 1.067-3.89 1.54-1.28 0.473-2.59 0.937-3.93 1.39v0c-0.32 0.1-0.637 0.207-0.95 0.32-0.307 0.113-0.64 0.203-1 0.27v0c-0.067 0.06-0.18 0.123-0.34 0.19-0.167 0.067-0.353 0.133-0.56 0.2-0.213 0.06-0.417 0.117-0.61 0.17-0.2 0.047-0.33 0.07-0.39 0.07v0c-0.067-0.16-0.133-0.257-0.2-0.29-0.067-0.033-0.13-0.067-0.19-0.1v0c-0.167 0-0.273 0.057-0.32 0.17-0.053 0.113-0.16 0.203-0.32 0.27v0c-0.16 0-0.307 0.007-0.44 0.02-0.127 0.02-0.24-0.003-0.34-0.07v0c-0.26 0.067-0.497 0.18-0.71 0.34-0.213 0.167-0.45 0.28-0.71 0.34v0c-0.487-0.127-0.787-0.183-0.9-0.17-0.113 0.02-0.237 0.047-0.37 0.08v0c-0.227-0.2-0.33-0.477-0.31-0.83 0.013-0.36-0.077-0.653-0.27-0.88v0c0-0.427-0.033-0.663-0.1-0.71-0.067-0.047-0.1-0.103-0.1-0.17v0c0-0.227 0.017-0.44 0.05-0.64 0.033-0.193 0.017-0.403-0.05-0.63v0c0.133-0.553 0.183-1.09 0.15-1.61-0.033-0.52-0.017-1.04 0.05-1.56v0c0-0.167 0.007-0.323 0.02-0.47 0.02-0.147 0.03-0.3 0.03-0.46v0c0-0.487 0.03-0.79 0.09-0.91 0.067-0.113 0.1-0.25 0.1-0.41v0c0-0.227-0.007-0.447-0.02-0.66-0.02-0.213-0.03-0.45-0.03-0.71v0c0-0.453 0.01-0.9 0.03-1.34 0.013-0.44 0.02-0.903 0.02-1.39v0c0-1.24-0.08-2.477-0.24-3.71-0.167-1.24-0.25-2.477-0.25-3.71v0c0-1.5-0.08-2.983-0.24-4.45-0.16-1.46-0.24-2.94-0.24-4.44v0c0-0.26 0-0.627 0-1.1 0-0.473 0-0.96 0-1.46 0-0.507 0.007-0.987 0.02-1.44 0.013-0.46 0.037-0.787 0.07-0.98v0c0-0.033 0.1-0.083 0.3-0.15 0.193-0.067 0.323-0.1 0.39-0.1v0c0.16 0 0.29 0.043 0.39 0.13 0.093 0.08 0.207 0.153 0.34 0.22v0c0.587-0.067 0.937-0.123 1.05-0.17 0.113-0.053 0.203-0.08 0.27-0.08v0c0.193 0 0.347 0.05 0.46 0.15 0.113 0.1 0.203 0.15 0.27 0.15v0c0.553-0.133 0.853-0.15 0.9-0.05 0.053 0.093 0.16 0.14 0.32 0.14v0c0.427-0.127 0.687-0.173 0.78-0.14 0.1 0.033 0.197 0.05 0.29 0.05v0c0.167 0 0.347-0.06 0.54-0.18 0.193-0.113 0.373-0.2 0.54-0.26v0c0.553-0.167 1.01-0.33 1.37-0.49v0c0.487-0.293 0.85-0.49 1.09-0.59 0.247-0.1 0.5-0.213 0.76-0.34v0c0.553-0.227 1.083-0.463 1.59-0.71 0.507-0.24 1.037-0.493 1.59-0.76v0c0.093 0 0.197-0.007 0.31-0.02 0.113-0.013 0.203-0.053 0.27-0.12v0c0.1 0.033 0.207 0.05 0.32 0.05 0.113 0 0.22 0 0.32 0v0c0.32 0.127 0.53 0.207 0.63 0.24v0c0.133 0.193 0.257 0.38 0.37 0.56 0.113 0.18 0.25 0.353 0.41 0.52v0c0.167 0.287 0.297 0.43 0.39 0.43v0c0 0.1-0.047 0.207-0.14 0.32-0.1 0.113-0.15 0.22-0.15 0.32v0c0.26 0.453 0.47 0.877 0.63 1.27 0.167 0.393 0.25 0.67 0.25 0.83v0c0 0.227-0.033 0.413-0.1 0.56-0.067 0.147-0.147 0.3-0.24 0.46v0c-1.24 0.587-2.487 1.167-3.74 1.74-1.253 0.567-2.53 1.127-3.83 1.68v0c-0.327 0.133-0.637 0.273-0.93 0.42-0.293 0.147-0.62 0.253-0.98 0.32v0c-0.06 0.06-0.207 0.117-0.44 0.17-0.227 0.047-0.403 0.07-0.53 0.07v0c0.067 0.553 0.107 1.097 0.12 1.63 0.013 0.54 0.037 1.087 0.07 1.64v0c0.033 0.453 0.09 0.933 0.17 1.44 0.087 0.507 0.16 1.003 0.22 1.49v0c1.073-0.453 2.14-0.91 3.2-1.37 1.06-0.453 2.127-0.907 3.2-1.36v0c0.193 0.027 0.397 0.057 0.61 0.09 0.213 0.033 0.417 0.083 0.61 0.15v0c0.067 0.067 0.133 0.147 0.2 0.24 0.06 0.1 0.14 0.183 0.24 0.25v0c-0.033 0.16 0.073 0.403 0.32 0.73 0.24 0.327 0.36 0.57 0.36 0.73v0c0 0.26 0.033 0.417 0.1 0.47 0.067 0.047 0.133 0.183 0.2 0.41v0c0.033 0.327 0.033 0.507 0 0.54v0c0.16 0.16 0.29 0.323 0.39 0.49 0.093 0.16 0.14 0.353 0.14 0.58v0c-0.453 0.553-0.907 0.92-1.36 1.1-0.46 0.18-0.917 0.367-1.37 0.56v0c-0.16 0.067-0.33 0.157-0.51 0.27-0.18 0.113-0.353 0.203-0.52 0.27v0c-0.26 0.1-0.51 0.19-0.75 0.27-0.247 0.08-0.5 0.187-0.76 0.32v0c-0.42 0.227-0.85 0.477-1.29 0.75-0.44 0.28-0.89 0.47-1.35 0.57v0c-0.353 0.093-0.587 0.197-0.7 0.31-0.12 0.113-0.31 0.27-0.57 0.47v0 1.31 2.45c0 0.32 0 0.653 0 1 0 0.34-0.013 0.69-0.04 1.05v0c-0.067 0.327-0.1 0.603-0.1 0.83v0 0.78c0.16-0.067 0.323-0.123 0.49-0.17 0.16-0.053 0.32-0.11 0.48-0.17v0c0.133-0.033 0.257-0.05 0.37-0.05 0.113 0 0.237-0.033 0.37-0.1v0c0.16-0.033 0.29-0.067 0.39-0.1 0.093-0.033 0.207-0.08 0.34-0.14v0c0.487-0.26 0.86-0.433 1.12-0.52 0.26-0.08 0.52-0.17 0.78-0.27v0c0.553-0.193 1.09-0.397 1.61-0.61 0.527-0.207 1.05-0.41 1.57-0.61v0c0.327 0.067 0.553 0.02 0.68-0.14v0c0.167 0.033 0.307 0.063 0.42 0.09 0.113 0.033 0.25 0.05 0.41 0.05v0c0.393 0.36 0.637 0.637 0.73 0.83 0.1 0.2 0.23 0.38 0.39 0.54v0c0.167 0.293 0.283 0.44 0.35 0.44v0c0 0.067-0.05 0.173-0.15 0.32-0.1 0.147-0.167 0.267-0.2 0.36zM49.85 40.9l-0.34-0.15c-0.093 0.067-0.19 0.13-0.29 0.19-0.1 0.067-0.197 0.133-0.29 0.2v0c-0.36 0.193-0.687 0.3-0.98 0.32-0.293 0.013-0.62 0.183-0.98 0.51v0c-0.127-0.16-0.223-0.24-0.29-0.24-0.067 0-0.18 0-0.34 0v0c-0.427 0-0.67-0.117-0.73-0.35v0c-0.133 0.033-0.337 0.117-0.61 0.25-0.28 0.127-0.487 0.223-0.62 0.29v0c0.293-0.42 0.49-0.747 0.59-0.98 0.1-0.227 0.157-0.437 0.17-0.63 0.02-0.193 0.037-0.397 0.05-0.61 0.013-0.213 0.087-0.513 0.22-0.9v0c0.067-0.133 0.117-0.267 0.15-0.4 0.033-0.127 0.08-0.27 0.14-0.43v0c0.167-0.493 0.307-1.047 0.42-1.66 0.113-0.62 0.3-1.16 0.56-1.62v0c0-0.553 0.123-1.073 0.37-1.56 0.24-0.487 0.443-0.99 0.61-1.51v0c0.06-0.2 0.147-0.397 0.26-0.59 0.12-0.193 0.21-0.387 0.27-0.58v0c0.133-0.327 0.24-0.647 0.32-0.96 0.08-0.307 0.17-0.607 0.27-0.9v0c0.26-0.947 0.52-1.883 0.78-2.81 0.26-0.927 0.503-1.86 0.73-2.8v0c0.033-0.167 0.077-0.347 0.13-0.54 0.047-0.193 0.103-0.373 0.17-0.54v0c0.16-0.487 0.263-0.983 0.31-1.49 0.053-0.507 0.21-0.987 0.47-1.44v0c-0.033-0.227-0.027-0.437 0.02-0.63 0.047-0.2 0.103-0.413 0.17-0.64 0.067-0.227 0.133-0.437 0.2-0.63 0.067-0.2 0.113-0.347 0.14-0.44v0c0.167-0.427 0.29-0.81 0.37-1.15 0.08-0.34 0.25-0.707 0.51-1.1v0c0 0 0.05-0.17 0.15-0.51 0.1-0.34 0.213-0.723 0.34-1.15 0.133-0.42 0.247-0.817 0.34-1.19 0.1-0.38 0.15-0.6 0.15-0.66v0c0.067-0.26 0.123-0.507 0.17-0.74 0.047-0.227 0.103-0.47 0.17-0.73v0c0.067-0.16 0.133-0.297 0.2-0.41 0.06-0.113 0.123-0.253 0.19-0.42v0c0.1-0.36 0.2-0.8 0.3-1.32 0.093-0.52 0.223-0.927 0.39-1.22v0c0.093-0.227 0.28-0.413 0.56-0.56 0.273-0.147 0.51-0.3 0.71-0.46v0c0.58 0.06 1.01 0.027 1.29-0.1 0.273-0.133 0.54-0.297 0.8-0.49v0c0.167 0.033 0.323 0.073 0.47 0.12 0.147 0.053 0.3 0.08 0.46 0.08v0c0.62 0.68 1.053 1.38 1.3 2.1 0.24 0.713 0.473 1.427 0.7 2.14v0c0.1 0.36 0.2 0.71 0.3 1.05 0.093 0.347 0.207 0.68 0.34 1v0c0.033 0.1 0.083 0.207 0.15 0.32 0.06 0.113 0.123 0.237 0.19 0.37v0c0.167 0.26 0.307 0.537 0.42 0.83 0.113 0.293 0.217 0.587 0.31 0.88v0c0.2 0.227 0.347 0.493 0.44 0.8 0.1 0.313 0.19 0.623 0.27 0.93 0.08 0.307 0.17 0.6 0.27 0.88 0.1 0.273 0.247 0.51 0.44 0.71v0c0.067 0.353 0.18 0.703 0.34 1.05 0.167 0.34 0.28 0.707 0.34 1.1v0c0.2 0.26 0.43 0.757 0.69 1.49 0.26 0.727 0.52 1.513 0.78 2.36 0.26 0.847 0.503 1.66 0.73 2.44 0.227 0.787 0.39 1.343 0.49 1.67v0c0.067 0.26 0.197 0.593 0.39 1 0.193 0.407 0.373 0.77 0.54 1.09v0c0.127 0.36 0.263 0.737 0.41 1.13 0.147 0.387 0.27 0.76 0.37 1.12v0c0.067 0.36 0.14 0.703 0.22 1.03 0.08 0.32 0.17 0.66 0.27 1.02v0c0.06 0.227 0.157 0.43 0.29 0.61 0.127 0.18 0.223 0.4 0.29 0.66v0c0.133 0.26 0.223 0.503 0.27 0.73 0.047 0.233 0.153 0.48 0.32 0.74v0c-0.033 0.353-0.017 0.58 0.05 0.68 0.06 0.1 0.123 0.213 0.19 0.34v0c0.133 0.687 0.28 1.233 0.44 1.64 0.167 0.407 0.25 0.837 0.25 1.29v0c0 0.393-0.073 0.637-0.22 0.73-0.147 0.1-0.337 0.263-0.57 0.49v0c-0.26 0.227-0.477 0.407-0.65 0.54-0.18 0.127-0.45 0.19-0.81 0.19v0c-0.393-0.027-0.63 0.033-0.71 0.18-0.08 0.14-0.137 0.243-0.17 0.31v0c-0.393-0.033-0.647-0.04-0.76-0.02-0.113 0.013-0.227 0.02-0.34 0.02-0.113 0-0.227 0.027-0.34 0.08-0.113 0.047-0.237 0.15-0.37 0.31v0c-0.227-0.26-0.447-0.493-0.66-0.7-0.207-0.213-0.393-0.45-0.56-0.71v0c0-0.553-0.073-1.207-0.22-1.96-0.147-0.747-0.3-1.33-0.46-1.75v0c-0.327-0.847-0.627-1.677-0.9-2.49-0.28-0.813-0.55-1.643-0.81-2.49v0c-0.1-0.36-0.207-0.687-0.32-0.98-0.113-0.293-0.233-0.603-0.36-0.93v0c0.06 0.26 0.083 0.53 0.07 0.81-0.013 0.273-0.103 0.54-0.27 0.8v0c-0.067 0.067-0.163 0.15-0.29 0.25-0.133 0.093-0.2 0.173-0.2 0.24v0c-0.387 0.327-0.727 0.637-1.02 0.93v0c0.033 0.587-0.05 0.993-0.25 1.22-0.193 0.227-0.403 0.437-0.63 0.63v0c-0.553 0.033-0.897 0.003-1.03-0.09-0.127-0.1-0.303-0.167-0.53-0.2v0c-0.133-0.033-0.263-0.04-0.39-0.02-0.133 0.013-0.263 0.02-0.39 0.02v0c-0.267 0-0.513-0.063-0.74-0.19v0c-0.093-0.067-0.167-0.133-0.22-0.2-0.047-0.067-0.103-0.13-0.17-0.19v0c-0.26-0.267-0.56-0.487-0.9-0.66-0.34-0.18-0.673-0.337-1-0.47v0c-0.26-0.227-0.53-0.463-0.81-0.71-0.273-0.24-0.557-0.443-0.85-0.61v0c-0.26 0.62-0.463 1.167-0.61 1.64-0.147 0.473-0.32 0.937-0.52 1.39v0c-0.353 1.107-0.643 2.077-0.87 2.91-0.233 0.827-0.497 1.663-0.79 2.51v0c-0.127 0.033-0.247 0.083-0.36 0.15-0.113 0.067-0.253 0.1-0.42 0.1zM54.1 30.35h0.2c0.26-0.46 0.493-0.713 0.7-0.76 0.213-0.047 0.403-0.167 0.57-0.36v0c0.06-0.067 0.133-0.15 0.22-0.25 0.08-0.1 0.167-0.197 0.26-0.29v0c0.1-0.067 0.217-0.133 0.35-0.2 0.127-0.06 0.24-0.14 0.34-0.24v0c0.26-0.227 0.48-0.423 0.66-0.59 0.18-0.16 0.447-0.24 0.8-0.24v0c0.553 0 1.01 0.137 1.37 0.41 0.36 0.28 0.8 0.47 1.32 0.57v0c0.067 0.193 0.277 0.33 0.63 0.41 0.36 0.08 0.637 0.187 0.83 0.32v0c-0.32-0.813-0.57-1.637-0.75-2.47-0.18-0.827-0.4-1.647-0.66-2.46v0c-0.2-0.72-0.43-1.43-0.69-2.13-0.26-0.7-0.52-1.373-0.78-2.02v0c-0.227-0.653-0.42-1.29-0.58-1.91-0.167-0.62-0.38-1.223-0.64-1.81v0c-0.26 0.587-0.52 1.303-0.78 2.15-0.26 0.847-0.457 1.597-0.59 2.25v0c0 0.293-0.013 0.52-0.04 0.68v0c-0.067 0.227-0.133 0.43-0.2 0.61-0.067 0.18-0.13 0.367-0.19 0.56v0c-0.427 1.273-0.81 2.56-1.15 3.86-0.34 1.307-0.74 2.61-1.2 3.91zM108.94 41.38v0c-0.167 0.167-0.347 0.267-0.54 0.3-0.193 0.033-0.39 0.05-0.59 0.05v0c-0.487 0.227-1.007 0.34-1.56 0.34v0c-0.36-0.2-0.557-0.267-0.59-0.2-0.027 0.067-0.09 0.133-0.19 0.2v0c-0.487 0.227-0.927 0.347-1.32 0.36-0.393 0.02-0.72 0.11-0.98 0.27v0c-0.26-0.193-0.397-0.477-0.41-0.85-0.02-0.373-0.06-0.69-0.12-0.95v0c-0.167-0.233-0.283-0.52-0.35-0.86-0.06-0.34-0.107-0.69-0.14-1.05-0.033-0.36-0.073-0.71-0.12-1.05-0.053-0.34-0.143-0.64-0.27-0.9v0c-0.033-0.167-0.043-0.313-0.03-0.44 0.02-0.133-0.003-0.28-0.07-0.44v0c0.033-0.553 0.017-0.993-0.05-1.32-0.067-0.327-0.13-0.667-0.19-1.02v0c-0.033-0.2-0.05-0.42-0.05-0.66 0-0.247-0.1-0.437-0.3-0.57v0c0.1-0.453 0.117-0.793 0.05-1.02-0.06-0.227-0.107-0.44-0.14-0.64v0c-0.033-0.26-0.05-0.543-0.05-0.85 0-0.307-0.033-0.59-0.1-0.85v0c-0.193-1.567-0.403-3.13-0.63-4.69-0.233-1.567-0.447-3.13-0.64-4.69v0c-0.193 0.16-0.33 0.403-0.41 0.73-0.087 0.327-0.16 0.62-0.22 0.88v0c-0.2 0.587-0.38 1.19-0.54 1.81-0.167 0.62-0.33 1.22-0.49 1.8v0c-0.067 0.267-0.123 0.57-0.17 0.91-0.047 0.34-0.12 0.64-0.22 0.9v0c-0.327 0.947-0.61 1.76-0.85 2.44-0.247 0.687-0.483 1.387-0.71 2.1v0c-0.067 0.393-0.133 0.77-0.2 1.13-0.067 0.353-0.13 0.71-0.19 1.07v0c-0.033 0.193-0.083 0.47-0.15 0.83-0.067 0.36-0.133 0.62-0.2 0.78v0c-0.06 0.167-0.117 0.28-0.17 0.34-0.047 0.067-0.053 0.18-0.02 0.34v0c-0.327 0.493-0.547 1.033-0.66 1.62-0.113 0.58-0.317 1.15-0.61 1.71v0c0 0.387-0.147 0.727-0.44 1.02v0c-0.16 0.033-0.313 0.067-0.46 0.1-0.147 0.033-0.303 0.097-0.47 0.19v0c-0.16-0.06-0.347-0.1-0.56-0.12-0.213-0.013-0.417-0.02-0.61-0.02v0c-0.16-0.033-0.307-0.09-0.44-0.17-0.127-0.087-0.273-0.143-0.44-0.17v0c-0.16-0.2-0.34-0.373-0.54-0.52-0.193-0.147-0.387-0.3-0.58-0.46v0c-0.193-0.487-0.373-0.813-0.54-0.98v0c-0.093-0.36-0.223-0.693-0.39-1-0.16-0.307-0.273-0.657-0.34-1.05v0c-0.1-0.36-0.223-0.693-0.37-1-0.147-0.307-0.3-0.64-0.46-1v0c-0.067-0.227-0.14-0.447-0.22-0.66-0.08-0.213-0.17-0.433-0.27-0.66v0c-0.033-0.26-0.123-0.587-0.27-0.98-0.147-0.387-0.25-0.727-0.31-1.02v0c0-0.033-0.06-0.203-0.18-0.51-0.113-0.313-0.227-0.647-0.34-1-0.113-0.36-0.227-0.687-0.34-0.98-0.113-0.293-0.187-0.457-0.22-0.49v0c-0.067-0.16-0.123-0.313-0.17-0.46-0.047-0.147-0.103-0.32-0.17-0.52v0c-0.133-0.42-0.297-0.85-0.49-1.29-0.193-0.44-0.39-0.857-0.59-1.25v0c-0.16-0.32-0.273-0.637-0.34-0.95-0.06-0.307-0.14-0.607-0.24-0.9v0c-0.067-0.16-0.123-0.307-0.17-0.44-0.053-0.133-0.11-0.28-0.17-0.44v0c-0.067-0.193-0.133-0.397-0.2-0.61-0.067-0.213-0.13-0.433-0.19-0.66v0c-0.167 0.067-0.24 0.207-0.22 0.42 0.013 0.207 0.003 0.393-0.03 0.56v0c-0.067 0.353-0.1 0.703-0.1 1.05 0 0.34-0.013 0.69-0.04 1.05v0c-0.067 0.387-0.133 0.76-0.2 1.12-0.067 0.36-0.117 0.717-0.15 1.07v0c0 0.88-0.047 1.76-0.14 2.64v0c-0.067 0.78-0.15 1.57-0.25 2.37-0.093 0.8-0.157 1.623-0.19 2.47v0c0 0.613-0.067 1.223-0.2 1.83-0.127 0.6-0.157 1.227-0.09 1.88v0c-0.067 0.127-0.1 0.223-0.1 0.29 0 0.067 0 0.163 0 0.29v0c0 0.167-0.01 0.347-0.03 0.54-0.013 0.193-0.02 0.373-0.02 0.54v0c0 0.293 0.033 0.487 0.1 0.58v0c-0.1 0.293-0.15 0.61-0.15 0.95 0 0.347 0 0.683 0 1.01v0c-0.067 0.127-0.107 0.257-0.12 0.39-0.02 0.127-0.077 0.257-0.17 0.39v0c0.033 0.553-0.13 0.83-0.49 0.83v0c-0.1 0-0.207-0.027-0.32-0.08-0.113-0.047-0.203-0.12-0.27-0.22v0c-0.353 0.033-0.557-0.047-0.61-0.24-0.047-0.193-0.15-0.273-0.31-0.24v0c-0.393 0.16-0.613 0.207-0.66 0.14-0.053-0.067-0.16-0.083-0.32-0.05v0c-0.26-0.26-0.43-0.373-0.51-0.34-0.087 0.033-0.16 0.05-0.22 0.05v0c-0.293-0.1-0.457-0.123-0.49-0.07-0.033 0.047-0.1 0.07-0.2 0.07v0c-0.16-0.16-0.38-0.24-0.66-0.24-0.273 0-0.507-0.017-0.7-0.05v0c-0.033-0.133-0.06-0.257-0.08-0.37-0.013-0.113-0.02-0.25-0.02-0.41v0c0-0.2 0.007-0.39 0.02-0.57 0.02-0.173 0.03-0.36 0.03-0.56v0c0-0.16-0.01-0.33-0.03-0.51-0.013-0.18-0.02-0.383-0.02-0.61v0c0-0.227 0.017-0.447 0.05-0.66 0.033-0.213 0.05-0.45 0.05-0.71v0c0-0.093-0.017-0.183-0.05-0.27-0.033-0.08-0.05-0.183-0.05-0.31v0c0.193-0.427 0.283-0.76 0.27-1-0.02-0.247-0.013-0.483 0.02-0.71v0c0.067-0.553 0.123-1.1 0.17-1.64 0.047-0.533 0.103-1.077 0.17-1.63v0c0-0.913 0.027-1.67 0.08-2.27 0.047-0.607 0.12-1.22 0.22-1.84v0c0.06-0.287 0.117-0.563 0.17-0.83 0.047-0.26 0.103-0.537 0.17-0.83v0c0.06-0.487 0.1-0.997 0.12-1.53 0.013-0.54 0.053-1.07 0.12-1.59v0c0.067-0.813 0.15-1.62 0.25-2.42 0.093-0.793 0.173-1.583 0.24-2.37v0c0.067-0.613 0.14-1.223 0.22-1.83 0.08-0.6 0.12-1.177 0.12-1.73v0c0-0.293 0.04-0.667 0.12-1.12 0.087-0.46 0.143-0.853 0.17-1.18v0c0.067-0.78 0.127-1.543 0.18-2.29 0.047-0.747 0.07-1.497 0.07-2.25v0-0.53c0-0.067 0.033-0.133 0.1-0.2 0.06-0.067 0.09-0.18 0.09-0.34v0c0-0.293 0.073-0.497 0.22-0.61 0.147-0.113 0.27-0.3 0.37-0.56v0c0.16 0 0.347 0.017 0.56 0.05 0.213 0.033 0.37 0.13 0.47 0.29v0c0.227-0.067 0.453-0.1 0.68-0.1 0.227 0 0.42-0.08 0.58-0.24v0c0.2 0 0.347 0.047 0.44 0.14 0.1 0.1 0.23 0.183 0.39 0.25v0c0.133-0.067 0.267-0.123 0.4-0.17 0.127-0.053 0.257-0.11 0.39-0.17v0c0.093 0.06 0.167 0.133 0.22 0.22 0.047 0.08 0.12 0.137 0.22 0.17v0c0.487-0.133 0.81-0.15 0.97-0.05v0c0.067 0.127 0.107 0.257 0.12 0.39 0.02 0.127 0.047 0.257 0.08 0.39v0c0.327 0.327 0.537 0.693 0.63 1.1 0.1 0.407 0.28 0.773 0.54 1.1v0c0.067 0.193 0.14 0.387 0.22 0.58 0.08 0.2 0.153 0.43 0.22 0.69v0l0.15 0.58c0.127 0.327 0.287 0.717 0.48 1.17v0c0.167 0.62 0.313 1.257 0.44 1.91 0.133 0.653 0.347 1.257 0.64 1.81v0c0.033 0.193 0.09 0.427 0.17 0.7 0.08 0.28 0.153 0.517 0.22 0.71v0c0.227 0.553 0.463 1.1 0.71 1.64 0.24 0.533 0.46 1.11 0.66 1.73v0c0.193 0.62 0.363 1.253 0.51 1.9 0.147 0.653 0.333 1.29 0.56 1.91v0c0.193 0.587 0.34 1.01 0.44 1.27 0.1 0.26 0.23 0.52 0.39 0.78v0c0 0.1 0.023 0.263 0.07 0.49 0.053 0.227 0.127 0.463 0.22 0.71 0.1 0.24 0.2 0.467 0.3 0.68 0.093 0.213 0.19 0.337 0.29 0.37v0c0.1-0.067 0.157-0.167 0.17-0.3 0.013-0.127 0.07-0.24 0.17-0.34v0c0.033-0.36 0.09-0.8 0.17-1.32 0.08-0.52 0.203-0.943 0.37-1.27v0c0-0.16 0.04-0.46 0.12-0.9 0.08-0.44 0.187-0.913 0.32-1.42 0.127-0.5 0.247-0.963 0.36-1.39 0.113-0.42 0.22-0.68 0.32-0.78v0c0.067-0.42 0.123-0.68 0.17-0.78 0.047-0.1 0.103-0.18 0.17-0.24v0c0.033-0.267 0.1-0.513 0.2-0.74 0.093-0.227 0.157-0.47 0.19-0.73v0c0.067-0.553 0.15-1.01 0.25-1.37 0.093-0.353 0.223-0.79 0.39-1.31v0c0.127-0.46 0.247-0.927 0.36-1.4 0.113-0.467 0.253-0.93 0.42-1.39v0c0.387-1.233 0.737-2.33 1.05-3.29 0.307-0.96 0.69-1.897 1.15-2.81v0c0.093-0.293 0.173-0.473 0.24-0.54 0.067-0.067 0.133-0.13 0.2-0.19v0c0.26-0.1 0.527-0.15 0.8-0.15 0.28 0 0.567 0.017 0.86 0.05v0c0.32-0.133 0.563-0.28 0.73-0.44v0c0.127 0.16 0.32 0.24 0.58 0.24v0c0.327 0 0.557-0.097 0.69-0.29v0c0.127 0.067 0.233 0.083 0.32 0.05 0.08-0.033 0.2-0.017 0.36 0.05v0c0.067-0.067 0.15-0.14 0.25-0.22 0.093-0.08 0.19-0.12 0.29-0.12v0c0.26 0.32 0.463 0.57 0.61 0.75 0.147 0.18 0.253 0.383 0.32 0.61v0c0.093 0.293 0.15 0.613 0.17 0.96 0.013 0.34 0.103 0.657 0.27 0.95v0c-0.033 0.42-0.01 1.063 0.07 1.93 0.08 0.86 0.177 1.77 0.29 2.73 0.113 0.96 0.237 1.847 0.37 2.66 0.127 0.813 0.24 1.32 0.34 1.52v0c-0.033 0.42-0.017 0.777 0.05 1.07 0.067 0.293 0.1 0.587 0.1 0.88v0c0 0.093 0.017 0.297 0.05 0.61 0.027 0.307 0.057 0.633 0.09 0.98 0.033 0.34 0.073 0.663 0.12 0.97 0.053 0.313 0.097 0.533 0.13 0.66v0c0 0.587 0.097 1.043 0.29 1.37v0c0.16 0.813 0.3 1.627 0.42 2.44 0.113 0.813 0.217 1.643 0.31 2.49v0c0.067 0.42 0.107 0.827 0.12 1.22 0.02 0.393 0.063 0.8 0.13 1.22v0c0.033 0.167 0.073 0.33 0.12 0.49 0.047 0.16 0.087 0.323 0.12 0.49v0c0.067 0.327 0.117 0.637 0.15 0.93 0.033 0.293 0.08 0.583 0.14 0.87v0c0.033 0.167 0.083 0.34 0.15 0.52 0.067 0.18 0.067 0.367 0 0.56v0c0.067 0.227 0.09 0.47 0.07 0.73-0.013 0.26 0.043 0.487 0.17 0.68v0c0 0.687 0.05 1.29 0.15 1.81v0c0.033 0.393 0.13 0.783 0.29 1.17v0c0.067 0.393 0.123 0.8 0.17 1.22 0.053 0.427 0.113 0.85 0.18 1.27zM147.31 41.38v0c-0.16 0.167-0.337 0.267-0.53 0.3-0.2 0.033-0.397 0.05-0.59 0.05v0c-0.487 0.227-1.007 0.34-1.56 0.34v0c-0.36-0.2-0.557-0.267-0.59-0.2-0.033 0.067-0.097 0.133-0.19 0.2v0c-0.487 0.227-0.927 0.347-1.32 0.36-0.393 0.02-0.72 0.11-0.98 0.27v0c-0.26-0.193-0.397-0.477-0.41-0.85-0.02-0.373-0.06-0.69-0.12-0.95v0c-0.167-0.233-0.283-0.52-0.35-0.86-0.06-0.34-0.107-0.69-0.14-1.05-0.033-0.36-0.073-0.71-0.12-1.05-0.053-0.34-0.143-0.64-0.27-0.9v0c-0.033-0.167-0.043-0.313-0.03-0.44 0.02-0.133-0.003-0.28-0.07-0.44v0c0.033-0.553 0.017-0.993-0.05-1.32-0.067-0.327-0.133-0.667-0.2-1.02v0c-0.027-0.2-0.04-0.42-0.04-0.66 0-0.247-0.1-0.437-0.3-0.57v0c0.1-0.453 0.117-0.793 0.05-1.02-0.067-0.227-0.113-0.44-0.14-0.64v0c-0.033-0.26-0.05-0.543-0.05-0.85 0-0.307-0.033-0.59-0.1-0.85v0c-0.193-1.567-0.407-3.13-0.64-4.69-0.227-1.567-0.437-3.13-0.63-4.69v0c-0.193 0.16-0.333 0.403-0.42 0.73-0.08 0.327-0.153 0.62-0.22 0.88v0c-0.193 0.587-0.37 1.19-0.53 1.81-0.167 0.62-0.33 1.22-0.49 1.8v0c-0.067 0.267-0.123 0.57-0.17 0.91-0.047 0.34-0.12 0.64-0.22 0.9v0c-0.327 0.947-0.613 1.76-0.86 2.44-0.24 0.687-0.473 1.387-0.7 2.1v0c-0.067 0.393-0.133 0.77-0.2 1.13-0.067 0.353-0.13 0.71-0.19 1.07v0c-0.033 0.193-0.083 0.47-0.15 0.83-0.067 0.36-0.133 0.62-0.2 0.78v0c-0.06 0.167-0.117 0.28-0.17 0.34-0.047 0.067-0.053 0.18-0.02 0.34v0c-0.327 0.493-0.547 1.033-0.66 1.62-0.113 0.58-0.317 1.15-0.61 1.71v0c0 0.387-0.147 0.727-0.44 1.02v0c-0.16 0.033-0.313 0.067-0.46 0.1-0.147 0.033-0.303 0.097-0.47 0.19v0c-0.16-0.06-0.347-0.1-0.56-0.12-0.213-0.013-0.417-0.02-0.61-0.02v0c-0.16-0.033-0.307-0.09-0.44-0.17-0.127-0.087-0.273-0.143-0.44-0.17v0c-0.16-0.2-0.34-0.373-0.54-0.52-0.193-0.147-0.387-0.3-0.58-0.46v0c-0.2-0.487-0.38-0.813-0.54-0.98v0c-0.1-0.36-0.23-0.693-0.39-1-0.16-0.307-0.273-0.657-0.34-1.05v0c-0.1-0.36-0.223-0.693-0.37-1-0.147-0.307-0.3-0.64-0.46-1v0c-0.067-0.227-0.14-0.447-0.22-0.66-0.08-0.213-0.17-0.433-0.27-0.66v0c-0.033-0.26-0.123-0.587-0.27-0.98-0.147-0.387-0.253-0.727-0.32-1.02v0c0-0.033-0.057-0.203-0.17-0.51-0.113-0.313-0.227-0.647-0.34-1-0.113-0.36-0.227-0.687-0.34-0.98-0.113-0.293-0.187-0.457-0.22-0.49v0c-0.067-0.16-0.123-0.313-0.17-0.46-0.047-0.147-0.103-0.32-0.17-0.52v0c-0.133-0.42-0.297-0.85-0.49-1.29-0.193-0.44-0.39-0.857-0.59-1.25v0c-0.16-0.32-0.273-0.637-0.34-0.95-0.067-0.307-0.147-0.607-0.24-0.9v0c-0.067-0.16-0.123-0.307-0.17-0.44-0.053-0.133-0.11-0.28-0.17-0.44v0c-0.067-0.193-0.133-0.397-0.2-0.61-0.067-0.213-0.13-0.433-0.19-0.66v0c-0.167 0.067-0.24 0.207-0.22 0.42 0.013 0.207 0.003 0.393-0.03 0.56v0c-0.067 0.353-0.1 0.703-0.1 1.05 0 0.34-0.017 0.69-0.05 1.05v0c-0.06 0.387-0.123 0.76-0.19 1.12-0.067 0.36-0.117 0.717-0.15 1.07v0c0 0.88-0.047 1.76-0.14 2.64v0c-0.067 0.78-0.15 1.57-0.25 2.37-0.093 0.8-0.157 1.623-0.19 2.47v0c0 0.613-0.067 1.223-0.2 1.83-0.127 0.6-0.16 1.227-0.1 1.88v0c-0.06 0.127-0.09 0.223-0.09 0.29 0 0.067 0 0.163 0 0.29v0c0 0.167-0.01 0.347-0.03 0.54-0.013 0.193-0.02 0.373-0.02 0.54v0c0 0.293 0.033 0.487 0.1 0.58v0c-0.1 0.293-0.15 0.61-0.15 0.95 0 0.347 0 0.683 0 1.01v0c-0.067 0.127-0.107 0.257-0.12 0.39-0.02 0.127-0.077 0.257-0.17 0.39v0c0.027 0.553-0.137 0.83-0.49 0.83v0c-0.1 0-0.207-0.027-0.32-0.08-0.113-0.047-0.203-0.12-0.27-0.22v0c-0.36 0.033-0.563-0.047-0.61-0.24-0.047-0.193-0.153-0.273-0.32-0.24v0c-0.387 0.16-0.607 0.207-0.66 0.14-0.047-0.067-0.15-0.083-0.31-0.05v0c-0.26-0.26-0.433-0.373-0.52-0.34-0.08 0.033-0.153 0.05-0.22 0.05v0c-0.287-0.1-0.447-0.123-0.48-0.07-0.033 0.047-0.1 0.07-0.2 0.07v0c-0.16-0.16-0.38-0.24-0.66-0.24-0.273 0-0.51-0.017-0.71-0.05v0c-0.027-0.133-0.05-0.257-0.07-0.37-0.013-0.113-0.02-0.25-0.02-0.41v0c0-0.2 0.007-0.39 0.02-0.57 0.02-0.173 0.03-0.36 0.03-0.56v0c0-0.16-0.01-0.33-0.03-0.51-0.013-0.18-0.02-0.383-0.02-0.61v0c0-0.227 0.017-0.447 0.05-0.66 0.027-0.213 0.04-0.45 0.04-0.71v0c0-0.093-0.013-0.183-0.04-0.27-0.033-0.08-0.05-0.183-0.05-0.31v0c0.193-0.427 0.283-0.76 0.27-1-0.02-0.247-0.013-0.483 0.02-0.71v0c0.067-0.553 0.123-1.1 0.17-1.64 0.047-0.533 0.103-1.077 0.17-1.63v0c0-0.913 0.023-1.67 0.07-2.27 0.053-0.607 0.127-1.22 0.22-1.84v0c0.067-0.287 0.127-0.563 0.18-0.83 0.047-0.26 0.103-0.537 0.17-0.83v0c0.06-0.487 0.1-0.997 0.12-1.53 0.013-0.54 0.053-1.07 0.12-1.59v0c0.067-0.813 0.147-1.62 0.24-2.42 0.1-0.793 0.183-1.583 0.25-2.37v0c0.067-0.613 0.14-1.223 0.22-1.83 0.08-0.6 0.12-1.177 0.12-1.73v0c0-0.293 0.04-0.667 0.12-1.12 0.08-0.46 0.137-0.853 0.17-1.18v0c0.067-0.78 0.123-1.543 0.17-2.29 0.053-0.747 0.08-1.497 0.08-2.25v0-0.53c0-0.067 0.033-0.133 0.1-0.2 0.06-0.067 0.09-0.18 0.09-0.34v0c0-0.293 0.073-0.497 0.22-0.61 0.147-0.113 0.27-0.3 0.37-0.56v0c0.16 0 0.347 0.017 0.56 0.05 0.213 0.033 0.367 0.13 0.46 0.29v0c0.233-0.067 0.463-0.1 0.69-0.1 0.227 0 0.42-0.08 0.58-0.24v0c0.2 0 0.347 0.047 0.44 0.14 0.1 0.1 0.23 0.183 0.39 0.25v0c0.133-0.067 0.263-0.123 0.39-0.17 0.133-0.053 0.263-0.11 0.39-0.17v0c0.1 0.06 0.173 0.133 0.22 0.22 0.053 0.08 0.127 0.137 0.22 0.17v0c0.493-0.133 0.82-0.15 0.98-0.05v0c0.067 0.127 0.107 0.257 0.12 0.39 0.02 0.127 0.047 0.257 0.08 0.39v0c0.32 0.327 0.53 0.693 0.63 1.1 0.1 0.407 0.28 0.773 0.54 1.1v0c0.067 0.193 0.14 0.387 0.22 0.58 0.08 0.2 0.153 0.43 0.22 0.69v0l0.14 0.58c0.133 0.327 0.297 0.717 0.49 1.17v0c0.167 0.62 0.313 1.257 0.44 1.91 0.133 0.653 0.347 1.257 0.64 1.81v0c0.033 0.193 0.09 0.427 0.17 0.7 0.08 0.28 0.153 0.517 0.22 0.71v0c0.227 0.553 0.463 1.1 0.71 1.64 0.24 0.533 0.457 1.11 0.65 1.73v0c0.2 0.62 0.373 1.253 0.52 1.9 0.147 0.653 0.333 1.29 0.56 1.91v0c0.193 0.587 0.34 1.01 0.44 1.27 0.093 0.26 0.223 0.52 0.39 0.78v0c0 0.1 0.023 0.263 0.07 0.49 0.053 0.227 0.127 0.463 0.22 0.71 0.1 0.24 0.197 0.467 0.29 0.68 0.1 0.213 0.2 0.337 0.3 0.37v0c0.093-0.067 0.15-0.167 0.17-0.3 0.013-0.127 0.07-0.24 0.17-0.34v0c0.033-0.36 0.09-0.8 0.17-1.32 0.08-0.52 0.203-0.943 0.37-1.27v0c0-0.16 0.04-0.46 0.12-0.9 0.08-0.44 0.187-0.913 0.32-1.42 0.127-0.5 0.247-0.963 0.36-1.39 0.113-0.42 0.22-0.68 0.32-0.78v0c0.067-0.42 0.123-0.68 0.17-0.78 0.047-0.1 0.103-0.18 0.17-0.24v0c0.033-0.267 0.1-0.513 0.2-0.74 0.093-0.227 0.157-0.47 0.19-0.73v0c0.067-0.553 0.15-1.01 0.25-1.37 0.093-0.353 0.223-0.79 0.39-1.31v0c0.127-0.46 0.247-0.927 0.36-1.4 0.113-0.467 0.253-0.93 0.42-1.39v0c0.387-1.233 0.737-2.33 1.05-3.29 0.307-0.96 0.69-1.897 1.15-2.81v0c0.093-0.293 0.173-0.473 0.24-0.54 0.067-0.067 0.13-0.13 0.19-0.19v0c0.267-0.1 0.537-0.15 0.81-0.15 0.28 0 0.563 0.017 0.85 0.05v0c0.327-0.133 0.573-0.28 0.74-0.44v0c0.127 0.16 0.32 0.24 0.58 0.24v0c0.327 0 0.557-0.097 0.69-0.29v0c0.127 0.067 0.23 0.083 0.31 0.05 0.087-0.033 0.21-0.017 0.37 0.05v0c0.067-0.067 0.147-0.14 0.24-0.22 0.1-0.08 0.2-0.12 0.3-0.12v0c0.26 0.32 0.463 0.57 0.61 0.75 0.147 0.18 0.253 0.383 0.32 0.61v0c0.093 0.293 0.15 0.613 0.17 0.96 0.013 0.34 0.1 0.657 0.26 0.95v0c-0.027 0.42 0 1.063 0.08 1.93 0.08 0.86 0.177 1.77 0.29 2.73 0.113 0.96 0.237 1.847 0.37 2.66 0.127 0.813 0.24 1.32 0.34 1.52v0c-0.033 0.42-0.017 0.777 0.05 1.07 0.067 0.293 0.1 0.587 0.1 0.88v0c0 0.093 0.013 0.297 0.04 0.61 0.033 0.307 0.067 0.633 0.1 0.98 0.033 0.34 0.073 0.663 0.12 0.97 0.053 0.313 0.097 0.533 0.13 0.66v0c0 0.587 0.097 1.043 0.29 1.37v0c0.16 0.813 0.297 1.627 0.41 2.44 0.113 0.813 0.22 1.643 0.32 2.49v0c0.067 0.42 0.107 0.827 0.12 1.22 0.02 0.393 0.063 0.8 0.13 1.22v0c0.027 0.167 0.067 0.33 0.12 0.49 0.047 0.16 0.087 0.323 0.12 0.49v0c0.067 0.327 0.117 0.637 0.15 0.93 0.027 0.293 0.073 0.583 0.14 0.87v0c0.033 0.167 0.083 0.34 0.15 0.52 0.067 0.18 0.067 0.367 0 0.56v0c0.067 0.227 0.09 0.47 0.07 0.73-0.013 0.26 0.043 0.487 0.17 0.68v0c0 0.687 0.05 1.29 0.15 1.81v0c0.033 0.393 0.13 0.783 0.29 1.17v0c0.067 0.393 0.123 0.8 0.17 1.22 0.053 0.427 0.11 0.85 0.17 1.27zM153.76 40.9l-0.34-0.15c-0.1 0.067-0.197 0.13-0.29 0.19-0.1 0.067-0.2 0.133-0.3 0.2v0c-0.36 0.193-0.683 0.3-0.97 0.32-0.293 0.013-0.62 0.183-0.98 0.51v0c-0.133-0.16-0.23-0.24-0.29-0.24-0.067 0-0.183 0-0.35 0v0c-0.42 0-0.663-0.117-0.73-0.35v0c-0.127 0.033-0.33 0.117-0.61 0.25-0.273 0.127-0.477 0.223-0.61 0.29v0c0.293-0.42 0.49-0.747 0.59-0.98 0.093-0.227 0.15-0.437 0.17-0.63 0.013-0.193 0.03-0.397 0.05-0.61 0.013-0.213 0.087-0.513 0.22-0.9v0c0.06-0.133 0.107-0.267 0.14-0.4 0.033-0.127 0.083-0.27 0.15-0.43v0c0.16-0.493 0.297-1.047 0.41-1.66 0.12-0.62 0.31-1.16 0.57-1.62v0c0-0.553 0.12-1.073 0.36-1.56 0.247-0.487 0.45-0.99 0.61-1.51v0c0.067-0.2 0.157-0.397 0.27-0.59 0.113-0.193 0.203-0.387 0.27-0.58v0c0.127-0.327 0.233-0.647 0.32-0.96 0.08-0.307 0.17-0.607 0.27-0.9v0c0.26-0.947 0.52-1.883 0.78-2.81 0.26-0.927 0.503-1.86 0.73-2.8v0c0.033-0.167 0.073-0.347 0.12-0.54 0.047-0.193 0.103-0.373 0.17-0.54v0c0.167-0.487 0.273-0.983 0.32-1.49 0.047-0.507 0.2-0.987 0.46-1.44v0c-0.033-0.227-0.023-0.437 0.03-0.63 0.047-0.2 0.103-0.413 0.17-0.64 0.067-0.227 0.13-0.437 0.19-0.63 0.067-0.2 0.117-0.347 0.15-0.44v0c0.16-0.427 0.283-0.81 0.37-1.15 0.08-0.34 0.25-0.707 0.51-1.1v0c0 0 0.05-0.17 0.15-0.51 0.093-0.34 0.207-0.723 0.34-1.15 0.127-0.42 0.24-0.817 0.34-1.19 0.1-0.38 0.15-0.6 0.15-0.66v0c0.06-0.26 0.117-0.507 0.17-0.74 0.047-0.227 0.103-0.47 0.17-0.73v0c0.067-0.16 0.13-0.297 0.19-0.41 0.067-0.113 0.133-0.253 0.2-0.42v0c0.093-0.36 0.19-0.8 0.29-1.32 0.1-0.52 0.23-0.927 0.39-1.22v0c0.1-0.227 0.287-0.413 0.56-0.56 0.28-0.147 0.517-0.3 0.71-0.46v0c0.587 0.06 1.02 0.027 1.3-0.1 0.273-0.133 0.54-0.297 0.8-0.49v0c0.167 0.033 0.323 0.073 0.47 0.12 0.14 0.053 0.293 0.08 0.46 0.08v0c0.62 0.68 1.05 1.38 1.29 2.1 0.247 0.713 0.483 1.427 0.71 2.14v0c0.1 0.36 0.197 0.71 0.29 1.05 0.1 0.347 0.217 0.68 0.35 1v0c0.027 0.1 0.073 0.207 0.14 0.32 0.067 0.113 0.133 0.237 0.2 0.37v0c0.16 0.26 0.297 0.537 0.41 0.83 0.113 0.293 0.22 0.587 0.32 0.88v0c0.193 0.227 0.34 0.493 0.44 0.8 0.1 0.313 0.19 0.623 0.27 0.93 0.08 0.307 0.17 0.6 0.27 0.88 0.093 0.273 0.24 0.51 0.44 0.71v0c0.06 0.353 0.173 0.703 0.34 1.05 0.16 0.34 0.273 0.707 0.34 1.1v0c0.193 0.26 0.42 0.757 0.68 1.49 0.26 0.727 0.52 1.513 0.78 2.36 0.26 0.847 0.507 1.66 0.74 2.44 0.227 0.787 0.39 1.343 0.49 1.67v0c0.06 0.26 0.19 0.593 0.39 1 0.193 0.407 0.37 0.77 0.53 1.09v0c0.133 0.36 0.273 0.737 0.42 1.13 0.147 0.387 0.267 0.76 0.36 1.12v0c0.067 0.36 0.14 0.703 0.22 1.03 0.087 0.32 0.177 0.66 0.27 1.02v0c0.067 0.227 0.167 0.43 0.3 0.61 0.127 0.18 0.223 0.4 0.29 0.66v0c0.127 0.26 0.217 0.503 0.27 0.73 0.047 0.233 0.15 0.48 0.31 0.74v0c-0.027 0.353-0.01 0.58 0.05 0.68 0.067 0.1 0.133 0.213 0.2 0.34v0c0.127 0.687 0.273 1.233 0.44 1.64 0.16 0.407 0.24 0.837 0.24 1.29v0c0 0.393-0.073 0.637-0.22 0.73-0.147 0.1-0.333 0.263-0.56 0.49v0c-0.26 0.227-0.48 0.407-0.66 0.54-0.18 0.127-0.447 0.19-0.8 0.19v0c-0.393-0.027-0.63 0.033-0.71 0.18-0.08 0.14-0.137 0.243-0.17 0.31v0c-0.393-0.033-0.647-0.04-0.76-0.02-0.113 0.013-0.227 0.02-0.34 0.02-0.113 0-0.227 0.027-0.34 0.08-0.113 0.047-0.237 0.15-0.37 0.31v0c-0.227-0.26-0.447-0.493-0.66-0.7-0.213-0.213-0.4-0.45-0.56-0.71v0c0-0.553-0.073-1.207-0.22-1.96-0.147-0.747-0.3-1.33-0.46-1.75v0c-0.327-0.847-0.63-1.677-0.91-2.49-0.273-0.813-0.54-1.643-0.8-2.49v0c-0.1-0.36-0.207-0.687-0.32-0.98-0.113-0.293-0.237-0.603-0.37-0.93v0c0.067 0.26 0.093 0.53 0.08 0.81-0.02 0.273-0.11 0.54-0.27 0.8v0c-0.067 0.067-0.163 0.15-0.29 0.25-0.133 0.093-0.2 0.173-0.2 0.24v0c-0.393 0.327-0.737 0.637-1.03 0.93v0c0.033 0.587-0.047 0.993-0.24 1.22-0.193 0.227-0.403 0.437-0.63 0.63v0c-0.553 0.033-0.897 0.003-1.03-0.09-0.133-0.1-0.313-0.167-0.54-0.2v0c-0.127-0.033-0.257-0.04-0.39-0.02-0.127 0.013-0.257 0.02-0.39 0.02v0c-0.26 0-0.503-0.063-0.73-0.19v0c-0.1-0.067-0.173-0.133-0.22-0.2-0.047-0.067-0.103-0.13-0.17-0.19v0c-0.26-0.267-0.56-0.487-0.9-0.66-0.347-0.18-0.683-0.337-1.01-0.47v0c-0.26-0.227-0.527-0.463-0.8-0.71-0.28-0.24-0.567-0.443-0.86-0.61v0c-0.26 0.62-0.463 1.167-0.61 1.64-0.147 0.473-0.317 0.937-0.51 1.39v0c-0.36 1.107-0.653 2.077-0.88 2.91-0.227 0.827-0.487 1.663-0.78 2.51v0c-0.127 0.033-0.25 0.083-0.37 0.15-0.113 0.067-0.25 0.1-0.41 0.1zM158.01 30.35h0.19c0.26-0.46 0.497-0.713 0.71-0.76 0.213-0.047 0.4-0.167 0.56-0.36v0c0.067-0.067 0.14-0.15 0.22-0.25 0.08-0.1 0.17-0.197 0.27-0.29v0c0.1-0.067 0.213-0.133 0.34-0.2 0.133-0.06 0.247-0.14 0.34-0.24v0c0.267-0.227 0.487-0.423 0.66-0.59 0.18-0.16 0.45-0.24 0.81-0.24v0c0.553 0 1.01 0.137 1.37 0.41 0.353 0.28 0.79 0.47 1.31 0.57v0c0.067 0.193 0.28 0.33 0.64 0.41 0.36 0.08 0.637 0.187 0.83 0.32v0c-0.327-0.813-0.58-1.637-0.76-2.47-0.18-0.827-0.4-1.647-0.66-2.46v0c-0.193-0.72-0.42-1.43-0.68-2.13-0.26-0.7-0.52-1.373-0.78-2.02v0c-0.227-0.653-0.423-1.29-0.59-1.91-0.16-0.62-0.37-1.223-0.63-1.81v0c-0.26 0.587-0.52 1.303-0.78 2.15-0.26 0.847-0.457 1.597-0.59 2.25v0c0 0.293-0.017 0.52-0.05 0.68v0c-0.067 0.227-0.13 0.43-0.19 0.61-0.067 0.18-0.133 0.367-0.2 0.56v0c-0.42 1.273-0.803 2.56-1.15 3.86-0.34 1.307-0.737 2.61-1.19 3.91zM198.83 6.62v0c-0.067 0.127-0.093 0.257-0.08 0.39 0.02 0.127 0.03 0.273 0.03 0.44v0c-0.067 0.387-0.067 0.58 0 0.58 0.067 0 0.1 0.033 0.1 0.1v0l-0.34 0.49c0 0.193-0.043 0.373-0.13 0.54-0.08 0.16-0.103 0.353-0.07 0.58v0c-0.1 0.167-0.19 0.33-0.27 0.49-0.08 0.167-0.2 0.33-0.36 0.49v0h-0.64c-0.36 0-0.743 0.023-1.15 0.07-0.407 0.053-0.803 0.08-1.19 0.08v0c-0.067 0-0.15-0.01-0.25-0.03-0.093-0.013-0.19-0.02-0.29-0.02v0c-0.067 0-0.147 0.007-0.24 0.02-0.1 0.02-0.217 0.03-0.35 0.03v0c-0.487 0-0.967-0.027-1.44-0.08-0.467-0.047-0.963-0.07-1.49-0.07v0c-0.127 0-0.257 0-0.39 0-0.127 0-0.273 0.017-0.44 0.05v0c-0.033 0.553-0.057 1.113-0.07 1.68-0.013 0.573-0.02 1.153-0.02 1.74v0c0 0.16-0.017 0.33-0.05 0.51-0.033 0.18-0.05 0.35-0.05 0.51v0c-0.033 0.427-0.057 0.833-0.07 1.22-0.02 0.393-0.03 0.8-0.03 1.22v0c0 0.913 0.01 1.827 0.03 2.74 0.013 0.907 0.037 1.833 0.07 2.78v0c0.033 0.487 0.067 0.96 0.1 1.42 0.027 0.453 0.04 0.923 0.04 1.41v0c0 1.107-0.013 2.207-0.04 3.3-0.033 1.087-0.05 2.183-0.05 3.29v0c0 0.36-0.017 0.697-0.05 1.01-0.033 0.307-0.05 0.64-0.05 1v0c0 0.747 0.017 1.493 0.05 2.24 0.033 0.753 0.05 1.503 0.05 2.25v0c0 0.36-0.01 0.717-0.03 1.07-0.013 0.36-0.02 0.72-0.02 1.08v0c-0.167 0.26-0.28 0.487-0.34 0.68-0.067 0.193-0.263 0.29-0.59 0.29v0c-0.227-0.06-0.333-0.133-0.32-0.22 0.02-0.08-0.003-0.153-0.07-0.22v0c-0.293-0.027-0.513 0-0.66 0.08-0.147 0.08-0.317 0.153-0.51 0.22v0c-0.1-0.033-0.207-0.05-0.32-0.05-0.113 0-0.22 0-0.32 0v0c-0.06 0-0.123 0.023-0.19 0.07-0.067 0.047-0.213 0.07-0.44 0.07v0c-0.193 0.033-0.307 0.003-0.34-0.09-0.033-0.1-0.133-0.15-0.3-0.15v0c-0.16 0.1-0.347 0.173-0.56 0.22-0.207 0.047-0.41 0.07-0.61 0.07v0c-0.193-0.127-0.283-0.247-0.27-0.36 0.02-0.113-0.003-0.237-0.07-0.37v0c-0.033-0.067-0.09-0.157-0.17-0.27-0.08-0.113-0.153-0.203-0.22-0.27v0c0.067-0.453 0.117-0.86 0.15-1.22 0.027-0.353 0.04-0.743 0.04-1.17v0c0-0.847-0.03-1.677-0.09-2.49-0.067-0.813-0.1-1.643-0.1-2.49v0c0-0.26 0.033-0.537 0.1-0.83 0.06-0.293 0.09-0.603 0.09-0.93v0c-0.06-0.26-0.073-0.413-0.04-0.46 0.027-0.047 0.04-0.103 0.04-0.17v0c0-0.193-0.007-0.39-0.02-0.59-0.013-0.193-0.02-0.387-0.02-0.58v0c0-0.393 0.007-0.787 0.02-1.18 0.013-0.387 0.02-0.777 0.02-1.17v0c0-0.16-0.007-0.33-0.02-0.51-0.013-0.18-0.02-0.35-0.02-0.51v0c-0.033-0.293-0.043-0.603-0.03-0.93 0.02-0.327 0.03-0.653 0.03-0.98v0c0-1.56-0.027-3.107-0.08-4.64-0.047-1.527-0.07-3.07-0.07-4.63v0c0-0.753 0.04-1.52 0.12-2.3 0.08-0.78 0.12-1.56 0.12-2.34v0c0-0.1-0.03-0.23-0.09-0.39-0.067-0.167-0.133-0.283-0.2-0.35v0c-0.16 0-0.313-0.007-0.46-0.02-0.147-0.013-0.303-0.02-0.47-0.02v0c-0.353 0-0.693 0.047-1.02 0.14v0c-0.62 0.033-1.213 0.073-1.78 0.12-0.573 0.053-1.153 0.097-1.74 0.13v0c-0.387-0.033-0.623-0.043-0.71-0.03-0.08 0.02-0.167 0.03-0.26 0.03v0c-0.267 0-0.463-0.067-0.59-0.2v0-0.63c-0.193-0.393-0.273-0.607-0.24-0.64 0.027-0.033 0.04-0.08 0.04-0.14v0c0-0.1-0.087-0.207-0.26-0.32-0.18-0.113-0.27-0.3-0.27-0.56v0c-0.033-0.26-0.1-0.457-0.2-0.59-0.093-0.133-0.14-0.263-0.14-0.39v0c0-0.227 0.047-0.487 0.14-0.78v0c0.293-0.167 0.58-0.28 0.86-0.34 0.273-0.067 0.59-0.15 0.95-0.25v0c0.193-0.067 0.373-0.13 0.54-0.19 0.16-0.067 0.337-0.117 0.53-0.15v0c0.227-0.033 0.457-0.05 0.69-0.05 0.227 0 0.453-0.017 0.68-0.05v0c0.487-0.093 1-0.173 1.54-0.24 0.533-0.067 1.047-0.1 1.54-0.1v0c0.453 0 0.907 0.057 1.36 0.17 0.46 0.113 0.867 0.17 1.22 0.17v0c0.527 0 1.023 0.033 1.49 0.1 0.473 0.067 0.97 0.1 1.49 0.1v0c0.067 0 0.173 0.023 0.32 0.07 0.147 0.047 0.317 0.07 0.51 0.07v0h4.74c0.26 0.067 0.447 0.083 0.56 0.05 0.113-0.033 0.22-0.05 0.32-0.05v0c0.26 0 0.503 0.017 0.73 0.05 0.227 0.033 0.47 0.05 0.73 0.05v0c0.227 0 0.407-0.017 0.54-0.05v0c0.26 0.033 0.503 0.107 0.73 0.22 0.227 0.113 0.487 0.17 0.78 0.17v0c0.133 0.1 0.233 0.223 0.3 0.37 0.06 0.147 0.173 0.253 0.34 0.32zM218.26 34.69v0c0.26 0.427 0.457 0.833 0.59 1.22 0.127 0.393 0.19 0.67 0.19 0.83v0c0 0.233-0.04 0.423-0.12 0.57-0.08 0.147-0.187 0.3-0.32 0.46v0c-1.3 0.553-2.593 1.067-3.88 1.54-1.287 0.473-2.597 0.937-3.93 1.39v0c-0.327 0.1-0.643 0.207-0.95 0.32-0.307 0.113-0.64 0.203-1 0.27v0c-0.067 0.06-0.18 0.123-0.34 0.19-0.167 0.067-0.357 0.133-0.57 0.2-0.207 0.06-0.41 0.117-0.61 0.17-0.193 0.047-0.323 0.07-0.39 0.07v0c-0.06-0.16-0.123-0.257-0.19-0.29-0.067-0.033-0.133-0.067-0.2-0.1v0c-0.16 0-0.263 0.057-0.31 0.17-0.053 0.113-0.16 0.203-0.32 0.27v0c-0.167 0-0.313 0.007-0.44 0.02-0.133 0.02-0.247-0.003-0.34-0.07v0c-0.26 0.067-0.497 0.18-0.71 0.34-0.213 0.167-0.45 0.28-0.71 0.34v0c-0.487-0.127-0.787-0.183-0.9-0.17-0.113 0.02-0.237 0.047-0.37 0.08v0c-0.227-0.2-0.333-0.477-0.32-0.83 0.02-0.36-0.067-0.653-0.26-0.88v0c0-0.427-0.033-0.663-0.1-0.71-0.067-0.047-0.1-0.103-0.1-0.17v0c0-0.227 0.017-0.44 0.05-0.64 0.033-0.193 0.017-0.403-0.05-0.63v0c0.133-0.553 0.183-1.09 0.15-1.61-0.033-0.52-0.017-1.04 0.05-1.56v0c0-0.167 0.007-0.323 0.02-0.47 0.013-0.147 0.02-0.3 0.02-0.46v0c0-0.487 0.033-0.79 0.1-0.91 0.067-0.113 0.1-0.25 0.1-0.41v0c0-0.227-0.007-0.447-0.02-0.66-0.02-0.213-0.03-0.45-0.03-0.71v0c0-0.453 0.01-0.9 0.03-1.34 0.013-0.44 0.02-0.903 0.02-1.39v0c0-1.24-0.08-2.477-0.24-3.71-0.167-1.24-0.25-2.477-0.25-3.71v0c0-1.5-0.08-2.983-0.24-4.45-0.167-1.46-0.25-2.94-0.25-4.44v0c0-0.26 0-0.627 0-1.1 0-0.473 0-0.96 0-1.46 0-0.507 0.01-0.987 0.03-1.44 0.013-0.46 0.037-0.787 0.07-0.98v0c0-0.033 0.097-0.083 0.29-0.15 0.2-0.067 0.33-0.1 0.39-0.1v0c0.167 0 0.297 0.043 0.39 0.13 0.1 0.08 0.217 0.153 0.35 0.22v0c0.587-0.067 0.937-0.123 1.05-0.17 0.113-0.053 0.203-0.08 0.27-0.08v0c0.193 0 0.347 0.05 0.46 0.15 0.113 0.1 0.203 0.15 0.27 0.15v0c0.553-0.133 0.853-0.15 0.9-0.05 0.047 0.093 0.153 0.14 0.32 0.14v0c0.42-0.127 0.68-0.173 0.78-0.14 0.1 0.033 0.197 0.05 0.29 0.05v0c0.167 0 0.347-0.06 0.54-0.18 0.193-0.113 0.373-0.2 0.54-0.26v0c0.553-0.167 1.007-0.33 1.36-0.49v0c0.493-0.293 0.86-0.49 1.1-0.59 0.247-0.1 0.5-0.213 0.76-0.34v0c0.553-0.227 1.083-0.463 1.59-0.71 0.5-0.24 1.027-0.493 1.58-0.76v0c0.1 0 0.207-0.007 0.32-0.02 0.113-0.013 0.203-0.053 0.27-0.12v0c0.1 0.033 0.207 0.05 0.32 0.05 0.113 0 0.217 0 0.31 0v0c0.327 0.127 0.54 0.207 0.64 0.24v0c0.127 0.193 0.247 0.38 0.36 0.56 0.12 0.18 0.26 0.353 0.42 0.52v0c0.16 0.287 0.29 0.43 0.39 0.43v0c0 0.1-0.05 0.207-0.15 0.32-0.093 0.113-0.14 0.22-0.14 0.32v0c0.26 0.453 0.47 0.877 0.63 1.27 0.167 0.393 0.25 0.67 0.25 0.83v0c0 0.227-0.033 0.413-0.1 0.56-0.067 0.147-0.15 0.3-0.25 0.46v0c-1.233 0.587-2.477 1.167-3.73 1.74-1.253 0.567-2.53 1.127-3.83 1.68v0c-0.327 0.133-0.637 0.273-0.93 0.42-0.293 0.147-0.62 0.253-0.98 0.32v0c-0.067 0.06-0.213 0.117-0.44 0.17-0.227 0.047-0.403 0.07-0.53 0.07v0c0.06 0.553 0.1 1.097 0.12 1.63 0.013 0.54 0.037 1.087 0.07 1.64v0c0.033 0.453 0.09 0.933 0.17 1.44 0.08 0.507 0.153 1.003 0.22 1.49v0c1.073-0.453 2.14-0.91 3.2-1.37 1.06-0.453 2.127-0.907 3.2-1.36v0c0.193 0.027 0.397 0.057 0.61 0.09 0.213 0.033 0.417 0.083 0.61 0.15v0c0.067 0.067 0.13 0.147 0.19 0.24 0.067 0.1 0.15 0.183 0.25 0.25v0c-0.033 0.16 0.073 0.403 0.32 0.73 0.24 0.327 0.36 0.57 0.36 0.73v0c0 0.26 0.033 0.417 0.1 0.47 0.067 0.047 0.13 0.183 0.19 0.41v0c0.033 0.327 0.033 0.507 0 0.54v0c0.167 0.16 0.3 0.323 0.4 0.49 0.093 0.16 0.14 0.353 0.14 0.58v0c-0.453 0.553-0.91 0.92-1.37 1.1-0.453 0.18-0.907 0.367-1.36 0.56v0c-0.167 0.067-0.34 0.157-0.52 0.27-0.173 0.113-0.343 0.203-0.51 0.27v0c-0.26 0.1-0.51 0.19-0.75 0.27-0.247 0.08-0.5 0.187-0.76 0.32v0c-0.427 0.227-0.86 0.477-1.3 0.75-0.433 0.28-0.88 0.47-1.34 0.57v0c-0.36 0.093-0.597 0.197-0.71 0.31-0.113 0.113-0.3 0.27-0.56 0.47v0 1.31 2.45c0 0.32 0 0.653 0 1 0 0.34-0.017 0.69-0.05 1.05v0c-0.06 0.327-0.09 0.603-0.09 0.83v0 0.78c0.16-0.067 0.32-0.123 0.48-0.17 0.167-0.053 0.33-0.11 0.49-0.17v0c0.133-0.033 0.257-0.05 0.37-0.05 0.113 0 0.233-0.033 0.36-0.1v0c0.167-0.033 0.3-0.067 0.4-0.1 0.093-0.033 0.207-0.08 0.34-0.14v0c0.487-0.26 0.86-0.433 1.12-0.52 0.26-0.08 0.52-0.17 0.78-0.27v0c0.553-0.193 1.09-0.397 1.61-0.61 0.52-0.207 1.043-0.41 1.57-0.61v0c0.32 0.067 0.547 0.02 0.68-0.14v0c0.16 0.033 0.297 0.063 0.41 0.09 0.113 0.033 0.253 0.05 0.42 0.05v0c0.387 0.36 0.63 0.637 0.73 0.83 0.1 0.2 0.23 0.38 0.39 0.54v0c0.167 0.293 0.28 0.44 0.34 0.44v0c0 0.067-0.047 0.173-0.14 0.32-0.1 0.147-0.167 0.267-0.2 0.36zM234.18 5.2v0c0.227 0.427 0.34 0.917 0.34 1.47v0c0 0.487-0.097 1.007-0.29 1.56-0.193 0.553-0.503 0.977-0.93 1.27v0c-0.293 0.653-0.577 1.183-0.85 1.59-0.28 0.407-0.55 0.803-0.81 1.19v0c-0.1 0.227-0.197 0.447-0.29 0.66-0.1 0.213-0.23 0.433-0.39 0.66v0c-0.1 0.16-0.313 0.487-0.64 0.98-0.327 0.487-0.66 0.997-1 1.53-0.34 0.54-0.64 1.053-0.9 1.54-0.26 0.493-0.39 0.803-0.39 0.93v0c0 0.133 0.153 0.297 0.46 0.49 0.313 0.193 0.517 0.34 0.61 0.44v0c0.167 0.16 0.323 0.323 0.47 0.49 0.147 0.16 0.3 0.323 0.46 0.49v0c0.36 0.287 0.71 0.577 1.05 0.87 0.34 0.293 0.69 0.62 1.05 0.98v0c0.68 0.62 1.397 1.207 2.15 1.76 0.747 0.553 1.413 1.203 2 1.95v0c0.553 0.167 0.91 0.557 1.07 1.17 0.167 0.62 0.217 1.207 0.15 1.76v0c0.067 0.1 0.123 0.197 0.17 0.29 0.047 0.1 0.103 0.217 0.17 0.35v0c0 0.52-0.073 0.9-0.22 1.14-0.147 0.247-0.3 0.55-0.46 0.91v0c-0.167 0.32-0.273 0.643-0.32 0.97-0.047 0.327-0.153 0.62-0.32 0.88v0c-0.06 0.1-0.15 0.183-0.27 0.25-0.113 0.06-0.2 0.157-0.26 0.29v0c-0.133 0.227-0.24 0.493-0.32 0.8-0.08 0.313-0.187 0.6-0.32 0.86v0c-0.093 0.26-0.213 0.52-0.36 0.78-0.147 0.26-0.27 0.52-0.37 0.78v0c-0.067 0.167-0.123 0.363-0.17 0.59-0.047 0.227-0.203 0.39-0.47 0.49v0c-0.16 0.587-0.377 1.157-0.65 1.71-0.28 0.553-0.5 1.12-0.66 1.7v0c-0.293 0.1-0.66 0.29-1.1 0.57-0.44 0.273-0.79 0.41-1.05 0.41v0c-0.1 0-0.183-0.05-0.25-0.15-0.06-0.093-0.157-0.173-0.29-0.24v0c-0.067-0.033-0.157-0.033-0.27 0-0.113 0.033-0.203 0.05-0.27 0.05v0c-0.16 0-0.28-0.067-0.36-0.2-0.08-0.127-0.187-0.223-0.32-0.29v0c-0.1 0.033-0.197 0.067-0.29 0.1-0.1 0.033-0.2 0.05-0.3 0.05v0c-0.227 0-0.357-0.057-0.39-0.17-0.033-0.113-0.13-0.22-0.29-0.32v0c-0.393-0.193-0.62-0.373-0.68-0.54-0.067-0.16-0.167-0.273-0.3-0.34v0c0.233-0.847 0.543-1.653 0.93-2.42 0.393-0.76 0.767-1.533 1.12-2.32v0c0.1-0.26 0.223-0.503 0.37-0.73 0.147-0.227 0.287-0.47 0.42-0.73v0c0.093-0.227 0.24-0.52 0.44-0.88 0.193-0.36 0.37-0.733 0.53-1.12 0.167-0.393 0.313-0.76 0.44-1.1 0.133-0.34 0.2-0.627 0.2-0.86v0c0-0.453-0.13-0.793-0.39-1.02v0c-0.947-0.78-1.833-1.577-2.66-2.39-0.833-0.82-1.707-1.65-2.62-2.49v0c-0.587-0.527-1.22-1.067-1.9-1.62v0c-0.133-0.093-0.23-0.24-0.29-0.44-0.067-0.193-0.167-0.37-0.3-0.53v0c-0.06-0.133-0.157-0.233-0.29-0.3-0.133-0.06-0.23-0.157-0.29-0.29v0c-0.1-0.127-0.167-0.28-0.2-0.46-0.033-0.18-0.13-0.32-0.29-0.42v0c-0.167-0.16-0.363-0.257-0.59-0.29-0.227-0.033-0.42-0.13-0.58-0.29v0c0.093-0.1 0.133-0.207 0.12-0.32-0.02-0.113-0.03-0.22-0.03-0.32v0c0-0.227 0.1-0.39 0.3-0.49 0.193-0.093 0.29-0.27 0.29-0.53v0c0.133-0.26 0.23-0.423 0.29-0.49v0c0.36-0.88 0.767-1.727 1.22-2.54 0.46-0.813 0.933-1.627 1.42-2.44v0c0.16-0.26 0.313-0.513 0.46-0.76 0.147-0.247 0.303-0.5 0.47-0.76v0c0.093-0.227 0.183-0.43 0.27-0.61 0.08-0.173 0.2-0.343 0.36-0.51v0c0.46-0.52 0.843-1.007 1.15-1.46 0.307-0.46 0.543-1.013 0.71-1.66v0c0.033-0.167 0.097-0.397 0.19-0.69 0.1-0.293 0.223-0.587 0.37-0.88 0.147-0.293 0.3-0.553 0.46-0.78 0.167-0.227 0.347-0.34 0.54-0.34v0c0.16 0 0.397 0.067 0.71 0.2 0.307 0.127 0.573 0.223 0.8 0.29v0c0.2 0.067 0.403 0.123 0.61 0.17 0.213 0.047 0.417 0.07 0.61 0.07v0c0.133 0 0.267-0.04 0.4-0.12 0.127-0.08 0.27-0.12 0.43-0.12v0c0.267 0 0.513 0.04 0.74 0.12 0.227 0.08 0.47 0.137 0.73 0.17z"
                                                                      fill="#ffffff" stroke="none"
                                                                      stroke-width="1"
                                                                      stroke-miterlimit="10"
                                                                      stroke-dasharray="" stroke-dashoffset="0"

                                                                      style="mix-blend-mode: normal"
                                                                      opacity="1"/>
                                                            </g>
                                                        </svg>
                                                    </g>
                                                </svg>
                                            </g>
                                        </svg>
                                    </g>
                                </svg>
                            </g>
                            <g transform="matrix(1,0,0,1,0,0.3442141105198431)">
                                <svg viewBox="0 0 85.3316457994408 137.68564420794104" height="137.68564420794104"
                                     width="85.3316457994408">
                                    <g>
                                        <svg xmlns="http://www.w3.org/2000/svg" version="1.1" x="0" y="0"
                                             viewBox="23.317630767822266 3.858999729156494 57.0461540222168 92.0459976196289"
                                             enable-background="new 0 0 100 100" height="137.68564420794104"
                                             width="85.3316457994408" class="icon-icon-0"
                                             id="icon-0">
                                            <circle fill="#ffffff" cx="55.535" cy="30.386" r="6.9"
                                            />
                                            <circle fill="#ffffff" cx="40.39" cy="6.497" r="2.6"
                                            />
                                            <path fill="#ffffff"
                                                  d="M77.786 31.994l-1.44-2.01c0.012-0.016 0.018-0.034 0.028-0.048-0.027-0.004-0.049-0.008-0.057-0.009-0.005 0-0.009 0-0.012 0l-3.53-4.936-1.322-1.94c-1.055-1.535-0.112-4.603-0.082-4.727 0.592-2.127 0.138-4.508-1.248-6.551-1.257-1.844-3.126-3.127-5.125-3.521-1.564-0.298-3.102 0-4.313 0.823-0.942 0.638-1.657 1.563-2.074 2.681-0.006 0.015-0.274 1.005-0.274 1.005-0.382 2.019 0.121 4.219 1.373 6.078 1.267 1.863 3.122 3.141 5.127 3.52l0.473 0.076c0.042-0.01 1.793 0.091 3.113 0.741l7.343 10.263c0.225 0.313 0.567 0.492 0.924 0.516 0.278 0.02 0.564-0.054 0.811-0.229C78.056 33.329 78.186 32.553 77.786 31.994zM65.204 20.384c-1.473-0.279-2.869-1.252-3.814-2.678-0.964-1.417-1.354-3.07-1.073-4.542l0.199-0.713c0.268-0.722 0.701-1.297 1.307-1.708 1.951-1.319 4.924-0.346 6.636 2.171 1.696 2.51 1.503 5.64-0.448 6.958C67.227 20.402 66.254 20.577 65.204 20.384z"
                                            />
                                            <path fill="#ffffff"
                                                  d="M79.168 32.888c-1.355-1.056-3.305-0.813-4.36 0.54l-8.276 10.616-9.665-2.461-11.967-8.563c-0.145-0.104-0.298-0.195-0.458-0.272l-7.935-3.826-3.092-14.999c-0.347-1.68-1.994-2.76-3.669-2.415-1.681 0.347-2.762 1.99-2.415 3.669l3.401 16.503c0.196 0.948 0.822 1.75 1.693 2.17l9.078 4.377 1.088 0.778L23.907 66.531c-0.578 0.853-0.741 1.92-0.444 2.905l7.247 24.037c0.446 1.478 1.802 2.432 3.271 2.432 0.326 0 0.658-0.047 0.987-0.147 1.807-0.544 2.83-2.45 2.285-4.257l-6.776-22.479 7.422-10.936L40.58 59.1l-4.818 10.689c-0.452 1.004-0.394 2.164 0.158 3.117l12.334 21.293c0.634 1.095 1.78 1.705 2.959 1.705 0.583 0 1.17-0.148 1.71-0.461 1.633-0.945 2.189-3.036 1.244-4.668L42.711 70.999l10.875-24.126 0.141 0.101c0.314 0.224 0.668 0.389 1.042 0.484l12.197 3.105c0.253 0.065 0.512 0.097 0.767 0.097 0.942-0.001 1.852-0.431 2.449-1.196l9.525-12.217C80.762 35.894 80.52 33.942 79.168 32.888z"
                                            />
                                            <path fill="#ffffff"
                                                  d="M71.026 15.58l-0.345-0.516-2.506 1.678-1.479-2.165 2.435-1.629-0.345-0.516-2.439 1.633-1.62-2.372 1.184-0.857-0.363-0.503-1.172 0.847-1.152-1.688-0.515 0.35 1.164 1.703-2.147 1.554-1.838-2.689-0.514 0.351 1.847 2.704-1.151 0.833 0.365 0.503 1.138-0.823 1.539 2.253-2.188 1.465 0.345 0.516 2.194-1.468 1.479 2.165-2.122 1.42 0.345 0.516 2.127-1.424 0.755 1.104 0.514-0.35-0.752-1.1 2.203-1.474 1.369 2.006 0.515-0.35-1.368-2.001L71.026 15.58zM62.074 13.612l2.148-1.555 1.606 2.354-2.201 1.474L62.074 13.612zM65.456 18.562l-1.479-2.164 2.203-1.475 1.479 2.165L65.456 18.562z"
                                            />
                                        </svg>
                                    </g>
                                </svg>
                            </g>
                        </svg>
                    </g>
                </svg>
                <rect width="395.52" height="105.90781834073938" fill="none" stroke="none" visibility="hidden"/>
            </g>
        </svg>
    </g>
</svg>