<svg version="1.2" xmlns="http://www.w3.org/2000/svg" viewBox="0 -32 1085 901" width="1085" height="901">
	<defs>
		<clipPath clipPathUnits="userSpaceOnUse" id="cp1">
			<path d="m445.48 924.5c-47.08-2.97-82.9-42.38-80.02-88.03 2.88-45.64 43.38-80.23 90.46-77.26 47.07 2.97 82.9 42.38 80.02 88.02-2.89 45.64-43.38 80.24-90.46 77.27z"/>
		</clipPath>
	</defs>
	<title>2521785-ai</title>
	<g id="OBJECTS" transform="matrix(1, 0, 0, 1, -105.640113, -367.292885)">
		<g >
			<g >
				<g >
					<path  fill-rule="evenodd" class="s0" d="M 1131.544 670.392 C 1207.789 926.573 995.2 1113 714.9 1173.6 C 411.3 1239.2 89.4 1001.1 108.4 898.2 C 125.8 803.6 427.4 845.9 475 707.1 C 530.9 544.3 244.763 614.658 301.263 442.058 C 341.363 319.358 700.932 340.266 732.834 345.567 C 978.233 386.346 1016.269 395.185 1131.602 670.318 M 879.4 1063.6 C 863.6 1074 862.8 1074.9 862.9 1075.4 C 863.6 1077.4 878.8 1075.8 893.9 1069.1 C 920.3 1057.4 914.9 1038.7 948.8 1021.5 C 953.3 1019.2 964.1 1014.1 970.2 1002.6 C 977 989.7 974.8 974.6 972 974 C 969.3 973.4 968.4 988.2 956.8 994.5 C 947.8 999.3 942.5 993.9 935.7 998.5 C 924.8 1006 930.6 1026.8 922.9 1028.3 C 916.1 1029.5 909.1 1015.5 902.9 1017.7 C 894.8 1020.4 902.1 1047 887.4 1058.4 C 887 1058.7 887.4 1058.4 879.4 1063.6 M 251.5 945.5 C 241.3 939.4 235.4 930.8 233.1 926.6 C 240.7 944.9 287.1 1058.6 382 1090.1 C 421.1 1103.1 465.3 1101 484.3 1100.2 C 534.2 1097.9 573.8 1085.3 573.5 1082.9 C 573.1 1080.7 542.4 1085.8 513.4 1080.2 C 491.1 1075.8 488 1070.8 469.9 1070.7 C 447.6 1070.5 439.6 1077.7 421.5 1072.8 C 406.9 1068.8 396.1 1059.9 390.9 1055.6 C 376.1 1043.3 376.6 1036.2 364.4 1030.3 C 350.7 1023.7 345.6 1030.4 334.6 1024.4 C 320.5 1016.6 326.7 1004 310.4 983.1 C 306.3 977.8 291.8 959.2 268.8 952 C 263.1 950.3 258.3 949.6 251.5 945.5 M 231.9 924 C 231.9 924.1 232.2 925 233.1 926.6 C 232.4 924.9 232 924 231.9 924 M 983.6 887.8 C 960.5 907.4 959.5 908.8 960.2 909.4 C 962.8 911.7 990.2 903.7 1014.4 889.2 C 1056.5 863.8 1034.1 841.9 1086.7 806.6 C 1093.8 801.9 1110.9 791 1114.8 773.9 C 1119.3 754.7 1105.2 736.2 1099.7 736.5 C 1094.1 736.8 1102.1 756.1 1084.2 768.8 C 1070.5 778.5 1056.9 773.6 1047.1 782.2 C 1031.5 796.2 1055.9 820.6 1042.4 825.4 C 1030.3 829.7 1008.1 814.5 997.8 819.7 C 984.4 826.4 1015.4 857.6 995.2 878 C 994.6 878.6 995.1 878 983.6 887.8 M 860.1 983.8 C 906.6 966.5 923.8 927.9 923.8 927.9 C 923.8 927.9 920.2 933.2 909.7 942 C 899.2 950.8 905.9 938.6 893.8 927.7 C 881.8 916.8 882.6 954.1 882.6 954.1 C 882.6 954.1 878.2 944.7 868.1 946.6 C 858 948.5 866.9 973.1 866.9 973.1 C 868.7 978.7 860.1 983.8 860.1 983.8" style="fill: rgb(207, 226, 255);"/>
					<path  class="s0" d="m334.5 1145.8c6.3 3.8 14.6 7.7 31.1 15.7 37.9 18.2 56.8 27.3 71.7 29.6 30.8 4.7 74.5 7.2 72.9 7.8-25 8.6-46.8 3.4-80.7 1.4-21.2-1.2-35.9-7.8-58.9-18.1-17.6-7.9-35.5-18.3-49.1-35.4-1.2-1.5-8.2-10.3-6.8-11.8 1.4-1.5 9.1 4.3 19.8 10.8z" style="fill: rgb(207, 226, 255);"/>
					<path  class="s0" d="m327.7 732.1c11.2-3.9 10.4-19.7 19-21.3 4.9-0.9 6 4.1 12.9 4.5 6.9 0.4 11-4.3 20.3-11.2 1.7-1.3 15-11.1 26.6-15.7 14.6-5.8 19.1 1.1 31.1-3.6 16.8-6.5 25-24.7 24.2-25.2-0.6-0.5-13.7 37.5-49.7 59.6-44.4 27.3-102.8 17.4-102.9 16.8 0-0.1 2-0.2 7.8-1.4 4.2-0.9 8.5-1.7 10.7-2.5z" style="fill: rgb(207, 226, 255);"/>
					<path  class="s0" d="m383.4 760.2c-10.2 1.1-31.4 17.9-59.8 22.5-9.9 1.6-10.4 0-22.6 1.7-17 2.2-8.9 3.1-63.8 17.5-35.7 9.4-72 14.7-71.8 15.1 0 0.3 10.2-1.4 10.3-1.5 0.3-0.4-53.8 6.6-54.9 7.5-0.9 0.8 31.5-1.4 65.9-5.9 75.2-9.8 174.1-32.1 196.9-47.7 8.4-5.7 5.5-9.9-0.2-9.2z" style="fill: rgb(207, 226, 255);"/>
				</g>
			</g>
			<g >
				<g >
					<path  class="s1" d="m285.8 654c11.2 33.6-10.4 71-48.1 83.5-37.7 12.5-77.3-4.7-88.4-38.4-11.2-33.6 10.4-71 48.1-83.5 37.7-12.5 77.3 4.7 88.4 38.4z" style="fill: rgb(198, 224, 58);"/>
					<path  class="s2" d="m288 661.3c-4.7 11.1-12.1 23.5-25.8 31.2-33.1 18.5-80.6-3.8-88.3-7.5-11.8-5.8-20.1-12-26.4-17.3-1.9 9.8-1.5 20 1.8 29.8 11.1 33.7 50.7 50.8 88.4 38.3 34.4-11.3 55.3-43.4 50.3-74.5z" style="fill: rgb(113, 207, 48);"/>
					<path  class="s2" d="m211.3 636.7c-20.3-4.8-46.3 9.2-59.5 17.6-1.2 2.6-2.2 5.3-3 8.1 8.8-6.1 39.6-25.8 61.4-20.7 7.6 1.9 13.3 6.6 17.1 14.3 10.7 21.5-2 32.4-14.2 42.9-8.9 7.7-18.1 15.6-14.2 26.8 2.4 6.7 8.6 10.6 18.5 11.6l0.5-5.2c-7.8-0.7-12.4-3.4-14.1-8.1-2.7-7.5 3.1-12.9 12.6-21.2 12.5-10.7 28-24 15.6-49-4.6-9.2-11.5-14.9-20.7-17.1z" style="fill: rgb(113, 207, 48);"/>
					<path  class="s3" d="m211.8 631.3c-20-4.6-44.2 8.7-57.2 17.3q-2.5 4.5-4.3 9.3c7.5-5.6 37.8-26.7 60.3-21.6 8.6 2 15.1 7.6 19.6 16.9 11.5 24.1-0.9 35.7-13 46.9-8.7 8.1-0.7 8.5 8.1-0.6 6.7-6.8 22.7-21 9.5-48.6-5.1-10.7-12.9-17.3-23-19.6z" style="fill: rgb(255, 255, 255);"/>
					<path  class="s1" d="m217.1 700.2c-8.7 8.1-17.7 16.4-13.4 28.6 1.8 5.2 5.5 8.8 11.1 11 5.7-0.1 11.5-0.9 17.3-2.4-10.8 0.9-21.7-5-23.5-10.3-3.1-8.6 2.6-14.4 12-23.2l4.8-4.4-3.6-0.3c-1.1-0.1-2.1-0.3-3.2-0.4z" style="fill: rgb(198, 224, 58);"/>
				</g>
				<g >
					<path  class="s4" d="m537.4 818.9c0 0-5.9-2.3-16.4 3.9-10.6 6.1-19.7 1.8-26.3 4.2-6.6 2.3-36.8 20.1-34.4 32.2 2.3 12 5.8 18.7 22.4 15.8 16.6-2.8 22.5-9.3 27.7-11.3 5.2-2 24.9-13.3 38-17.9 13.2-4.7 16.2-12.3 16.2-12.3z" style="fill: rgb(51, 51, 51);"/>
					<path  class="s5" d="m564.6 833.5l-5.9-3.2c-9.7 2.7-21.6 6.8-37.8 15.5-14.6 7.8-15.2 9.9-28.6 16-10.6 4.8-19.7 7.7-27.2 9.8 3.1 3.6 8.3 5 17.6 3.4 16.6-2.8 22.5-9.3 27.7-11.3 5.2-2 24.9-13.3 38-17.9 13.2-4.7 16.2-12.3 16.2-12.3z" style="fill: rgb(41, 41, 41);"/>
					<path  class="s6" d="m630.7 720.7c0 0-46.5 59.8-54.9 69.4-8.4 9.6-33.2 30.7-43.4 31.6 0 0-15.8 27.9 10.1 25.7 0 0 12.3-13.2 48.7-23.8 44.5-12.9 117.6-81.4 117.6-81.4 0 0-27.4-24.1-78.1-21.5z" style="fill: rgb(242, 135, 73);"/>
					<path  class="s7" d="m708.8 742.2c0 0-10.3-9.1-30-15.5-4.9 3-9.5 6.2-13.1 9.1-10.2 8-14.1 14.3-30.7 35.4-20.5 26.1-30.8 39.1-34.7 42.3-22.1 17.6-34.1 10-71.9 28.4 1.6 3.7 5.6 6.2 14.1 5.5 0 0 12.3-13.2 48.7-23.8 44.5-12.9 117.6-81.4 117.6-81.4z" style="fill: rgb(219, 122, 66);"/>
					<path  class="s8" d="m672.9 702.5c-1.1 6.4-4 12.4-8.2 17.4-55.8 66.1-70.6 78.7-73.1 76.8-4.2-3.1 24.5-47.2 26.2-49.9 2.5-3.8 43.4-65.9 53.7-60.6 1.9 1 3.3 4.8 1.4 16.3z" style="fill: rgb(255, 154, 97);"/>
					<path  class="s3" d="m614.1 513.4l-23.5 35.3c0 0 32.8 25.7 62 56 29.2 30.3 17.5 37.7 17.5 37.7 0 0 6.8 33.2 62.1 21.3 55.3-12 71.1-47.7 71.1-47.7 0 0-27.7-101.4-61.1-129.2q-1.4-1.2-2.9-2.2c-34.6-24.1-108.6-2.7-125.2 28.8z" style="fill: rgb(255, 255, 255);"/>
					<path  class="s3" d="m595.5 545.4c0 0-12.7 21.4 6.9 62.7 0 0 24.6-6.9 48.1 0.8 0 0-9.1-39.2-13.5-54.1-4.4-14.9-32.5-26.6-41.5-9.4z" style="fill: rgb(255, 255, 255);"/>
					<path  class="s3" d="m670.1 642.4c0 0-29.8 39.3-39.7 65 0 0 6.4-0.7 7.5 2.8l-7.1 10.5c0 0 46.1 3.6 64.1 14.5 18.1 11 24.5 22.5 41 21.7 0 0 6.8-12.9 12.6-27.9 5.8-15 20-45.2 37.2-34.8 19.2 11.6 50 41.3 55.3 48.6 0 0-11.4-20.3 9.9-25.1 13.5-3.1 9.8-28.4 9.8-28.4 0 0-26.3-53.4-57.4-73.3 0 0-73.3 86-133.2 26.4z" style="fill: rgb(255, 255, 255);"/>
					<path  class="s9" d="m630.4 707.4c0 0-1.6 3.3 2.7 5.1 0 0-3.1 1.2-2.3 8.2l7.1-10.5c0 0 0.2-3.5-7.5-2.8z" style="fill: rgb(190, 186, 246);"/>
					<g >
						<path  class="s6" d="m627.5 513.1c0 0 11.7 8.7 17.7 16.2l23.8 7.3c0 0 0.9-19.7-7.2-56.2l-15.1-15.2z" style="fill: rgb(242, 135, 73);"/>
						<g >
							<path  class="s4" d="m589 411.7c-13.5-7.7-26.6-11.1-38.9-10-5 0.4-8.9 1.4-12.4 2.4-5.4 1.4-10 2.6-16 1.2-10.3-2.3-19.2-11.1-26.2-26l2.8-1.4c6.7 14 14.8 22.2 24.1 24.4 5.3 1.2 9.3 0.1 14.5-1.3 3.6-0.9 7.7-2 12.9-2.5 13-1.1 26.7 2.4 40.7 10.4z" style="fill: rgb(51, 51, 51);"/>
							<path  class="s4" d="m635 406.3c-14.8 6.9-26.2 6.5-31.5 5.9-4-0.4-7.8-1.3-9-1.7-7.6-2.6-11.2-7-21.5-9.2-23.2-4.8-29.4 11.5-59.4 11.1-19-0.3-22.1-7-36.2-3.4-13.3 3.4-29.4 14-29.7 26.1-0.3 15.4 24.7 33.2 47.1 32.1 28.7-1.5 41.3-33.5 66.8-28 6.8 1.4 7.4 4 14.9 7.2 33.3 14.5 65.9-7.5 74.2-12.7 7.7-4.9 11.2-8.7 12-13.5 1.1-7.1-3.8-16.9-12.6-18.8-8.1-1.7-14.5 4.3-15.1 4.9z" style="fill: rgb(51, 51, 51);"/>
							<path  class="s5" d="m650.1 401.4c-8.1-1.7-14.5 4.3-15.1 4.9-2.8 1.3-5.4 2.3-7.9 3.1 0.3 0.9 0.6 1.8 0.9 2.7 4.8 10.7 15.9 16.6 27.4 18.3 4.5-3.4 6.7-6.5 7.3-10.2 1.1-7.1-3.8-16.9-12.6-18.8z" style="fill: rgb(41, 41, 41);"/>
							<path  class="s5" d="m595.9 451.1c4.3-2.3 8.2-5.5 11-8.8 6.8-8.4 8.7-20.1 7.4-30.1-4.7 0.5-8.4 0.3-10.8 0-4-0.4-7.8-1.3-9-1.7-4.8-1.6-8-4-12.2-6-1.9 2.7-3.1 5.6-3.3 8.4-0.2 4.2 2.1 6.7 0.4 10.2-2.9 5.8-11.7 3.4-14.5 8.2-1.3 2.2-1.1 5.5 0.1 8.9 3.9 1.5 5.5 3.7 11.5 6.2 6.5 2.9 13 4.3 19.4 4.7z" style="fill: rgb(41, 41, 41);"/>
							<path  class="s1" d="m648.9 423.1c-3.7 0-6.6-2.9-6.6-6.6 0-3.6 2.9-6.5 6.6-6.5 3.6 0 6.5 2.9 6.5 6.5 0 3.7-2.9 6.6-6.5 6.6z" style="fill: rgb(198, 224, 58);"/>
							<path  class="s7" d="m652.3 471.9l-24.8 41.2c0 0 8.4 7.7 15.6 15 10.5-32.4 9.2-56.2 9.2-56.2z" style="fill: rgb(219, 122, 66);"/>
							<path  class="s9" d="m619 514.9l21.2 19.9 28.8 1.8-19.8-8.9-23.7-19.3z" style="fill: rgb(190, 186, 246);"/>
							<path  class="s6" d="m589.3 461.4c0 0 17.2 53.4 32.6 60.7 0 0 32.7-15.4 33.2-49.2 0.6-33.7-23.2-42.1-32.9-40.1-9.6 2.1-29.4 6.6-32.9 28.6z" style="fill: rgb(242, 135, 73);"/>
							<path  class="s7" d="m645.1 454.6c-1.2-8.1-15.6-11.7-19.4-12.7-8.4-2.2-17.4-1.9-25.7 0.2-5.1 4.2-9.3 10.2-10.7 19.3 0 0 1.3 4.2 3.6 10.5q1.9 0 3.9 0.1c14.4 0.5 15.9 4.6 25 2.9 12-2.2 24.5-12.2 23.3-20.3z" style="fill: rgb(219, 122, 66);"/>
							<path  class="s4" d="m588.7 432.6c0 0 16.5-39.1 58.2-17.8 41.7 21.4 14.1 54.3 14.1 54.3z" style="fill: rgb(51, 51, 51);"/>
							<path  class="s5" d="m643.5 460.3l17.5 8.8c0 0 25.4-30.3-9.4-51.6 2.2 6.7 11.7 18 7.6 28.7-2.9 7.6-11 10.8-15.7 14.1z" style="fill: rgb(41, 41, 41);"/>
							<path  class="s9" d="m573.4 468.5c-0.9 3.1 2.3 6 5.2 4.7 1-0.5 2.2-1.3 3.5-2.6 6.2-6.4 7.5-8.3 7.5-8.3 0 0-13.3-3-16.2 6.2z" style="fill: rgb(190, 186, 246);"/>
							<path  class="s3" d="m587.5 452.2c0 0 6.8-7.7 52.5 0.8 0 0-13.4 19.5-27.3 16.5-14-3-20-8.7-29.3-7.2-9.4 1.6-10.1 7.1-10.1 7.1 0 0-1.5-5.2 14.2-17.2z" style="fill: rgb(255, 255, 255);"/>
							<path  class="s3" d="m587.5 452.2l-0.5-18.7c0 0 17.5-11.4 45.5 0.3 0 0 18.9 5.5 27.1 10.1l0.4 10.9c0 0-7.2-5-20-1.8 0 0-43.1-7.6-52.5-0.8z" style="fill: rgb(255, 255, 255);"/>
							<path  class="s7" d="m612.6 502.9l-11.6-2.2 2.2-19.4z" style="fill: rgb(219, 122, 66);"/>
							<path  class="s6" d="m650.5 466.4c0 0 3.4-14.4 9.4-8.4 5.9 6.1-4 27.1-8.2 22.2-4.1-4.8-1.2-13.8-1.2-13.8z" style="fill: rgb(242, 135, 73);"/>
							<path  class="s4" d="m442 428.9l-3-0.9c1.2-4.2 5.5-14.4 16.9-20.2 12.9-6.4 29.7-4.8 42.7 4.3l-1.8 2.6c-12.1-8.4-27.6-10-39.5-4-10.3 5.2-14.2 14.5-15.3 18.2z" style="fill: rgb(51, 51, 51);"/>
							<path  class="s9" d="m659.1 478l-4.9 46.1 14.8 12.5 2.6-58.9z" style="fill: rgb(190, 186, 246);"/>
						</g>
						<path  class="s8" d="m615.2 484.1c1.1-2.8 11.6-0.1 20.2-5.6 3.8-2.3 4.4-4.5 5.7-4.3 3.2 0.8 4.5 16.8-4.1 19.8-5.1 1.7-11.7-1.9-14.8-3.6-2.2-1.2-7.8-4.2-7-6.3z" style="fill: rgb(255, 154, 97);"/>
					</g>
					<path  class="s9" d="m803.3 616c0 0-19.7-72-45.8-111.3-9.3 5-18.3 10.9-27.1 17.8-0.1 30.9 9.2 45.9 17.9 53.9 12.4 11.2 24.2 9.1 35.9 24.2 8.3 10.7 6.1 16.8 11.8 26.7 5.2-6.6 7.3-11.3 7.3-11.3z" style="fill: rgb(190, 186, 246);"/>
					<path  class="s9" d="m803.3 616c0 0-3.1 3.7-8.6 9 1.1 2.2 2.6 4.6 4.7 7.4 12.6 16.6 23.8 12.1 31.6 23.9 12.6 18.9 6.7 54.6 7.3 72 1.2-2.3 3.7-8.6 12.6-10.6 13.5-3.1 9.8-28.4 9.8-28.4 0 0-26.3-53.4-57.4-73.3z" style="fill: rgb(190, 186, 246);"/>
					<path  class="s3" d="m695.3 487.7c0 0-11.8 55 76.8 60 0 0 22.1-12.8 11-51.5 0 0-76.4-39.2-87.8-8.5z" style="fill: rgb(255, 255, 255);"/>
					<path  class="s6" d="m783.1 496.2l51.2 23c12.5 5.5 21.9 16.3 25.8 29.4l19.3 64.9-23.8 30.1-21.2-59.2c-5.4-14.9-17.8-26.1-33.2-29.8l-29.1-6.9z" style="fill: rgb(242, 135, 73);"/>
					<g >
						<path  class="s6" d="m885.9 625.6l8.4-6.7 3.7 0.2-6.1 15.9" style="fill: rgb(242, 135, 73);"/>
						<path  class="s6" d="m865 684.6c0 0-15.9-19.1-7.2-52.1 0 0 0.5-13 21.2-19.6l29.8 42c0 0-24.1 45.3-43.8 29.7z" style="fill: rgb(242, 135, 73);"/>
						<path  class="s6" d="m873.3 682.9l-5.5 24.9-1.8-1.5c-2.3-2-3.5-4.9-3.4-7.9l0.8-21.3z" style="fill: rgb(242, 135, 73);"/>
						<path  class="s6" d="m907.6 653.5l25.6 27.5-4.6 0.5c-2.8 0.3-5.6-0.3-8-1.9l-25.4-16.1 10.9-9.8" style="fill: rgb(242, 135, 73);"/>
						<path  class="s6" d="m898.3 660.2l21.1 41.8-1.9 0.3c-3.6 0.5-7.1-0.7-9.6-3.3l-23.2-24.2 11.3-7.6" style="fill: rgb(242, 135, 73);"/>
						<path  class="s6" d="m887.4 677.1l9.8 33.5-1-0.1c-3.8-0.3-7.1-2.4-9.1-5.6l-13.8-22 9.6-4" style="fill: rgb(242, 135, 73);"/>
						<path  class="s7" d="m876.5 613.8c-0.3 2.9-0.4 7.2-0.7 23.9-0.3 15.9-0.5 17.4-1.3 19.9-1.2 3.9-4.5 11.5-14.2 18.9-3.9-8.6-7.9-23.7-2.5-44 0 0 0.5-11.9 18.7-18.7z" style="fill: rgb(219, 122, 66);"/>
						<path  class="s10" d="m875.7 632.7l1.2 1.4 16.3-13.4c1.2-0.9 2.6-1.4 4-1.3l-10.4 26 1.7 0.7 11.5-28.5-3.4-0.1c-1.5-0.1-2.9 0.4-4 1.3z" style="fill: rgb(186, 104, 56);"/>
						<path  class="s8" d="m869.7 682.4c1.7 1.2 3.9 1.4 5.9 0.8 2.3-0.8 5-2 7.8-3.8 10.6-7 17.3-20.5 14.2-24-1.4-1.6-4.6-1.2-6.6-0.3-4.9 2.1-3.6 7.7-8.1 13.8-5.8 7.8-15 8.4-14.6 11.7 0.1 0.5 0.4 1.1 1.4 1.8z" style="fill: rgb(255, 154, 97);"/>
					</g>
					<path  class="s7" d="m855.6 643.6l8.3-8.8c-2.7-4.3-7.7-10.2-12.4-20.5-10.3-22.3-4.7-32.8-15.6-44.2-1.9-2-5.7-5.5-5.9-10.5-0.2-6.6 6-11.7 5-12.7-0.8-0.8-4.4 2.5-8.6 4.2-8.8 3.5-18.4-1.2-22.9-3.2-4.3-2-16.9-7.8-28.9-11.9l-2.5 11.7 29 6.9c15.4 3.7 27.9 14.9 33.3 29.9z" style="fill: rgb(219, 122, 66);"/>
					<g >
						<path  class="s9" d="m754.3 695.8c-11.3 7.2-8.5 20.2-21.3 35.1-6.5 7.5-14.2 12.3-21 15.3 8.3 6.4 14.8 11.2 25.5 10.7 0 0 6.8-12.9 12.6-27.9 4.6-11.7 14.1-32.4 26.2-36.3-7.3-1.3-15.4-1.1-22 3.1z" style="fill: rgb(190, 186, 246);"/>
					</g>
					<path  class="s6" d="m765.5 693.6c0 0-57.4 35.6-47.9 139 9.6 103.5 19.8 190.3 17.1 228 0 0 21.7 14 35.1 2.2 0 0 33.3-127.7 13.9-220.8 0 0 7.4-49.6 50.5-107.9 0 0-33.3-54.4-68.7-40.5z" style="fill: rgb(242, 135, 73);"/>
					<path  class="s8" d="m769.4 701.3c-17.3 11.6-31.9 35.5-43 71.9-7.2 23.2-14.4 46.7-8.5 49.5 7.6 3.7 30.5-30 61.4-75.5 17.2-25.2 24.1-37.9 19.1-44.4-4.8-6.2-20.4-7.3-29-1.5z" style="fill: rgb(255, 154, 97);"/>
					<path  class="s9" d="m841 742.8c0 0-4.5 5.7-14.3 1.8l7.5-10.5c0 0 2.5 3 6.8 8.7z" style="fill: rgb(190, 186, 246);"/>
					<path  class="s6" d="m725.8 789.5l-80.2-177.4c0 0-8.4-11.7-48.1-0.8l83.8 201.7c0 0-24.2 16.3-28 20.6-3.8 4.2-2 24.9-2 24.9 0 0 21.5 18.8 57.2 9.5 2.6-0.7 8.2-5.2 8.2-5.2l1.2-39.2 7.8-16.8c2.6-5.5 2.6-11.8 0.1-17.3z" style="fill: rgb(242, 135, 73);"/>
					<path  class="s7" d="m645.6 612.1c0 0-2-2.8-8.7-4.4 3.6 12.5 10.5 22.6 19.2 39.5 13.2 25.3 7.1 20.7 25.3 59.7 15.7 33.5 20.6 37.9 26.6 58.5 2.9 10.3 7 24.8 7.3 43.2 0.5 28.6-7.2 48.9-11.4 60.4 5.1-0.7 6.8-4.2 12.5-6.2l1.5-39.2 7.8-16.8c2.6-5.5 2.6-11.8 0.1-17.3z" style="fill: rgb(219, 122, 66);"/>
					<path  class="s3" d="m662.7 769.1l18.6 43.9c6.5-4.7 20.7-12.4 44.8-7 2.3-5 2.3-10.7 0.1-15.7l-15.4-33.9c-21.7-0.6-35.6 4.8-48.1 12.7z" style="fill: rgb(255, 255, 255);"/>
					<path  class="s4" d="m704.5 837.4c0 0 10.1-1.4 16.9-5.5 6.9-4 4.4 30.1-0.2 30.8-4.5 0.8-6.5-4.1-18-4.3z" style="fill: rgb(51, 51, 51);"/>
					<path  class="s7" d="m778.2 980.9c-6.5 45.5-14.1 72.4-16.7 86.1 2.9-0.6 5.8-1.9 8.3-4.2 0 0 33.3-127.7 13.9-220.8 0 0 0.5-2.9 1.7-8.1-4 4.2-7.6 6.6-10.8 8.1-2.2 1-9.3 3.9-9.5 8.3-0.1 4.5 7.2 6.9 11.8 10.5 12.1 9.6 10.3 30.9 6.1 73.3-3 29.7-4.4 44.6-4.8 46.8z" style="fill: rgb(219, 122, 66);"/>
					<path  class="s4" d="m737 1053.3l-1.9 0.4c0 0-1.2 16.9-6.8 28.6-5.6 11.7-36.7 35.9-30.7 48.6 6.1 12.8 20.5 15.3 43.3 15.4 34.8 0.2 25.8-17.3 32.6-20.3 6.8-3.1 12.6-12.2 12.6-12.2 0 0 4.5-52.2-13.3-63.6 0 0-1 5.4-2.7 11.2-1.1 3.8-6.7-1.1-14.7-5.6-5.6-3.2-12.2-4.1-18.4-2.5z" style="fill: rgb(51, 51, 51);"/>
					<path  class="s5" d="m772.8 1050.2c0 0-1 5.4-2.7 11.2-0.6 2.3-3 1.4-6.5-0.7-0.3 2.8-0.2 5.2-0.1 6.4 0.2 4.7 1.3 6.9 6.3 19.5 8 20 9.3 24.7 7 28.9-1.6 3-3.2 2.3-8.4 7.4-6.5 6.4-8.5 12-10.3 14.5-8.2 11.7-42.7-0.3-58.5-3.2 6.9 9.9 20.6 12 41.3 12.1 34.8 0.2 25.8-17.3 32.6-20.3 6.8-3.1 12.6-12.2 12.6-12.2 0 0 4.5-52.2-13.3-63.6z" style="fill: rgb(41, 41, 41);"/>
					<path  class="s2" d="m521.7 790.8c0 0 47.3 36.2 75.8 39.9l18.4 1.2c0 0 8 13.2-1.5 22.8 0 0-18-3.2-32 3.6-14.1 6.7-67.9 46.2-67.9 46.2l18.2-34.5c0 0 29-20.9 54.5-27.7 0 0-45.8-13.4-58.5-31.1z" style="fill: rgb(113, 207, 48);"/>
					<path  class="s1" d="m525.6 791.1c0 0 47.3 36.1 75.8 39.8l18.4 1.2c0 0 8 13.3-1.5 22.9 0 0-18-3.3-32 3.5-14.1 6.8-67.9 46.2-67.9 46.2l18.2-34.4c0 0 29-21 54.5-27.8 0 0-45.8-13.4-58.5-31.1z" style="fill: rgb(198, 224, 58);"/>
					<path  class="s4" d="m619.8 832.1l72.5 4.6c0 0 5.6 11.2-1.8 22.8l-72.2-4.5z" style="fill: rgb(51, 51, 51);"/>
					<g >
						<path  class="s2" d="m532.6 811.4c4.1 5.7 11.5 10.9 19.8 15.4-1.3-7.7-3.3-14.8-5.4-20.9-12.5-8-21.4-14.8-21.4-14.8z" style="fill: rgb(113, 207, 48);"/>
						<path  class="s2" d="m622.9 844.4c-16.7 0.1-23.4 2.3-26.5 3.5-10.2 3.7-18.4 9.5-25.9 14.8-14.3 10.1-21.9 18.8-24.2 17.1-1.9-1.3 1.4-8.5 3-12.7q1.3-3.2 2.1-6.5c-8.8 5.4-14.8 9.7-14.8 9.7l-18.2 34.4c0 0 53.8-39.4 67.9-46.2 14-6.8 32-3.5 32-3.5 3.3-3.3 4.5-7.1 4.6-10.6z" style="fill: rgb(113, 207, 48);"/>
					</g>
					<path  class="s5" d="m694.3 847.4c-4.2 0.9-8.8 1.6-14 1.8-14.1 0.5-12.2-2.8-40.6-4.4-8.4-0.4-15.2-0.5-20.7-0.3l-0.7 10.5 72.2 4.5c2.8-4.2 3.7-8.5 3.8-12.1z" style="fill: rgb(41, 41, 41);"/>
					<path  class="s5" d="m721.2 862.7c3.2-0.5 5.4-17.4 4.1-26.1-5.5 1.5-12.1 5.2-21.2 8.2l-0.9 13.6c11.5 0.2 13.5 5.1 18 4.3z" style="fill: rgb(41, 41, 41);"/>
					<g >
						<path  class="s6" d="m665 859.4c0 0 5.8-6.8 13.9-4 0 0-5.3 14.6-15.2 10" style="fill: rgb(242, 135, 73);"/>
						<path  class="s10" d="m666.3 868.4c-1-0.6-2.2-2.3-2.6-3 1.8 0.8 3.4 1.1 5.1 0.4 3.9-1.6 6.7-6.7 7.9-9.3-6-1.2-10.3 3.7-10.5 3.9l-2.4-2c0.2-0.3 6.5-7.6 15.6-4.5l1.5 0.6-0.5 1.4c-0.2 0.5-3.8 10.1-10.4 12.8-1.3 0.6-1.6 0.9-3.7-0.3z" style="fill: rgb(186, 104, 56);"/>
					</g>
					<g >
						<path  class="s6" d="m678.6 861.3c0 0 5.8-6.8 13.9-4 0 0-6 16.7-15.9 12.1" style="fill: rgb(242, 135, 73);"/>
						<path  class="s10" d="m680.4 871.4c-1.2-0.1-3-1.3-4-2 1.8 0.8 4.5-0.7 6.1-1.7 3.5-2.2 6.6-6.7 7.9-9.3-6.2-1.2-10.5 3.9-10.6 3.9l-2.4-2c0.3-0.3 6.6-7.6 15.6-4.5l1.5 0.6-0.5 1.4c-0.2 0.5-3.8 10.1-10.3 12.8-1.4 0.6-1.9 0.9-3.3 0.8z" style="fill: rgb(186, 104, 56);"/>
					</g>
					<g >
						<path  class="s6" d="m708.1 858c0 0 5.3-6.9 12.7-4.1 0 0-3.6 14.6-18.8 15.5" style="fill: rgb(242, 135, 73);"/>
						<path  class="s10" d="m702 869.4c11.3-0.7 15.6-10.7 16.8-14.5-5.4-1.1-9.2 3.8-9.4 4l-2.5-1.9c2.1-2.7 7.7-7.2 14.4-4.6l1.3 0.5-0.3 1.3c0 0.2-4 14.3-20.3 15.2z" style="fill: rgb(186, 104, 56);"/>
					</g>
					<g >
						<path  class="s6" d="m705.6 850.6c0 0 5.7-6.9 13.8-4.1 0 0-15.3 25.4-25.8 23.9" style="fill: rgb(242, 135, 73);"/>
						<path  class="s10" d="m693.6 870.4c-0.1 0 0 0 0 0 7.1 1 18.4-15 23.4-22.9-6-0.9-10.2 4-10.2 4.1l-2.5-2.1c0.3-0.3 6.6-7.6 15.7-4.4l1.8 0.6-1 1.6c-1.6 2.8-18.2 24.6-27.2 23.1z" style="fill: rgb(186, 104, 56);"/>
					</g>
					<g >
						<path  class="s6" d="m684.7 827.9c0 0 2.1 14.3 11.5 32 0 0 12.9 1 7.5-15.2l2.5-22.3" style="fill: rgb(242, 135, 73);"/>
						<path  class="s10" d="m696.1 861.5q0 0 0 0l-0.9-0.1-0.4-0.8c-9.4-17.7-11.6-31.9-11.7-32.5l3.1-0.4c0 0.1 2.2 13.8 10.9 30.6 1.3-0.1 3.7-0.5 5.1-2.3 1.6-2.1 1.7-5.8 0-10.8l-0.1-0.3 2.6-22.7 3.1 0.4-2.5 22c1.9 5.9 1.7 10.4-0.6 13.4-3 3.7-8.1 3.5-8.6 3.5z" style="fill: rgb(186, 104, 56);"/>
					</g>
					<g clip-path="url(#cp1)">
						<g >
							<g >
								<path  class="s3" d="m278.2 975l-1.5-0.1 19.7-312.3 1.6 0.1z" style="fill: rgb(255, 255, 255);"/>
								<path  class="s3" d="m290 975.8l-1.5-0.1 19.7-312.4 1.6 0.1z" style="fill: rgb(255, 255, 255);"/>
								<path  class="s3" d="m301.8 976.5l-1.5-0.1 19.7-312.3 1.6 0.1z" style="fill: rgb(255, 255, 255);"/>
								<path  class="s3" d="m313.7 977.3l-1.6-0.1 19.7-312.4 1.6 0.1z" style="fill: rgb(255, 255, 255);"/>
								<path  class="s3" d="m325.5 978l-1.6-0.1 19.7-312.3 1.6 0.1z" style="fill: rgb(255, 255, 255);"/>
								<path  class="s3" d="m337.3 978.8l-1.6-0.1 19.7-312.4 1.6 0.1z" style="fill: rgb(255, 255, 255);"/>
								<path  class="s3" d="m349.1 979.5l-1.6-0.1 19.7-312.3 1.6 0.1z" style="fill: rgb(255, 255, 255);"/>
								<path  class="s3" d="m360.9 980.2l-1.6-0.1 19.7-312.3 1.6 0.1z" style="fill: rgb(255, 255, 255);"/>
								<path  class="s3" d="m372.7 981l-1.6-0.1 19.7-312.4 1.6 0.1z" style="fill: rgb(255, 255, 255);"/>
								<path  class="s3" d="m384.5 981.7l-1.6-0.1 19.8-312.3 1.5 0.1z" style="fill: rgb(255, 255, 255);"/>
								<path  class="s3" d="m396.3 982.5l-1.6-0.1 19.8-312.4 1.5 0.1z" style="fill: rgb(255, 255, 255);"/>
								<path  class="s3" d="m408.1 983.2l-1.6-0.1 19.8-312.3 1.5 0.1z" style="fill: rgb(255, 255, 255);"/>
								<path  class="s3" d="m419.9 984l-1.5-0.1 19.7-312.4 1.6 0.1z" style="fill: rgb(255, 255, 255);"/>
								<path  class="s3" d="m431.7 984.7l-1.5-0.1 19.7-312.3 1.6 0.1z" style="fill: rgb(255, 255, 255);"/>
								<path  class="s3" d="m443.5 985.5l-1.5-0.1 19.7-312.4 1.6 0.1z" style="fill: rgb(255, 255, 255);"/>
								<path  class="s3" d="m455.4 986.2l-1.6-0.1 19.7-312.3 1.6 0.1z" style="fill: rgb(255, 255, 255);"/>
								<path  class="s3" d="m467.2 987l-1.6-0.1 19.7-312.4 1.6 0.1z" style="fill: rgb(255, 255, 255);"/>
								<path  class="s3" d="m479 987.7l-1.6-0.1 19.7-312.3h1.6z" style="fill: rgb(255, 255, 255);"/>
								<path  class="s3" d="m490.8 988.4l-1.6-0.1 19.7-312.3 1.6 0.1z" style="fill: rgb(255, 255, 255);"/>
								<path  class="s3" d="m502.6 989.2l-1.6-0.1 19.7-312.4 1.6 0.1z" style="fill: rgb(255, 255, 255);"/>
								<path  class="s3" d="m514.4 989.9l-1.6-0.1 19.7-312.3 1.6 0.1z" style="fill: rgb(255, 255, 255);"/>
							</g>
							<g >
								<path  class="s3" d="m569 718.9l-312.4-19.7 0.1-1.6 312.4 19.7z" style="fill: rgb(255, 255, 255);"/>
								<path  class="s3" d="m568.3 730.7l-312.5-19.7 0.1-1.6 312.5 19.7z" style="fill: rgb(255, 255, 255);"/>
								<path  class="s3" d="m567.5 742.5l-312.4-19.7 0.1-1.6 312.4 19.7z" style="fill: rgb(255, 255, 255);"/>
								<path  class="s3" d="m566.8 754.3l-312.5-19.7 0.1-1.6 312.5 19.7z" style="fill: rgb(255, 255, 255);"/>
								<path  class="s3" d="m566 766.1l-312.4-19.7 0.1-1.6 312.4 19.7z" style="fill: rgb(255, 255, 255);"/>
								<path  class="s3" d="m565.3 777.9l-312.5-19.7 0.1-1.6 312.5 19.7z" style="fill: rgb(255, 255, 255);"/>
								<path  class="s3" d="m564.6 789.7l-312.5-19.7 0.1-1.6 312.5 19.7z" style="fill: rgb(255, 255, 255);"/>
								<path  class="s3" d="m563.8 801.5l-312.5-19.7 0.1-1.6 312.5 19.7z" style="fill: rgb(255, 255, 255);"/>
								<path  class="s3" d="m563.1 813.3l-312.5-19.7 0.1-1.6 312.5 19.7z" style="fill: rgb(255, 255, 255);"/>
								<path  class="s3" d="m562.3 825.1l-312.5-19.7 0.1-1.6 312.5 19.7z" style="fill: rgb(255, 255, 255);"/>
								<path  class="s3" d="m561.6 836.9l-312.5-19.7 0.1-1.6 312.5 19.7z" style="fill: rgb(255, 255, 255);"/>
								<path  class="s3" d="m560.8 848.7l-312.4-19.7 0.1-1.6 312.4 19.7z" style="fill: rgb(255, 255, 255);"/>
								<path  class="s3" d="m560.1 860.5l-312.5-19.7 0.1-1.6 312.5 19.7z" style="fill: rgb(255, 255, 255);"/>
								<path  class="s3" d="m559.3 872.3l-312.4-19.7 0.1-1.6 312.4 19.7z" style="fill: rgb(255, 255, 255);"/>
								<path  class="s3" d="m558.6 884.1l-312.5-19.7 0.1-1.6 312.5 19.7z" style="fill: rgb(255, 255, 255);"/>
								<path  class="s3" d="m557.8 895.9l-312.4-19.7 0.1-1.6 312.4 19.8z" style="fill: rgb(255, 255, 255);"/>
								<path  class="s3" d="m557.1 907.7l-312.5-19.7 0.1-1.6 312.5 19.8z" style="fill: rgb(255, 255, 255);"/>
								<path  class="s3" d="m556.4 919.5l-312.5-19.7 0.1-1.6 312.5 19.8z" style="fill: rgb(255, 255, 255);"/>
								<path  class="s3" d="m555.6 931.3l-312.5-19.7 0.1-1.6 312.5 19.8z" style="fill: rgb(255, 255, 255);"/>
								<path  class="s3" d="m554.9 943.1l-312.5-19.7 0.1-1.6 312.5 19.8z" style="fill: rgb(255, 255, 255);"/>
								<path  class="s3" d="m554.1 954.9l-312.5-19.7 0.1-1.5 312.5 19.7z" style="fill: rgb(255, 255, 255);"/>
							</g>
						</g>
					</g>
					<path fill-rule="evenodd" class="s2" d="m541.1 847.6c-3.2 51-48.5 89.7-101.1 86.3-52.7-3.3-92.7-47.3-89.5-98.4 3.2-51 48.5-89.7 101.1-86.4 52.7 3.4 92.7 47.4 89.5 98.5zm-9.1-0.6c2.9-45.7-32.9-85.1-80-88-47.1-3-87.6 31.6-90.5 77.2-2.8 45.7 33 85.1 80.1 88 47 3 87.5-31.6 90.4-77.2z" style="fill: rgb(113, 207, 48);"/>
					<path fill-rule="evenodd" class="s1" d="m545 847.8c-3.2 51-48.5 89.7-101.1 86.4-52.7-3.3-92.7-47.4-89.5-98.4 3.2-51.1 48.5-89.7 101.1-86.4 52.7 3.3 92.7 47.4 89.5 98.4zm-9.1-0.6c2.9-45.6-32.9-85-80-88-47.1-3-87.6 31.6-90.4 77.3-2.9 45.6 32.9 85 80 88 47.1 3 87.6-31.6 90.4-77.3z" style="fill: rgb(198, 224, 58);"/>
					<path  class="s9" d="m710.8 756.4q-3-0.1-5.8 0c1 2.7 2 5.7 3 9 2.7 9.4 6.3 22.6 7.1 38.9 3.5 0.3 7.1 0.8 11 1.7 2.3-5 2.3-10.7 0.1-15.7z" style="fill: rgb(190, 186, 246);"/>
				</g>
			</g>
		</g>
		<path  class="s7" d="m733.3 891.9c9.5-0.5 15.9-13.2 14.2-15.3-1.1-1.2-4.4 1.9-11.2 2.4-6.3 0.4-11.2-1.6-14.6-3.3q0.6 5.8 1.1 11.5c2.8 2.8 6.4 4.9 10.5 4.7z" style="fill: rgb(219, 122, 66);"/>
	</g>
</svg>