<svg version="1.2" xmlns="http://www.w3.org/2000/svg" viewBox="0 0 612 570" width="612" height="570">
	<title>2521785-ai</title>
	<defs>
		<clipPath clipPathUnits="userSpaceOnUse" id="cp1">
			<path d="m248.15 376.83c-28.81-1.81-50.73-25.94-48.97-53.89 1.77-27.94 26.55-49.12 55.36-47.3 28.81 1.82 50.74 25.94 48.97 53.89-1.76 27.94-26.55 49.12-55.36 47.3z"/>
		</clipPath>
	</defs>
	<style>
		.s0 { fill: #cfe2ff } 
		.s1 { fill: #c6e03a } 
		.s2 { fill: #71cf30 } 
		.s3 { fill: #ffffff } 
		.s4 { fill: #333333 } 
		.s5 { fill: #292929 } 
		.s6 { fill: #f28749 } 
		.s7 { fill: #db7a42 } 
		.s8 { fill: #ff9a61 } 
		.s9 { fill: #bebaf6 } 
		.s10 { fill: #ba6838 } 
	</style>
	<g id="OBJECTS">
		<g id="&lt;Group&gt;">
			<g id="&lt;Group&gt;">
				<g id="&lt;Group&gt;">
					<path id="&lt;Path&gt;" fill-rule="evenodd" class="s0" d="m753.7 94.6c57.8 210.2-169.1 397.6-340.7 434.7-185.8 40.2-382.8-105.5-371.1-168.5 10.6-58 195.2-32.1 224.3-117.1 34.2-99.6-191.8-216.8-157.2-322.4 24.6-75.1 162.5-88.3 182.2-90.2 141.5-13.5 409.3 69.9 462.5 263.5zm-240 367.4c-9.6 6.4-10.2 6.9-10.1 7.2 0.5 1.2 9.7 0.3 19-3.8 16.1-7.2 12.8-18.6 33.6-29.2 2.7-1.4 9.4-4.5 13.1-11.5 4.2-7.9 2.8-17.2 1.1-17.6-1.7-0.3-2.2 8.7-9.3 12.6-5.5 2.9-8.8-0.4-12.9 2.5-6.7 4.6-3.2 17.3-7.9 18.2-4.2 0.7-8.4-7.8-12.2-6.5-4.9 1.7-0.5 17.9-9.5 24.9-0.2 0.2 0 0-4.9 3.2zm-384.3-72.3c-6.2-3.7-9.8-9-11.2-11.6 4.7 11.2 33 80.8 91.1 100.1 23.9 8 51 6.7 62.6 6.2 30.6-1.4 54.8-9.1 54.6-10.6-0.2-1.3-19 1.8-36.8-1.7-13.6-2.6-15.5-5.7-26.6-5.8-13.7-0.1-18.6 4.3-29.7 1.3-8.9-2.4-15.5-7.9-18.6-10.5-9.1-7.5-8.8-11.9-16.3-15.5-8.3-4-11.5 0.1-18.2-3.6-8.7-4.8-4.9-12.5-14.8-25.3-2.5-3.2-11.4-14.6-25.5-19-3.4-1.1-6.4-1.5-10.6-4zm-11.9-13.1c-0.1 0 0.1 0.6 0.7 1.5-0.5-1-0.7-1.6-0.7-1.5zm460-22.2c-14.1 12-14.8 12.8-14.4 13.2 1.6 1.4 18.4-3.5 33.2-12.4 25.8-15.5 12.1-28.9 44.3-50.5 4.3-2.9 14.8-9.6 17.2-20.1 2.7-11.7-5.9-23.1-9.3-22.9-3.4 0.2 1.5 12-9.4 19.8-8.4 5.9-16.8 2.9-22.7 8.2-9.6 8.6 5.3 23.5-2.9 26.5-7.4 2.6-21-6.7-27.3-3.6-8.2 4.2 10.7 23.3-1.6 35.8-0.4 0.3-0.1 0-7.1 6zm-75.6 58.8c28.5-10.6 39-34.3 39-34.3 0 0-2.2 3.3-8.6 8.7-6.5 5.3-2.4-2.1-9.8-8.8-7.3-6.7-6.8 16.2-6.8 16.2 0 0-2.7-5.8-8.9-4.6-6.2 1.1-0.7 16.2-0.7 16.2 1.1 3.4-4.2 6.6-4.2 6.6z"/>
					<path id="&lt;Path&gt;" class="s0" d="m180.3 512.3c3.8 2.3 8.9 4.8 18.9 9.6 23.2 11.2 34.8 16.8 43.9 18.2 18.9 2.8 45.6 4.4 44.6 4.7-15.2 5.3-28.6 2.1-49.3 0.9-13-0.7-22-4.8-36-11.1-10.8-4.8-21.8-11.2-30.1-21.7-0.7-0.9-5.1-6.3-4.2-7.2 0.9-0.9 5.6 2.7 12.2 6.6z"/>
					<path id="&lt;Path&gt;" class="s0" d="m176.1 259c6.9-2.4 6.4-12 11.6-13 3-0.5 3.7 2.5 7.9 2.8 4.2 0.2 6.7-2.7 12.4-6.9 1-0.8 9.2-6.8 16.3-9.6 8.9-3.6 11.7 0.6 19-2.2 10.3-4 15.3-15.1 14.9-15.5-0.4-0.3-8.4 23-30.5 36.5-27.2 16.8-62.9 10.7-62.9 10.3 0 0 1.1-0.1 4.7-0.8 2.6-0.5 5.2-1.1 6.6-1.6z"/>
					<path id="&lt;Path&gt;" class="s0" d="m210.2 276.2c-6.3 0.7-19.3 11-36.7 13.8-6 1-6.3 0-13.7 1-10.5 1.4-5.5 1.9-39.1 10.8-21.8 5.8-44.1 9-44 9.3 0.1 0.1 6.3-0.9 6.4-1 0.1-0.2-33 4.1-33.7 4.6-0.5 0.5 19.3-0.9 40.4-3.6 46-6 106.5-19.7 120.5-29.2 5.1-3.5 3.4-6.1-0.1-5.7z"/>
				</g>
			</g>
			<g id="&lt;Group&gt;">
				<g id="&lt;Group&gt;">
					<path id="&lt;Path&gt;" class="s1" d="m150.5 211.2c6.8 20.6-6.4 43.5-29.5 51.1-23.1 7.7-47.3-2.8-54.1-23.4-6.8-20.6 6.3-43.5 29.4-51.2 23.1-7.6 47.3 2.9 54.2 23.5z"/>
					<path id="&lt;Path&gt;" class="s2" d="m151.7 215.7c-2.8 6.8-7.3 14.4-15.7 19.1-20.3 11.3-49.4-2.3-54-4.6-7.3-3.5-12.4-7.3-16.2-10.6-1.2 6-0.9 12.2 1.1 18.3 6.8 20.6 31 31.1 54.1 23.4 21.1-6.9 33.8-26.6 30.7-45.6z"/>
					<path id="&lt;Path&gt;" class="s2" d="m104.9 200.6c-12.5-2.9-28.4 5.7-36.5 10.8q-1.1 2.4-1.8 5c5.4-3.7 24.2-15.8 37.5-12.7 4.7 1.1 8.2 4 10.5 8.8 6.6 13.1-1.2 19.8-8.7 26.2-5.4 4.7-11.1 9.6-8.6 16.4 1.4 4.1 5.2 6.5 11.3 7.1l0.3-3.2c-4.8-0.4-7.6-2-8.6-4.9-1.7-4.6 1.8-7.9 7.7-13 7.6-6.5 17.1-14.7 9.5-30-2.8-5.6-7-9.1-12.6-10.5z"/>
					<path id="&lt;Path&gt;" class="s3" d="m105.1 197.3c-12.2-2.8-27 5.4-35 10.6q-1.5 2.8-2.6 5.7c4.6-3.4 23.1-16.3 36.9-13.2 5.3 1.2 9.3 4.7 12 10.3 7.1 14.8-0.6 21.9-8 28.8-5.3 4.9-0.4 5.1 5-0.4 4.1-4.2 13.9-12.9 5.8-29.8-3.1-6.5-7.9-10.6-14.1-12z"/>
					<path id="&lt;Path&gt;" class="s1" d="m108.4 239.5c-5.3 4.9-10.9 10.1-8.2 17.5 1.1 3.2 3.4 5.4 6.8 6.8q5.2-0.2 10.5-1.5c-6.6 0.5-13.2-3.1-14.3-6.3-1.9-5.3 1.6-8.8 7.3-14.2l2.9-2.7-2.1-0.2q-1-0.1-2-0.3z"/>
				</g>
				<g id="&lt;Group&gt;">
					<path id="&lt;Path&gt;" class="s4" d="m304.4 312.2c0 0-3.6-1.4-10 2.3-6.5 3.8-12.1 1.2-16.1 2.6-4 1.4-22.5 12.3-21.1 19.7 1.5 7.4 3.6 11.5 13.7 9.7 10.2-1.7 13.8-5.7 17-6.9 3.2-1.2 15.2-8.1 23.3-11 8-2.8 9.8-7.5 9.8-7.5z"/>
					<path id="&lt;Path&gt;" class="s5" d="m321 321.1l-3.6-1.9c-5.9 1.6-13.2 4.2-23.1 9.4-8.9 4.8-9.3 6.1-17.5 9.8-6.5 3-12 4.8-16.7 6 2 2.3 5.2 3.1 10.8 2.1 10.2-1.7 13.8-5.7 17-6.9 3.2-1.2 15.2-8.1 23.3-11 8-2.8 9.8-7.5 9.8-7.5z"/>
					<path id="&lt;Path&gt;" class="s6" d="m361.5 252c0 0-28.4 36.7-33.6 42.5-5.2 5.9-20.3 18.8-26.6 19.4 0 0-9.6 17.1 6.2 15.7 0 0 7.6-8.1 29.9-14.5 27.2-7.9 71.9-49.9 71.9-49.9 0 0-16.8-14.7-47.8-13.2z"/>
					<path id="&lt;Path&gt;" class="s7" d="m409.3 265.2c0 0-6.3-5.5-18.4-9.5-2.9 1.9-5.8 3.9-8 5.6-6.2 4.9-8.6 8.8-18.8 21.7-12.5 16-18.8 23.9-21.2 25.9-13.5 10.7-20.8 6.1-44 17.4 1 2.2 3.4 3.8 8.6 3.3 0 0 7.6-8.1 29.9-14.5 27.2-7.9 71.9-49.9 71.9-49.9z"/>
					<path id="&lt;Path&gt;" class="s8" d="m387.3 240.9c-0.7 4-2.4 7.6-5 10.7-34.1 40.4-43.2 48.1-44.7 47-2.6-1.9 15-28.9 16-30.6 1.5-2.3 26.5-40.3 32.9-37.1 1.2 0.7 2 2.9 0.8 10z"/>
					<path id="&lt;Path&gt;" class="s3" d="m351.3 125.2l-14.3 21.5c0 0 20.1 15.8 37.9 34.4 17.9 18.5 10.7 23 10.7 23 0 0 4.2 20.3 38 13 33.8-7.3 43.6-29.1 43.6-29.1 0 0-17-62.1-37.4-79.1q-0.9-0.8-1.8-1.4c-21.2-14.8-66.5-1.7-76.7 17.7z"/>
					<path id="&lt;Path&gt;" class="s3" d="m340 144.7c0 0-7.8 13.1 4.2 38.4 0 0 15.1-4.2 29.4 0.5 0 0-5.5-24-8.2-33.1-2.7-9.1-19.9-16.3-25.4-5.8z"/>
					<path id="&lt;Path&gt;" class="s3" d="m385.6 204.1c0 0-18.2 24.1-24.3 39.8 0 0 4-0.4 4.6 1.7l-4.4 6.4c0 0 28.3 2.3 39.3 9 11.1 6.6 15 13.7 25.1 13.2 0 0 4.1-7.9 7.7-17.1 3.6-9.2 12.3-27.6 22.7-21.3 11.8 7.2 30.6 25.3 33.9 29.8 0 0-7-12.4 6.1-15.4 8.2-1.9 5.9-17.4 5.9-17.4 0 0-16-32.7-35-44.8 0 0-44.9 52.6-81.6 16.1z"/>
					<path id="&lt;Path&gt;" class="s9" d="m361.3 243.9c0 0-1 2.1 1.7 3.1 0 0-1.9 0.7-1.5 5l4.4-6.4c0 0 0.1-2.1-4.6-1.7z"/>
					<g id="&lt;Group&gt;">
						<path id="&lt;Path&gt;" class="s6" d="m359.6 125c0 0 7.1 5.3 10.8 9.9l14.5 4.5c0 0 0.6-12.1-4.4-34.4l-9.2-9.4z"/>
						<g id="&lt;Group&gt;">
							<path id="&lt;Path&gt;" class="s4" d="m336 62.8c-8.3-4.7-16.3-6.7-23.8-6.1-3.1 0.3-5.5 0.9-7.6 1.5-3.3 0.9-6.1 1.6-9.8 0.8-6.3-1.5-11.7-6.8-16-16l1.7-0.8c4.1 8.6 9 13.6 14.7 14.9 3.3 0.7 5.7 0.1 8.9-0.8 2.2-0.5 4.7-1.2 7.9-1.5 8-0.7 16.3 1.5 24.9 6.4z"/>
							<path id="&lt;Path&gt;" class="s4" d="m364.1 59.6c-9 4.2-16 4-19.3 3.6-2.4-0.3-4.7-0.8-5.5-1.1-4.6-1.5-6.8-4.2-13.1-5.6-14.2-3-18 7.1-36.3 6.8-11.7-0.2-13.6-4.3-22.2-2.1-8.1 2.1-18 8.6-18.2 16-0.2 9.4 15.1 20.3 28.9 19.6 17.5-0.9 25.2-20.4 40.8-17.1 4.2 0.9 4.6 2.5 9.1 4.4 20.4 8.9 40.4-4.5 45.5-7.8 4.6-2.9 6.8-5.3 7.3-8.2 0.6-4.4-2.3-10.4-7.7-11.5-5-1.1-8.9 2.6-9.3 3z"/>
							<path id="&lt;Path&gt;" class="s5" d="m373.4 56.6c-5-1.1-8.9 2.6-9.3 3-1.7 0.8-3.3 1.4-4.8 1.9q0.2 0.8 0.6 1.6c2.9 6.6 9.7 10.2 16.7 11.2 2.8-2.1 4.1-4 4.5-6.2 0.6-4.4-2.3-10.4-7.7-11.5z"/>
							<path id="&lt;Path&gt;" class="s5" d="m340.2 87c2.7-1.4 5.1-3.4 6.7-5.4 4.2-5.1 5.3-12.3 4.6-18.4-2.9 0.3-5.2 0.2-6.7 0-2.4-0.3-4.7-0.8-5.5-1.1-2.9-0.9-4.8-2.4-7.4-3.6-1.2 1.6-1.9 3.4-2 5.1-0.2 2.6 1.3 4.1 0.2 6.2-1.7 3.6-7.1 2.1-8.9 5.1-0.7 1.3-0.6 3.3 0.1 5.4 2.4 0.9 3.4 2.3 7 3.8 4 1.8 8 2.6 11.9 2.9z"/>
							<path id="&lt;Path&gt;" class="s1" d="m372.6 69.9c-2.2 0-4-1.8-4-4.1 0-2.2 1.8-4 4-4 2.2 0 4 1.8 4 4 0 2.3-1.8 4.1-4 4.1z"/>
							<path id="&lt;Path&gt;" class="s7" d="m374.7 99.7l-15.1 25.3c0 0 5.1 4.7 9.5 9.1 6.4-19.8 5.6-34.4 5.6-34.4z"/>
							<path id="&lt;Path&gt;" class="s9" d="m354.4 126.1l12.9 12.1 17.6 1.2-12.1-5.5-14.5-11.8z"/>
							<path id="&lt;Path&gt;" class="s6" d="m336.1 93.3c0 0 10.6 32.7 20 37.2 0 0 20-9.5 20.3-30.1 0.4-20.7-14.2-25.8-20.1-24.6-5.9 1.3-18 4-20.2 17.5z"/>
							<path id="&lt;Path&gt;" class="s7" d="m370.3 89.1c-0.7-4.9-9.6-7.1-11.9-7.7-5.1-1.4-10.6-1.2-15.7 0.1-3.1 2.6-5.7 6.3-6.6 11.8 0 0 0.9 2.6 2.3 6.4q1.1 0 2.4 0.1c8.7 0.3 9.7 2.8 15.3 1.8 7.3-1.4 15-7.5 14.2-12.5z"/>
							<path id="&lt;Path&gt;" class="s4" d="m335.8 75.7c0 0 10.1-24 35.6-10.9 25.5 13.1 8.6 33.2 8.6 33.2z"/>
							<path id="&lt;Path&gt;" class="s5" d="m369.3 92.6l10.7 5.4c0 0 15.6-18.5-5.7-31.6 1.3 4.2 7.2 11 4.7 17.6-1.8 4.6-6.8 6.6-9.7 8.6z"/>
							<path id="&lt;Path&gt;" class="s9" d="m326.5 97.6c-0.6 1.9 1.3 3.8 3.1 2.9 0.6-0.3 1.4-0.8 2.1-1.6 3.8-3.9 4.6-5 4.6-5 0 0-8.1-1.9-9.8 3.7z"/>
							<path id="&lt;Path&gt;" class="s3" d="m335 87.7c0 0 4.2-4.7 32.2 0.4 0 0-8.2 12-16.7 10.1-8.6-1.8-12.2-5.3-18-4.3-5.7 0.9-6.1 4.3-6.1 4.3 0 0-0.9-3.2 8.6-10.5z"/>
							<path id="&lt;Path&gt;" class="s3" d="m335 87.7l-0.2-11.5c0 0 10.7-7 27.8 0.2 0 0 11.6 3.3 16.6 6.2l0.2 6.6c0 0-4.4-3-12.2-1.1 0 0-26.4-4.6-32.2-0.4z"/>
							<path id="&lt;Path&gt;" class="s7" d="m350.4 118.7l-7-1.3 1.3-11.9z"/>
							<path id="&lt;Path&gt;" class="s6" d="m373.6 96.4c0 0 2.1-8.9 5.8-5.1 3.6 3.7-2.5 16.5-5 13.5-2.6-2.9-0.8-8.4-0.8-8.4z"/>
							<path id="&lt;Path&gt;" class="s4" d="m246 73.4l-1.8-0.6c0.8-2.5 3.3-8.8 10.3-12.3 7.9-4 18.2-2.9 26.2 2.6l-1.1 1.6c-7.4-5.1-16.9-6.1-24.2-2.5-6.3 3.2-8.7 8.9-9.4 11.2z"/>
							<path id="&lt;Path&gt;" class="s9" d="m378.9 103.5l-3 28.2 9 7.7 1.6-36.1z"/>
						</g>
						<path id="&lt;Path&gt;" class="s8" d="m352 107.2c0.7-1.7 7.1-0.1 12.4-3.4 2.3-1.5 2.7-2.8 3.5-2.6 2 0.4 2.7 10.3-2.5 12-3.2 1.1-7.2-1.1-9.1-2.1-1.4-0.7-4.7-2.6-4.3-3.9z"/>
					</g>
					<path id="&lt;Path&gt;" class="s9" d="m467.2 188c0 0-12.1-44.1-28.1-68.2-5.7 3.1-11.2 6.7-16.6 10.9 0 18.9 5.6 28.1 11 33 7.5 6.9 14.8 5.6 21.9 14.8 5.1 6.6 3.8 10.3 7.2 16.4 3.3-4.1 4.6-6.9 4.6-6.9z"/>
					<path id="&lt;Path&gt;" class="s9" d="m467.2 188c0 0-1.9 2.2-5.3 5.4 0.7 1.4 1.5 2.9 2.8 4.6 7.8 10.1 14.6 7.4 19.4 14.6 7.7 11.6 4.1 33.4 4.4 44.1 0.8-1.4 2.3-5.3 7.8-6.5 8.2-1.9 5.9-17.4 5.9-17.4 0 0-16-32.7-35-44.8z"/>
					<path id="&lt;Path&gt;" class="s3" d="m401 109.4c0 0-7.2 33.7 47 36.7 0 0 13.6-7.8 6.7-31.5 0 0-46.7-24-53.7-5.2z"/>
					<path id="&lt;Path&gt;" class="s6" d="m454.7 114.6l31.4 14.1c7.7 3.4 13.4 10 15.8 18l11.8 39.7-14.6 18.4-13-36.2c-3.2-9.1-10.8-15.9-20.2-18.2l-17.9-4.3z"/>
					<g id="&lt;Group&gt;">
						<path id="&lt;Path&gt;" class="s6" d="m517.7 193.8l5.2-4.1 2.2 0.2-3.7 9.7"/>
						<path id="&lt;Path&gt;" class="s6" d="m504.9 230c0 0-9.7-11.8-4.4-32 0 0 0.3-7.9 12.9-11.9l18.3 25.7c0 0-14.7 27.7-26.8 18.2z"/>
						<path id="&lt;Path&gt;" class="s6" d="m510 228.9l-3.4 15.3-1.1-0.9c-1.4-1.3-2.2-3-2.1-4.9l0.5-13z"/>
						<path id="&lt;Path&gt;" class="s6" d="m531 210.9l15.7 16.9-2.9 0.3c-1.7 0.2-3.4-0.2-4.9-1.2l-15.5-9.9 6.6-6"/>
						<path id="&lt;Path&gt;" class="s6" d="m525.3 215l12.9 25.6-1.2 0.2c-2.1 0.3-4.3-0.5-5.8-2l-14.2-14.9 6.9-4.6"/>
						<path id="&lt;Path&gt;" class="s6" d="m518.6 225.4l6 20.5-0.6-0.1c-2.3-0.2-4.4-1.5-5.6-3.4l-8.4-13.5 5.9-2.4"/>
						<path id="&lt;Path&gt;" class="s7" d="m511.9 186.6c-0.1 1.8-0.2 4.4-0.4 14.6-0.2 9.8-0.3 10.7-0.8 12.2-0.7 2.4-2.7 7.1-8.7 11.6-2.4-5.2-4.8-14.5-1.5-27 0 0 0.3-7.2 11.4-11.4z"/>
						<path id="&lt;Path&gt;" class="s10" d="m511.4 198.2l0.8 0.9 10-8.3c0.7-0.5 1.5-0.8 2.4-0.8l-6.4 15.9 1.1 0.5 7-17.5h-2.1c-0.9-0.1-1.7 0.2-2.4 0.8z"/>
						<path id="&lt;Path&gt;" class="s8" d="m507.8 228.6c1 0.7 2.4 0.9 3.6 0.5 1.4-0.5 3.1-1.2 4.8-2.3 6.5-4.3 10.6-12.6 8.6-14.7-0.8-1-2.8-0.8-4-0.2-3 1.3-2.2 4.7-5 8.5-3.5 4.8-9.1 5.1-8.9 7.1 0.1 0.3 0.3 0.7 0.9 1.1z"/>
					</g>
					<path id="&lt;Path&gt;" class="s7" d="m499.1 204.8l5.1-5.3c-1.7-2.7-4.7-6.3-7.6-12.6-6.3-13.6-2.9-20.1-9.5-27.1-1.2-1.2-3.5-3.3-3.6-6.4-0.2-4 3.6-7.1 3-7.7-0.5-0.5-2.7 1.5-5.2 2.5-5.4 2.2-11.3-0.7-14-1.9-2.7-1.3-10.4-4.8-17.7-7.3l-1.6 7.1 17.8 4.3c9.4 2.2 17.1 9.1 20.4 18.2z"/>
					<g id="&lt;Group&gt;">
						<path id="&lt;Path&gt;" class="s9" d="m437.2 236.8c-6.9 4.4-5.3 12.4-13.1 21.5-4 4.6-8.7 7.5-12.8 9.4 5 3.9 9 6.8 15.6 6.5 0 0 4.1-7.9 7.7-17.1 2.8-7.1 8.6-19.8 16-22.2-4.5-0.8-9.4-0.7-13.4 1.9z"/>
					</g>
					<path id="&lt;Path&gt;" class="s6" d="m444 235.5c0 0-35.1 21.8-29.3 85.1 5.9 63.3 12.1 116.5 10.4 139.6 0 0 13.3 8.6 21.5 1.3 0 0 20.4-78.2 8.6-135.2 0 0 4.5-30.3 30.9-66 0 0-20.5-33.4-42.1-24.8z"/>
					<path id="&lt;Path&gt;" class="s8" d="m446.4 240.2c-10.6 7.1-19.5 21.7-26.3 44-4.4 14.2-8.8 28.6-5.2 30.3 4.6 2.2 18.6-18.4 37.5-46.2 10.5-15.5 14.8-23.2 11.7-27.2-2.9-3.8-12.4-4.5-17.7-0.9z"/>
					<path id="&lt;Path&gt;" class="s9" d="m490.2 265.6c0 0-2.7 3.5-8.7 1.1l4.6-6.4c0 0 1.5 1.8 4.1 5.3z"/>
					<path id="&lt;Path&gt;" class="s6" d="m419.7 294.2l-49.1-108.6c0 0-5.1-7.2-29.4-0.5l51.2 123.5c0 0-14.8 10-17.1 12.6-2.3 2.6-1.2 15.2-1.2 15.2 0 0 13.2 11.5 35 5.8 1.6-0.4 5-3.2 5-3.2l0.8-23.9 4.8-10.3c1.5-3.4 1.5-7.2 0-10.6z"/>
					<path id="&lt;Path&gt;" class="s7" d="m370.6 185.6c0 0-1.2-1.7-5.3-2.7 2.2 7.7 6.4 13.8 11.8 24.2 8 15.4 4.3 12.6 15.5 36.5 9.5 20.5 12.5 23.2 16.2 35.9 1.8 6.2 4.3 15.1 4.5 26.4 0.3 17.5-4.5 29.9-7 37 3.2-0.5 4.2-2.6 7.6-3.9l1-23.9 4.8-10.3c1.5-3.4 1.5-7.2 0-10.6z"/>
					<path id="&lt;Path&gt;" class="s3" d="m381.1 281.7l11.3 26.9c4-2.9 12.7-7.6 27.5-4.3 1.4-3 1.4-6.6 0-9.6l-9.3-20.8c-13.3-0.4-21.9 2.9-29.5 7.8z"/>
					<path id="&lt;Path&gt;" class="s4" d="m406.7 323.5c0 0 6.1-0.9 10.3-3.3 4.2-2.5 2.7 18.3-0.1 18.8-2.8 0.5-4-2.5-11-2.7z"/>
					<path id="&lt;Path&gt;" class="s7" d="m451.8 411.4c-4 27.8-8.7 44.3-10.2 52.7 1.8-0.4 3.5-1.2 5-2.6 0 0 20.4-78.2 8.6-135.2 0 0 0.2-1.8 1-5-2.5 2.6-4.7 4.1-6.7 5-1.2 0.6-5.6 2.4-5.7 5.1-0.1 2.8 4.3 4.2 7.2 6.5 7.4 5.8 6.3 18.9 3.7 44.8-1.8 18.2-2.7 27.3-2.9 28.7z"/>
					<path id="&lt;Path&gt;" class="s4" d="m426.5 455.7l-1.1 0.3c0 0-0.7 10.3-4.2 17.5-3.4 7.1-22.4 21.9-18.7 29.7 3.7 7.8 12.5 9.4 26.5 9.4 21.3 0.2 15.8-10.6 19.9-12.4 4.2-1.9 7.7-7.4 7.7-7.4 0 0 2.8-32.1-8.1-39 0 0-0.6 3.3-1.7 6.9-0.6 2.3-4.1-0.7-9-3.5-3.4-1.9-7.4-2.5-11.3-1.5z"/>
					<path id="&lt;Path&gt;" class="s5" d="m448.5 453.8c0 0-0.6 3.3-1.7 6.9-0.4 1.4-1.8 0.8-4-0.5-0.1 1.8-0.1 3.2 0 3.9 0.1 2.9 0.8 4.3 3.8 12 4.9 12.3 5.7 15.1 4.3 17.7-1 1.8-1.9 1.4-5.1 4.5-4 3.9-5.2 7.4-6.3 8.9-5.1 7.2-26.1-0.2-35.8-2 4.2 6.1 12.6 7.4 25.3 7.4 21.3 0.2 15.8-10.6 19.9-12.4 4.2-1.9 7.7-7.4 7.7-7.4 0 0 2.8-32.1-8.1-39z"/>
					<path id="&lt;Path&gt;" class="s2" d="m294.8 295c0 0 29 22.1 46.4 24.4l11.2 0.7c0 0 4.9 8.1-0.8 14 0 0-11.1-2-19.7 2.2-8.6 4.1-41.5 28.3-41.5 28.3l11.1-21.1c0 0 17.8-12.8 33.4-17 0 0-28.1-8.2-35.8-19z"/>
					<path id="&lt;Path&gt;" class="s1" d="m297.2 295.1c0 0 29 22.2 46.4 24.5l11.2 0.7c0 0 4.9 8.1-0.9 14 0 0-11-2-19.6 2.1-8.6 4.2-41.5 28.3-41.5 28.3l11.1-21.1c0 0 17.8-12.8 33.4-17 0 0-28.1-8.2-35.8-19z"/>
					<path id="&lt;Path&gt;" class="s4" d="m354.8 320.3l44.4 2.8c0 0 3.5 6.8-1.1 14l-44.2-2.8z"/>
					<g id="&lt;Group&gt;">
						<path id="&lt;Path&gt;" class="s2" d="m301.5 307.6c2.5 3.5 7 6.7 12.1 9.4-0.8-4.7-2-9.1-3.3-12.8-7.7-4.9-13.1-9.1-13.1-9.1z"/>
						<path id="&lt;Path&gt;" class="s2" d="m356.7 327.8c-10.2 0.1-14.3 1.4-16.2 2.1-6.2 2.3-11.3 5.9-15.8 9.1-8.8 6.2-13.4 11.5-14.8 10.5-1.2-0.9 0.8-5.2 1.8-7.8q0.8-2 1.3-4c-5.4 3.3-9.1 5.9-9.1 5.9l-11.1 21.1c0 0 32.9-24.1 41.5-28.3 8.6-4.1 19.6-2.1 19.6-2.1 2-2.1 2.7-4.4 2.8-6.5z"/>
					</g>
					<path id="&lt;Path&gt;" class="s5" d="m400.5 329.6c-2.6 0.6-5.5 1-8.6 1.1-8.6 0.4-7.5-1.7-24.9-2.6-5.1-0.3-9.3-0.4-12.7-0.3l-0.4 6.5 44.2 2.8c1.7-2.7 2.3-5.2 2.4-7.5z"/>
					<path id="&lt;Path&gt;" class="s5" d="m416.9 339c2-0.3 3.3-10.7 2.5-16-3.3 0.9-7.4 3.2-13 5l-0.5 8.3c7 0.2 8.2 3.2 11 2.7z"/>
					<g id="&lt;Group&gt;">
						<path id="&lt;Path&gt;" class="s6" d="m382.5 337c0 0 3.5-4.2 8.5-2.5 0 0-3.2 9-9.3 6.2"/>
						<path id="&lt;Path&gt;" class="s10" d="m383.3 342.5c-0.6-0.4-1.4-1.4-1.6-1.8 1.1 0.5 2.1 0.7 3.1 0.2 2.4-1 4.1-4.1 4.9-5.7-3.7-0.7-6.3 2.3-6.5 2.4l-1.4-1.2c0.1-0.2 4-4.7 9.5-2.8l0.9 0.3-0.3 1c-0.1 0.2-2.3 6.1-6.3 7.8-0.8 0.3-1 0.5-2.3-0.2z"/>
					</g>
					<g id="&lt;Group&gt;">
						<path id="&lt;Path&gt;" class="s6" d="m390.8 338.2c0 0 3.6-4.2 8.5-2.5 0 0-3.6 10.2-9.7 7.4"/>
						<path id="&lt;Path&gt;" class="s10" d="m391.9 344.3c-0.7 0-1.8-0.8-2.4-1.2 1.1 0.5 2.7-0.4 3.7-1 2.2-1.4 4.1-4.1 4.8-5.8-3.8-0.6-6.4 2.4-6.4 2.5l-1.5-1.3c0.2-0.2 4-4.6 9.6-2.7l0.9 0.3-0.4 0.9c-0.1 0.3-2.2 6.2-6.3 7.9-0.8 0.3-1.1 0.5-2 0.4z"/>
					</g>
					<g id="&lt;Group&gt;">
						<path id="&lt;Path&gt;" class="s6" d="m408.9 336.1c0 0 3.2-4.2 7.7-2.5 0 0-2.1 9-11.5 9.5"/>
						<path id="&lt;Path&gt;" class="s10" d="m405.1 343.1c7-0.4 9.6-6.5 10.3-8.9-3.3-0.6-5.6 2.3-5.7 2.5l-1.6-1.2c1.3-1.6 4.8-4.4 8.9-2.8l0.7 0.3-0.1 0.8c-0.1 0.1-2.5 8.7-12.5 9.3z"/>
					</g>
					<g id="&lt;Group&gt;">
						<path id="&lt;Path&gt;" class="s6" d="m407.3 331.6c0 0 3.5-4.2 8.5-2.5 0 0-9.4 15.5-15.8 14.6"/>
						<path id="&lt;Path&gt;" class="s10" d="m400 343.7c-0.1 0 0 0 0 0 4.4 0.6 11.3-9.2 14.3-14-3.7-0.5-6.2 2.5-6.2 2.5l-1.5-1.3c0.1-0.1 4-4.6 9.5-2.7l1.1 0.4-0.6 1c-0.9 1.7-11.1 15-16.6 14.1z"/>
					</g>
					<g id="&lt;Group&gt;">
						<path id="&lt;Path&gt;" class="s6" d="m394.5 317.7c0 0 1.3 8.8 7.1 19.6 0 0 7.9 0.6 4.6-9.3l1.5-13.7"/>
						<path id="&lt;Path&gt;" class="s10" d="m401.5 338.2q0 0 0 0h-0.5l-0.3-0.5c-5.7-10.8-7.1-19.5-7.1-19.9l1.9-0.2c0 0 1.3 8.4 6.7 18.7 0.7 0 2.2-0.3 3.1-1.4 1-1.3 1-3.6 0-6.6l-0.1-0.2 1.6-13.9 1.9 0.2-1.5 13.5c1.1 3.6 1 6.4-0.4 8.2-1.8 2.3-4.9 2.2-5.3 2.1z"/>
					</g>
					<g id="&lt;Clip Group&gt;" clip-path="url(#cp1)">
						<g id="&lt;Group&gt;">
							<g id="&lt;Group&gt;">
								<path id="&lt;Path&gt;" class="s3" d="m145.8 407.8l-1-0.1 12.1-191.2h1z"/>
								<path id="&lt;Path&gt;" class="s3" d="m153 408.2h-0.9l12-191.3 1 0.1z"/>
								<path id="&lt;Path&gt;" class="s3" d="m160.2 408.7l-0.9-0.1 12.1-191.2 0.9 0.1z"/>
								<path id="&lt;Path&gt;" class="s3" d="m167.5 409.1h-1l12.1-191.3 0.9 0.1z"/>
								<path id="&lt;Path&gt;" class="s3" d="m174.7 409.6l-1-0.1 12.1-191.2 1 0.1z"/>
								<path id="&lt;Path&gt;" class="s3" d="m181.9 410.1l-0.9-0.1 12-191.2h1z"/>
								<path id="&lt;Path&gt;" class="s3" d="m189.2 410.5l-1-0.1 12.1-191.2 0.9 0.1z"/>
								<path id="&lt;Path&gt;" class="s3" d="m196.4 411l-1-0.1 12.1-191.2h1z"/>
								<path id="&lt;Path&gt;" class="s3" d="m203.6 411.4h-1l12.1-191.3 1 0.1z"/>
								<path id="&lt;Path&gt;" class="s3" d="m210.8 411.9l-0.9-0.1 12-191.2h1z"/>
								<path id="&lt;Path&gt;" class="s3" d="m218.1 412.3h-1l12.1-191.3 0.9 0.1z"/>
								<path id="&lt;Path&gt;" class="s3" d="m225.3 412.8l-1-0.1 12.1-191.2 1 0.1z"/>
								<path id="&lt;Path&gt;" class="s3" d="m232.5 413.2h-0.9l12-191.2h1z"/>
								<path id="&lt;Path&gt;" class="s3" d="m239.7 413.7l-0.9-0.1 12.1-191.2 0.9 0.1z"/>
								<path id="&lt;Path&gt;" class="s3" d="m247 414.2l-1-0.1 12.1-191.2h0.9z"/>
								<path id="&lt;Path&gt;" class="s3" d="m254.2 414.6h-1l12.1-191.3 1 0.1z"/>
								<path id="&lt;Path&gt;" class="s3" d="m261.4 415.1l-0.9-0.1 12-191.2h1z"/>
								<path id="&lt;Path&gt;" class="s3" d="m268.6 415.5h-0.9l12.1-191.3 0.9 0.1z"/>
								<path id="&lt;Path&gt;" class="s3" d="m275.9 416l-1-0.1 12.1-191.2 0.9 0.1z"/>
								<path id="&lt;Path&gt;" class="s3" d="m283.1 416.4h-1l12.1-191.3 1 0.1z"/>
								<path id="&lt;Path&gt;" class="s3" d="m290.3 416.9l-0.9-0.1 12-191.2 1 0.1z"/>
							</g>
							<g id="&lt;Group&gt;">
								<path id="&lt;Path&gt;" class="s3" d="m323.8 250.9l-191.3-12 0.1-1 191.2 12.1z"/>
								<path id="&lt;Path&gt;" class="s3" d="m323.3 258.2l-191.2-12.1v-1l191.3 12.1z"/>
								<path id="&lt;Path&gt;" class="s3" d="m322.9 265.4l-191.3-12.1 0.1-0.9 191.2 12z"/>
								<path id="&lt;Path&gt;" class="s3" d="m322.4 272.6l-191.2-12.1v-0.9l191.3 12.1z"/>
								<path id="&lt;Path&gt;" class="s3" d="m321.9 279.8l-191.2-12 0.1-1 191.2 12.1z"/>
								<path id="&lt;Path&gt;" class="s3" d="m321.5 287.1l-191.2-12.1v-1l191.2 12.1z"/>
								<path id="&lt;Path&gt;" class="s3" d="m321 294.3l-191.2-12.1 0.1-0.9 191.2 12z"/>
								<path id="&lt;Path&gt;" class="s3" d="m320.6 301.5l-191.3-12 0.1-1 191.2 12.1z"/>
								<path id="&lt;Path&gt;" class="s3" d="m320.1 308.8l-191.2-12.1v-1l191.3 12.1z"/>
								<path id="&lt;Path&gt;" class="s3" d="m319.7 316l-191.3-12.1 0.1-1 191.2 12.1z"/>
								<path id="&lt;Path&gt;" class="s3" d="m319.2 323.2l-191.2-12.1v-0.9l191.3 12z"/>
								<path id="&lt;Path&gt;" class="s3" d="m318.7 330.4l-191.2-12 0.1-1 191.2 12.1z"/>
								<path id="&lt;Path&gt;" class="s3" d="m318.3 337.7l-191.2-12.1v-1l191.3 12.1z"/>
								<path id="&lt;Path&gt;" class="s3" d="m317.8 344.9l-191.2-12.1 0.1-0.9 191.2 12z"/>
								<path id="&lt;Path&gt;" class="s3" d="m317.4 352.1l-191.3-12.1 0.1-0.9 191.2 12.1z"/>
								<path id="&lt;Path&gt;" class="s3" d="m316.9 359.3l-191.2-12 0.1-1 191.2 12.1z"/>
								<path id="&lt;Path&gt;" class="s3" d="m316.5 366.6l-191.3-12.1 0.1-1 191.2 12.1z"/>
								<path id="&lt;Path&gt;" class="s3" d="m316 373.8l-191.2-12.1v-0.9l191.3 12z"/>
								<path id="&lt;Path&gt;" class="s3" d="m315.6 381l-191.3-12.1 0.1-0.9 191.2 12.1z"/>
								<path id="&lt;Path&gt;" class="s3" d="m315.1 388.2l-191.2-12v-1l191.3 12.1z"/>
								<path id="&lt;Path&gt;" class="s3" d="m314.6 395.5l-191.2-12.1 0.1-1 191.2 12.1z"/>
							</g>
						</g>
					</g>
					<path id="&lt;Compound Path&gt;" fill-rule="evenodd" class="s2" d="m306.7 329.7c-2 31.3-29.7 54.9-61.9 52.9-32.2-2-56.7-29-54.8-60.2 2-31.3 29.7-55 61.9-52.9 32.2 2 56.7 29 54.8 60.2zm-5.6-0.3c1.8-28-20.1-52.1-49-53.9-28.8-1.8-53.5 19.3-55.3 47.3-1.8 27.9 20.1 52.1 49 53.9 28.8 1.8 53.6-19.4 55.3-47.3z"/>
					<path id="&lt;Compound Path&gt;" fill-rule="evenodd" class="s1" d="m309.1 329.9c-2 31.2-29.7 54.9-61.9 52.9-32.2-2.1-56.8-29-54.8-60.3 2-31.2 29.7-54.9 61.9-52.9 32.2 2.1 56.7 29 54.8 60.3zm-5.6-0.4c1.8-27.9-20.1-52-49-53.9-28.8-1.8-53.6 19.4-55.3 47.3-1.8 28 20.1 52.1 49 53.9 28.8 1.9 53.5-19.3 55.3-47.3z"/>
					<path id="&lt;Path&gt;" class="s9" d="m410.6 273.9q-1.9 0-3.6 0c0.6 1.7 1.2 3.5 1.8 5.6 1.7 5.7 3.9 13.7 4.4 23.7 2.1 0.2 4.3 0.5 6.7 1.1 1.4-3 1.4-6.6 0-9.6z"/>
				</g>
			</g>
		</g>
		<path id="&lt;Path&gt;" class="s7" d="m424.3 356.9c5.8-0.4 9.7-8.1 8.7-9.4-0.7-0.7-2.7 1.1-6.9 1.5-3.8 0.3-6.8-1-8.9-2q0.4 3.5 0.7 7c1.7 1.7 3.9 3 6.4 2.9z"/>
	</g>
</svg>